<svg xmlns="http://www.w3.org/2000/svg" xmlns:xlink="http://www.w3.org/1999/xlink" width="500" zoomAndPan="magnify" viewBox="0 0 375 374.999991" height="500" preserveAspectRatio="xMidYMid meet" version="1.0"><defs><clipPath id="id1"><path d="M 66 49.242188 L 342.652344 49.242188 L 342.652344 325.992188 L 66 325.992188 Z M 66 49.242188 " clip-rule="nonzero"/></clipPath></defs><g clip-path="url(#id1)"><path fill="#008037" d="M 204.285156 303.773438 L 204.285156 299.5 C 265.867188 299.5 315.972656 249.324219 315.972656 187.652344 C 315.972656 141.445312 288.253906 100.605469 245.359375 83.609375 L 246.929688 79.636719 C 268.304688 88.101562 286.546875 102.625 299.683594 121.625 C 313.132812 141.074219 320.238281 163.90625 320.238281 187.652344 C 320.238281 251.679688 268.222656 303.773438 204.285156 303.773438 Z M 180.292969 187.652344 C 180.292969 174.398438 191.054688 163.621094 204.285156 163.621094 C 217.519531 163.621094 228.285156 174.398438 228.285156 187.652344 C 228.285156 200.902344 217.519531 211.679688 204.285156 211.679688 C 191.054688 211.679688 180.292969 200.902344 180.292969 187.652344 Z M 204.285156 94.8125 L 204.285156 92.675781 C 256.578125 92.675781 299.125 135.28125 299.125 187.652344 C 299.125 240.019531 256.578125 282.628906 204.285156 282.628906 L 204.285156 278.355469 C 254.226562 278.355469 294.855469 237.667969 294.855469 187.652344 C 294.855469 137.640625 254.226562 96.949219 204.285156 96.949219 Z M 204.285156 71.53125 C 213.222656 71.53125 222.125 72.554688 230.742188 74.566406 L 229.773438 78.730469 C 221.472656 76.789062 212.898438 75.804688 204.285156 75.804688 Z M 204.285156 49.261719 C 128.089844 49.261719 66.097656 111.34375 66.097656 187.652344 C 66.097656 205.972656 69.703125 223.453125 76.1875 239.46875 C 91.316406 238.871094 104.65625 244.207031 111.15625 253.402344 L 111.15625 116.460938 L 115.425781 116.460938 L 115.425781 130.742188 C 115.980469 132.664062 121.042969 148.105469 144.277344 163.710938 C 171.863281 182.238281 179.683594 203.628906 166.898438 225.578125 L 163.210938 223.429688 C 174.839844 203.464844 167.667969 184.5625 141.902344 167.261719 C 127.289062 157.449219 119.503906 147.714844 115.425781 140.882812 L 115.425781 264.996094 L 115.3125 264.996094 C 115.78125 272.097656 112.898438 279.375 106.996094 285.820312 C 131.984375 310.664062 166.375 326.042969 204.285156 326.042969 C 280.484375 326.042969 342.476562 263.960938 342.476562 187.652344 C 342.476562 111.34375 280.484375 49.261719 204.285156 49.261719 " fill-opacity="1" fill-rule="nonzero"/></g><path fill="#008037" d="M 110.683594 262.585938 C 108.164062 251.019531 94.8125 243.640625 78.625 243.640625 C 78.410156 243.640625 78.1875 243.675781 77.972656 243.675781 C 77.207031 243.683594 76.425781 243.761719 75.648438 243.804688 C 74.898438 243.84375 74.160156 243.855469 73.402344 243.925781 C 71.144531 244.140625 68.859375 244.460938 66.550781 244.96875 C 56.136719 247.242188 46.984375 252.171875 40.777344 258.839844 C 34.769531 265.296875 32.273438 272.597656 33.757812 279.402344 C 35.242188 286.207031 40.546875 291.800781 48.695312 295.164062 C 57.113281 298.636719 67.484375 299.296875 77.894531 297.019531 C 86.902344 295.046875 94.960938 291.089844 100.988281 285.742188 C 101.511719 285.277344 101.996094 284.789062 102.484375 284.304688 C 102.878906 283.917969 103.292969 283.546875 103.667969 283.144531 C 103.792969 283.007812 103.894531 282.871094 104.019531 282.730469 C 109.757812 276.375 112.136719 269.246094 110.683594 262.585938 " fill-opacity="1" fill-rule="nonzero"/></svg>