<svg xmlns="http://www.w3.org/2000/svg" xmlns:xlink="http://www.w3.org/1999/xlink" width="500" zoomAndPan="magnify" viewBox="0 0 375 374.999991" height="500" preserveAspectRatio="xMidYMid meet" version="1.0"><defs><clipPath id="id1"><path d="M 253 103 L 337.5 103 L 337.5 272 L 253 272 Z M 253 103 " clip-rule="nonzero"/></clipPath><clipPath id="id2"><path d="M 37.5 267 L 337.5 267 L 337.5 337.5 L 37.5 337.5 Z M 37.5 267 " clip-rule="nonzero"/></clipPath><clipPath id="id3"><path d="M 37.5 37.5 L 337.5 37.5 L 337.5 108 L 37.5 108 Z M 37.5 37.5 " clip-rule="nonzero"/></clipPath><clipPath id="id4"><path d="M 37.5 75 L 71 75 L 71 300 L 37.5 300 Z M 37.5 75 " clip-rule="nonzero"/></clipPath></defs><path fill="#008037" d="M 253.125 173.4375 L 253.125 201.5625 C 260.859375 201.5625 267.1875 195.234375 267.1875 187.5 C 267.1875 179.765625 260.859375 173.4375 253.125 173.4375 Z M 253.125 173.4375 " fill-opacity="1" fill-rule="nonzero"/><g clip-path="url(#id1)"><path fill="#008037" d="M 253.125 103.125 L 253.125 138.28125 C 280.3125 138.28125 302.34375 160.3125 302.34375 187.5 C 302.34375 214.6875 280.3125 236.71875 253.125 236.71875 L 253.125 271.875 C 299.53125 271.875 337.5 233.90625 337.5 187.5 C 337.5 140.859375 299.53125 103.125 253.125 103.125 Z M 253.125 103.125 " fill-opacity="1" fill-rule="nonzero"/></g><path fill="#008037" d="M 253.125 227.34375 C 275.15625 227.34375 292.96875 209.53125 292.96875 187.5 C 292.96875 165.46875 275.15625 147.65625 253.125 147.65625 L 253.125 164.0625 C 266.015625 164.0625 276.5625 174.609375 276.5625 187.5 C 276.5625 200.390625 266.015625 210.9375 253.125 210.9375 Z M 253.125 227.34375 " fill-opacity="1" fill-rule="nonzero"/><g clip-path="url(#id2)"><path fill="#008037" d="M 332.8125 267.1875 C 330.234375 267.1875 328.125 269.296875 328.125 271.875 L 328.125 324.375 C 328.125 326.484375 326.015625 328.125 323.4375 328.125 L 51.5625 328.125 C 48.984375 328.125 46.875 326.484375 46.875 324.375 L 46.875 308.90625 C 43.359375 308.203125 40.3125 306.796875 37.5 304.6875 L 37.5 324.375 C 37.5 331.640625 43.828125 337.5 51.5625 337.5 L 323.4375 337.5 C 331.171875 337.5 337.5 331.640625 337.5 324.375 L 337.5 271.875 C 337.5 269.296875 335.390625 267.1875 332.8125 267.1875 Z M 332.8125 267.1875 " fill-opacity="1" fill-rule="nonzero"/></g><g clip-path="url(#id3)"><path fill="#008037" d="M 323.4375 37.5 L 51.5625 37.5 C 43.828125 37.5 37.5 43.359375 37.5 50.625 L 37.5 70.3125 C 40.3125 68.203125 43.359375 66.796875 46.875 66.09375 L 46.875 50.625 C 46.875 48.515625 48.984375 46.875 51.5625 46.875 L 323.4375 46.875 C 326.015625 46.875 328.125 48.515625 328.125 50.625 L 328.125 103.125 C 328.125 105.703125 330.234375 107.8125 332.8125 107.8125 C 335.390625 107.8125 337.5 105.703125 337.5 103.125 L 337.5 50.625 C 337.5 43.359375 331.171875 37.5 323.4375 37.5 Z M 323.4375 37.5 " fill-opacity="1" fill-rule="nonzero"/></g><path fill="#008037" d="M 178.828125 154.6875 L 149.296875 154.6875 C 143.203125 154.6875 138.28125 159.609375 138.28125 165.703125 L 138.28125 192.890625 C 136.875 192.421875 135.234375 192.1875 133.59375 192.1875 C 125.859375 192.1875 119.53125 198.515625 119.53125 206.25 C 119.53125 213.984375 125.859375 220.3125 133.59375 220.3125 C 141.328125 220.3125 147.65625 213.984375 147.65625 206.25 L 147.65625 165.703125 C 147.65625 164.765625 148.359375 164.0625 149.296875 164.0625 L 178.828125 164.0625 C 179.765625 164.0625 180.46875 164.765625 180.46875 165.703125 L 180.46875 181.171875 C 179.0625 180.703125 177.421875 180.46875 175.78125 180.46875 C 168.046875 180.46875 161.71875 186.796875 161.71875 194.53125 C 161.71875 202.265625 168.046875 208.59375 175.78125 208.59375 C 183.515625 208.59375 189.84375 202.265625 189.84375 194.53125 L 189.84375 165.703125 C 189.84375 159.609375 184.921875 154.6875 178.828125 154.6875 Z M 133.59375 210.9375 C 131.015625 210.9375 128.90625 208.828125 128.90625 206.25 C 128.90625 203.671875 131.015625 201.5625 133.59375 201.5625 C 136.171875 201.5625 138.28125 203.671875 138.28125 206.25 C 138.28125 208.828125 136.171875 210.9375 133.59375 210.9375 Z M 175.78125 199.21875 C 173.203125 199.21875 171.09375 197.109375 171.09375 194.53125 C 171.09375 191.953125 173.203125 189.84375 175.78125 189.84375 C 178.359375 189.84375 180.46875 191.953125 180.46875 194.53125 C 180.46875 197.109375 178.359375 199.21875 175.78125 199.21875 Z M 175.78125 199.21875 " fill-opacity="1" fill-rule="nonzero"/><g clip-path="url(#id4)"><path fill="#008037" d="M 51.5625 300 L 70.3125 300 L 70.3125 75 L 51.5625 75 C 43.828125 75 37.5 81.328125 37.5 89.0625 L 37.5 285.9375 C 37.5 293.671875 43.828125 300 51.5625 300 Z M 51.5625 300 " fill-opacity="1" fill-rule="nonzero"/></g><path fill="#008037" d="M 243.75 285.9375 L 243.75 89.0625 C 243.75 81.328125 237.421875 75 229.6875 75 L 79.6875 75 L 79.6875 300 L 229.6875 300 C 237.421875 300 243.75 293.671875 243.75 285.9375 Z M 157.03125 248.4375 C 123.28125 248.4375 96.09375 221.25 96.09375 187.5 C 96.09375 153.75 123.28125 126.5625 157.03125 126.5625 C 190.78125 126.5625 217.96875 153.75 217.96875 187.5 C 217.96875 221.25 190.78125 248.4375 157.03125 248.4375 Z M 157.03125 248.4375 " fill-opacity="1" fill-rule="nonzero"/></svg>