<svg xmlns="http://www.w3.org/2000/svg" xmlns:xlink="http://www.w3.org/1999/xlink" width="500" zoomAndPan="magnify" viewBox="0 0 375 374.999991" height="500" preserveAspectRatio="xMidYMid meet" version="1.0"><defs><clipPath id="id1"><path d="M 26.59375 287.933594 L 78.746094 287.933594 L 78.746094 337.433594 L 26.59375 337.433594 Z M 26.59375 287.933594 " clip-rule="nonzero"/></clipPath><clipPath id="id2"><path d="M 94 287.933594 L 146 287.933594 L 146 337.433594 L 94 337.433594 Z M 94 287.933594 " clip-rule="nonzero"/></clipPath><clipPath id="id3"><path d="M 161.160156 287.933594 L 213.957031 287.933594 L 213.957031 337.433594 L 161.160156 337.433594 Z M 161.160156 287.933594 " clip-rule="nonzero"/></clipPath><clipPath id="id4"><path d="M 229 287.933594 L 281 287.933594 L 281 337.433594 L 229 337.433594 Z M 229 287.933594 " clip-rule="nonzero"/></clipPath><clipPath id="id5"><path d="M 296.367188 287.933594 L 348.519531 287.933594 L 348.519531 337.433594 L 296.367188 337.433594 Z M 296.367188 287.933594 " clip-rule="nonzero"/></clipPath><clipPath id="id6"><path d="M 77.609375 33.277344 L 210 33.277344 L 210 260 L 77.609375 260 Z M 77.609375 33.277344 " clip-rule="nonzero"/></clipPath><clipPath id="id7"><path d="M 156 39 L 297.359375 39 L 297.359375 264.96875 L 156 264.96875 Z M 156 39 " clip-rule="nonzero"/></clipPath></defs><g clip-path="url(#id1)"><path fill="#008037" d="M 75.957031 304.664062 L 63.0625 302.792969 C 62.117188 302.65625 61.300781 302.0625 60.882812 301.210938 L 55.117188 289.542969 C 54.050781 287.394531 50.984375 287.394531 49.917969 289.542969 L 44.152344 301.210938 C 43.730469 302.0625 42.914062 302.65625 41.972656 302.792969 L 29.078125 304.664062 C 26.703125 305.007812 25.753906 307.921875 27.472656 309.59375 L 36.804688 318.675781 C 37.484375 319.339844 37.796875 320.296875 37.636719 321.238281 L 35.433594 334.058594 C 35.027344 336.421875 37.511719 338.222656 39.636719 337.105469 L 51.167969 331.050781 C 52.015625 330.609375 53.019531 330.609375 53.867188 331.050781 L 65.398438 337.105469 C 67.523438 338.222656 70.007812 336.421875 69.601562 334.058594 L 67.398438 321.238281 C 67.238281 320.296875 67.546875 319.339844 68.230469 318.675781 L 77.5625 309.59375 C 79.28125 307.921875 78.332031 305.007812 75.957031 304.664062 " fill-opacity="1" fill-rule="nonzero"/></g><g clip-path="url(#id2)"><path fill="#008037" d="M 143.476562 304.664062 L 130.582031 302.792969 C 129.640625 302.65625 128.824219 302.0625 128.402344 301.210938 L 122.632812 289.542969 C 121.574219 287.394531 118.503906 287.394531 117.441406 289.542969 L 111.675781 301.210938 C 111.25 302.0625 110.4375 302.65625 109.492188 302.792969 L 96.597656 304.664062 C 94.222656 305.007812 93.273438 307.921875 94.992188 309.59375 L 104.324219 318.675781 C 105.007812 319.339844 105.316406 320.296875 105.15625 321.238281 L 102.953125 334.058594 C 102.550781 336.421875 105.03125 338.222656 107.15625 337.105469 L 118.6875 331.050781 C 119.535156 330.609375 120.542969 330.609375 121.382812 331.050781 L 132.917969 337.105469 C 135.042969 338.222656 137.527344 336.421875 137.121094 334.058594 L 134.917969 321.238281 C 134.757812 320.296875 135.070312 319.339844 135.75 318.675781 L 145.082031 309.59375 C 146.800781 307.921875 145.851562 305.007812 143.476562 304.664062 " fill-opacity="1" fill-rule="nonzero"/></g><g clip-path="url(#id3)"><path fill="#008037" d="M 211 304.664062 L 198.101562 302.792969 C 197.15625 302.65625 196.34375 302.0625 195.921875 301.210938 L 190.15625 289.542969 C 189.09375 287.394531 186.023438 287.394531 184.960938 289.542969 L 179.195312 301.210938 C 178.773438 302.0625 177.957031 302.65625 177.011719 302.792969 L 164.117188 304.664062 C 161.742188 305.007812 160.796875 307.921875 162.511719 309.59375 L 171.84375 318.675781 C 172.527344 319.339844 172.835938 320.296875 172.675781 321.238281 L 170.476562 334.058594 C 170.066406 336.421875 172.550781 338.222656 174.675781 337.105469 L 186.210938 331.050781 C 187.054688 330.609375 188.0625 330.609375 188.90625 331.050781 L 200.441406 337.105469 C 202.566406 338.222656 205.046875 336.421875 204.640625 334.058594 L 202.4375 321.238281 C 202.277344 320.296875 202.589844 319.339844 203.273438 318.675781 L 212.601562 309.59375 C 214.320312 307.921875 213.371094 305.007812 211 304.664062 " fill-opacity="1" fill-rule="nonzero"/></g><g clip-path="url(#id4)"><path fill="#008037" d="M 278.515625 304.664062 L 265.621094 302.792969 C 264.679688 302.65625 263.863281 302.0625 263.441406 301.210938 L 257.675781 289.542969 C 256.613281 287.394531 253.542969 287.394531 252.480469 289.542969 L 246.714844 301.210938 C 246.292969 302.0625 245.476562 302.65625 244.535156 302.792969 L 231.640625 304.664062 C 229.261719 305.007812 228.3125 307.921875 230.035156 309.59375 L 239.367188 318.675781 C 240.046875 319.339844 240.359375 320.296875 240.199219 321.238281 L 237.996094 334.058594 C 237.589844 336.421875 240.070312 338.222656 242.195312 337.105469 L 253.730469 331.050781 C 254.574219 330.609375 255.582031 330.609375 256.425781 331.050781 L 267.957031 337.105469 C 270.085938 338.222656 272.566406 336.421875 272.160156 334.058594 L 269.957031 321.238281 C 269.796875 320.296875 270.109375 319.339844 270.789062 318.675781 L 280.121094 309.59375 C 281.84375 307.921875 280.894531 305.007812 278.515625 304.664062 " fill-opacity="1" fill-rule="nonzero"/></g><g clip-path="url(#id5)"><path fill="#008037" d="M 347.644531 309.59375 C 349.359375 307.921875 348.414062 305.007812 346.039062 304.664062 L 333.144531 302.792969 C 332.199219 302.65625 331.382812 302.0625 330.964844 301.210938 L 325.195312 289.542969 C 324.132812 287.394531 321.0625 287.394531 320 289.542969 L 314.234375 301.210938 C 313.8125 302.0625 312.996094 302.65625 312.050781 302.792969 L 299.15625 304.664062 C 296.785156 305.007812 295.835938 307.921875 297.554688 309.59375 L 306.882812 318.675781 C 307.566406 319.339844 307.878906 320.296875 307.714844 321.238281 L 305.511719 334.058594 C 305.109375 336.421875 307.59375 338.222656 309.714844 337.105469 L 321.25 331.050781 C 322.09375 330.609375 323.101562 330.609375 323.945312 331.050781 L 335.480469 337.105469 C 337.605469 338.222656 340.089844 336.421875 339.683594 334.058594 L 337.480469 321.238281 C 337.320312 320.296875 337.628906 319.339844 338.3125 318.675781 L 347.644531 309.59375 " fill-opacity="1" fill-rule="nonzero"/></g><g clip-path="url(#id6)"><path fill="#008037" d="M 78.96875 236.425781 C 85.320312 256.136719 112.066406 265.121094 138.714844 256.527344 C 164.128906 248.320312 180.230469 227.078125 176.15625 208.046875 C 176.230469 206.953125 176.109375 205.835938 175.671875 204.742188 L 133.867188 96.882812 C 140.488281 97.101562 152.027344 99.019531 168.46875 107.175781 C 195.773438 120.746094 207.632812 140.773438 207.632812 140.773438 C 215.367188 118.148438 189.566406 92.316406 171.476562 83.917969 C 158.867188 78.042969 133.359375 65.710938 119.101562 58.792969 L 111.144531 38.230469 C 109.59375 34.246094 105.109375 32.257812 101.105469 33.8125 C 97.128906 35.363281 95.140625 39.855469 96.695312 43.835938 L 151.011719 183.988281 C 140.609375 181.050781 128.191406 181.171875 115.753906 185.199219 C 89.105469 193.796875 72.613281 216.738281 78.96875 236.425781 Z M 78.96875 236.425781 " fill-opacity="1" fill-rule="nonzero"/></g><path fill="#008037" d="M 138.839844 176.65625 L 125.210938 141.429688 L 120.019531 142.375 C 114.394531 143.394531 109.8125 148.859375 109.789062 154.5625 L 109.691406 177.214844 C 109.667969 178.523438 109.910156 179.882812 110.296875 181.21875 C 111.265625 180.855469 112.261719 180.515625 113.28125 180.199219 C 121.71875 177.457031 130.398438 176.265625 138.839844 176.65625 Z M 138.839844 176.65625 " fill-opacity="1" fill-rule="nonzero"/><g clip-path="url(#id7)"><path fill="#008037" d="M 257.242188 39.101562 C 247.15625 39.101562 238.910156 47.480469 232.582031 60.902344 L 199.386719 97.660156 C 212.019531 111.207031 220.554688 129.050781 214.855469 145.679688 L 209.425781 161.554688 L 200.867188 147.109375 C 200.792969 146.964844 193.082031 134.4375 176.351562 123.175781 L 166.652344 133.878906 L 156.25 135.796875 L 182.800781 204.308594 C 183.480469 206.054688 183.820312 207.875 183.84375 209.746094 C 184.742188 214.625 184.59375 219.578125 183.578125 224.410156 L 237.746094 251.378906 C 243.203125 259.34375 249.703125 264.003906 257.242188 264.003906 C 283.503906 264.003906 297.253906 207.4375 297.253906 151.554688 C 297.253906 95.667969 283.503906 39.101562 257.242188 39.101562 Z M 257.242188 251.089844 C 248.609375 251.089844 236.921875 227.417969 232.21875 188.113281 C 232.511719 188.136719 232.800781 188.1875 233.09375 188.1875 C 246.429688 188.1875 257.242188 174.664062 257.242188 158.011719 C 257.242188 141.355469 246.429688 127.859375 233.09375 127.859375 C 232.363281 127.859375 231.6875 127.90625 230.980469 128.003906 C 234.425781 80.980469 247.691406 52.042969 257.242188 52.042969 C 268.300781 52.042969 284.351562 90.8125 284.351562 151.554688 C 284.351562 212.320312 268.300781 251.089844 257.242188 251.089844 Z M 257.242188 251.089844 " fill-opacity="1" fill-rule="nonzero"/></g></svg>