<svg xmlns="http://www.w3.org/2000/svg" xmlns:xlink="http://www.w3.org/1999/xlink" width="500" zoomAndPan="magnify" viewBox="0 0 375 374.999991" height="500" preserveAspectRatio="xMidYMid meet" version="1.0"><defs><filter x="0%" y="0%" width="100%" height="100%" id="id1"><feColorMatrix values="0 0 0 0 1 0 0 0 0 1 0 0 0 0 1 0 0 0 1 0" color-interpolation-filters="sRGB"/></filter><mask id="id2"><g filter="url(#id1)"><rect x="-37.5" width="450" fill="#000000" y="-37.499999" height="449.999989" fill-opacity="0.498"/></g></mask><clipPath id="id3"><path d="M 123 0.742188 L 193 0.742188 L 193 5 L 123 5 Z M 123 0.742188 " clip-rule="nonzero"/></clipPath><clipPath id="id4"><path d="M 227 142 L 315.871094 142 L 315.871094 147 L 227 147 Z M 227 142 " clip-rule="nonzero"/></clipPath><clipPath id="id5"><path d="M 227 151 L 315.871094 151 L 315.871094 156 L 227 156 Z M 227 151 " clip-rule="nonzero"/></clipPath><clipPath id="id6"><path d="M 121 311 L 196 311 L 196 315.742188 L 121 315.742188 Z M 121 311 " clip-rule="nonzero"/></clipPath><clipPath id="id7"><path d="M 227 170 L 315.871094 170 L 315.871094 175 L 227 175 Z M 227 170 " clip-rule="nonzero"/></clipPath><clipPath id="id8"><path d="M 227 160 L 315.871094 160 L 315.871094 165 L 227 165 Z M 227 160 " clip-rule="nonzero"/></clipPath><clipPath id="id9"><path d="M 0.871094 160 L 106 160 L 106 165 L 0.871094 165 Z M 0.871094 160 " clip-rule="nonzero"/></clipPath><clipPath id="id10"><path d="M 0.871094 151 L 106 151 L 106 156 L 0.871094 156 Z M 0.871094 151 " clip-rule="nonzero"/></clipPath><clipPath id="id11"><rect x="0" width="317" y="0" height="317"/></clipPath><clipPath id="id12"><path d="M 224 22.441406 L 323 22.441406 L 323 113 L 224 113 Z M 224 22.441406 " clip-rule="nonzero"/></clipPath><clipPath id="id13"><path d="M 29.871094 37 L 344.871094 37 L 344.871094 352.441406 L 29.871094 352.441406 Z M 29.871094 37 " clip-rule="nonzero"/></clipPath><clipPath id="id14"><path d="M 244.0625 219 L 282.929688 219 L 282.929688 257.699219 L 244.0625 257.699219 Z M 244.0625 219 " clip-rule="nonzero"/></clipPath><clipPath id="id15"><path d="M 305 196.21875 L 322 196.21875 L 322 222 L 305 222 Z M 305 196.21875 " clip-rule="nonzero"/></clipPath></defs><g mask="url(#id2)"><g transform="matrix(1, 0, 0, 1, 29, 37)"><g clip-path="url(#id11)"><path fill="#09520e" d="M 227.269531 79.996094 L 295.027344 79.996094 C 294.261719 78.664062 293.480469 77.34375 292.671875 76.035156 L 227.269531 76.035156 L 227.269531 79.996094 " fill-opacity="1" fill-rule="nonzero"/><path fill="#09520e" d="M 227.269531 61.128906 L 282.316406 61.128906 C 281.261719 59.792969 280.195312 58.472656 279.097656 57.167969 L 227.269531 57.167969 L 227.269531 61.128906 " fill-opacity="1" fill-rule="nonzero"/><path fill="#09520e" d="M 227.269531 70.5625 L 289.167969 70.5625 C 288.261719 69.230469 287.351562 67.910156 286.410156 66.601562 L 227.269531 66.601562 L 227.269531 70.5625 " fill-opacity="1" fill-rule="nonzero"/><path fill="#09520e" d="M 227.269531 88.257812 L 227.269531 89.433594 L 300.019531 89.433594 C 299.375 88.101562 298.707031 86.78125 298.027344 85.46875 L 227.269531 85.46875 L 227.269531 88.257812 " fill-opacity="1" fill-rule="nonzero"/><path fill="#09520e" d="M 227.269531 127.167969 L 312.777344 127.167969 C 312.507812 125.835938 312.21875 124.519531 311.925781 123.203125 L 227.269531 123.203125 L 227.269531 127.167969 " fill-opacity="1" fill-rule="nonzero"/><path fill="#09520e" d="M 227.269531 98.867188 L 304.246094 98.867188 C 303.699219 97.535156 303.132812 96.21875 302.558594 94.902344 L 227.269531 94.902344 L 227.269531 98.867188 " fill-opacity="1" fill-rule="nonzero"/><path fill="#09520e" d="M 227.269531 117.734375 L 310.566406 117.734375 C 310.21875 116.402344 309.847656 115.082031 309.453125 113.765625 L 227.269531 113.765625 L 227.269531 117.734375 " fill-opacity="1" fill-rule="nonzero"/><path fill="#09520e" d="M 227.269531 136.597656 L 314.375 136.597656 C 314.195312 135.273438 313.992188 133.949219 313.777344 132.636719 L 227.269531 132.636719 L 227.269531 136.597656 " fill-opacity="1" fill-rule="nonzero"/><path fill="#09520e" d="M 227.269531 108.296875 L 307.742188 108.296875 C 307.296875 106.972656 306.828125 105.648438 306.351562 104.335938 L 227.269531 104.335938 L 227.269531 108.296875 " fill-opacity="1" fill-rule="nonzero"/><path fill="#09520e" d="M 219.007812 47.734375 L 46.214844 47.734375 C 44.933594 49.03125 43.675781 50.355469 42.441406 51.695312 L 209.027344 51.695312 L 219.011719 47.734375 " fill-opacity="1" fill-rule="nonzero"/><path fill="#09520e" d="M 227.269531 51.695312 L 274.296875 51.695312 C 273.0625 50.355469 271.8125 49.03125 270.523438 47.734375 L 227.269531 47.734375 L 227.269531 51.695312 " fill-opacity="1" fill-rule="nonzero"/><path fill="#09520e" d="M 195.246094 57.167969 L 37.640625 57.167969 C 36.550781 58.472656 35.476562 59.792969 34.425781 61.128906 L 185.265625 61.128906 L 195.246094 57.167969 " fill-opacity="1" fill-rule="nonzero"/><path fill="#09520e" d="M 248.15625 28.867188 L 68.582031 28.867188 C 66.734375 30.148438 64.921875 31.472656 63.140625 32.828125 L 253.601562 32.828125 C 251.820312 31.472656 250.003906 30.148438 248.160156 28.867188 " fill-opacity="1" fill-rule="nonzero"/><path fill="#09520e" d="M 260.394531 38.300781 L 56.347656 38.300781 C 54.832031 39.59375 53.339844 40.914062 51.875 42.265625 L 264.859375 42.265625 C 263.398438 40.914062 261.902344 39.59375 260.390625 38.300781 " fill-opacity="1" fill-rule="nonzero"/><path fill="#09520e" d="M 232.800781 19.433594 L 83.9375 19.433594 C 81.589844 20.699219 79.273438 22.019531 77 23.398438 L 239.742188 23.398438 C 237.460938 22.019531 235.148438 20.699219 232.800781 19.433594 " fill-opacity="1" fill-rule="nonzero"/><g clip-path="url(#id3)"><path fill="#09520e" d="M 158.375 0.742188 C 146.539062 0.742188 135.007812 2.050781 123.921875 4.53125 L 192.816406 4.53125 C 181.730469 2.050781 170.199219 0.742188 158.375 0.742188 " fill-opacity="1" fill-rule="nonzero"/></g><path fill="#09520e" d="M 211.652344 10 L 105.085938 10 C 101.722656 11.210938 98.40625 12.53125 95.15625 13.960938 L 221.59375 13.960938 C 218.332031 12.53125 215.019531 11.210938 211.652344 10 " fill-opacity="1" fill-rule="nonzero"/><path fill="#09520e" d="M 128.058594 164.898438 L 204.382812 164.898438 L 204.382812 160.9375 L 128.058594 160.9375 Z M 128.058594 164.898438 " fill-opacity="1" fill-rule="nonzero"/><path fill="#09520e" d="M 128.058594 189.144531 L 128.058594 193.105469 L 159.105469 193.105469 C 159.78125 191.730469 160.601562 190.40625 161.53125 189.144531 L 128.058594 189.144531 " fill-opacity="1" fill-rule="nonzero"/><path fill="#09520e" d="M 128.058594 198.574219 L 128.058594 202.535156 L 156.695312 202.535156 C 156.738281 201.195312 156.914062 199.871094 157.183594 198.574219 L 128.058594 198.574219 " fill-opacity="1" fill-rule="nonzero"/><path fill="#09520e" d="M 128.058594 208.011719 L 128.058594 211.976562 L 158.417969 211.976562 C 157.886719 210.6875 157.46875 209.371094 157.183594 208.011719 L 128.058594 208.011719 " fill-opacity="1" fill-rule="nonzero"/><g clip-path="url(#id4)"><path fill="#09520e" d="M 227.269531 146.027344 L 315.394531 146.027344 C 315.289062 144.707031 315.167969 143.390625 315.039062 142.066406 L 227.269531 142.066406 L 227.269531 146.027344 " fill-opacity="1" fill-rule="nonzero"/></g><path fill="#09520e" d="M 128.058594 179.710938 L 128.058594 183.675781 L 166.835938 183.675781 C 168.6875 182.175781 170.757812 180.84375 173 179.710938 L 128.058594 179.710938 " fill-opacity="1" fill-rule="nonzero"/><path fill="#09520e" d="M 185.714844 230.835938 C 181.085938 230.183594 176.773438 228.816406 172.964844 226.875 L 128.058594 226.875 L 128.058594 229.015625 L 128.027344 229.015625 C 128.042969 229.355469 128.058594 229.703125 128.058594 230.054688 C 128.058594 230.316406 128.050781 230.574219 128.042969 230.835938 L 185.714844 230.835938 " fill-opacity="1" fill-rule="nonzero"/><g clip-path="url(#id5)"><path fill="#09520e" d="M 227.269531 155.46875 L 315.847656 155.46875 C 315.820312 154.144531 315.777344 152.820312 315.722656 151.507812 L 227.269531 151.507812 L 227.269531 155.46875 " fill-opacity="1" fill-rule="nonzero"/></g><path fill="#09520e" d="M 128.058594 221.40625 L 165.070312 221.40625 C 163.746094 220.167969 162.554688 218.847656 161.523438 217.445312 L 128.058594 217.445312 L 128.058594 221.40625 " fill-opacity="1" fill-rule="nonzero"/><path fill="#09520e" d="M 128.058594 174.242188 L 204.382812 174.242188 L 204.382812 170.273438 L 128.058594 170.273438 Z M 128.058594 174.242188 " fill-opacity="1" fill-rule="nonzero"/><path fill="#09520e" d="M 204.382812 117.734375 L 204.382812 113.765625 L 166.523438 113.765625 L 157.078125 117.734375 L 204.382812 117.734375 " fill-opacity="1" fill-rule="nonzero"/><path fill="#09520e" d="M 128.058594 136.597656 L 204.382812 136.597656 L 204.382812 132.636719 L 128.058594 132.636719 Z M 128.058594 136.597656 " fill-opacity="1" fill-rule="nonzero"/><path fill="#09520e" d="M 204.382812 127.167969 L 204.382812 123.203125 L 144.050781 123.203125 L 134.617188 127.167969 L 204.382812 127.167969 " fill-opacity="1" fill-rule="nonzero"/><path fill="#09520e" d="M 128.058594 146.027344 L 204.382812 146.027344 L 204.382812 142.066406 L 128.058594 142.066406 Z M 128.058594 146.027344 " fill-opacity="1" fill-rule="nonzero"/><path fill="#09520e" d="M 204.382812 108.296875 L 204.382812 104.335938 L 188.984375 104.335938 L 179.546875 108.296875 L 204.382812 108.296875 " fill-opacity="1" fill-rule="nonzero"/><path fill="#09520e" d="M 128.058594 155.46875 L 204.382812 155.46875 L 204.382812 151.507812 L 128.058594 151.507812 Z M 128.058594 155.46875 " fill-opacity="1" fill-rule="nonzero"/><path fill="#09520e" d="M 204.382812 98.867188 L 204.382812 97.871094 L 202.019531 98.867188 L 204.382812 98.867188 " fill-opacity="1" fill-rule="nonzero"/><path fill="#09520e" d="M 171.476562 66.601562 L 30.328125 66.601562 C 29.390625 67.910156 28.472656 69.230469 27.574219 70.5625 L 161.492188 70.5625 L 171.472656 66.601562 " fill-opacity="1" fill-rule="nonzero"/><path fill="#09520e" d="M 105.164062 123.203125 L 4.816406 123.203125 C 4.519531 124.519531 4.234375 125.835938 3.96875 127.167969 L 105.160156 127.167969 L 105.160156 123.203125 " fill-opacity="1" fill-rule="nonzero"/><path fill="#09520e" d="M 55.609375 278.007812 L 261.132812 278.007812 C 262.628906 276.710938 264.109375 275.394531 265.550781 274.046875 L 51.183594 274.046875 C 52.636719 275.394531 54.109375 276.710938 55.609375 278.007812 " fill-opacity="1" fill-rule="nonzero"/><g clip-path="url(#id6)"><path fill="#09520e" d="M 146.269531 315.742188 L 170.46875 315.742188 C 179.035156 315.089844 187.417969 313.746094 195.546875 311.777344 L 121.191406 311.777344 C 129.320312 313.746094 137.703125 315.089844 146.269531 315.742188 " fill-opacity="1" fill-rule="nonzero"/></g><path fill="#09520e" d="M 45.589844 268.578125 L 271.148438 268.578125 C 272.417969 267.273438 273.660156 265.957031 274.878906 264.617188 L 41.859375 264.617188 C 43.078125 265.957031 44.324219 267.273438 45.585938 268.578125 " fill-opacity="1" fill-rule="nonzero"/><path fill="#09520e" d="M 117.878906 249.707031 L 286.871094 249.707031 C 287.792969 248.402344 288.699219 247.078125 289.585938 245.746094 L 121.992188 245.746094 C 120.773438 247.164062 119.390625 248.488281 117.878906 249.707031 " fill-opacity="1" fill-rule="nonzero"/><path fill="#09520e" d="M 103.355469 306.308594 L 213.382812 306.308594 C 216.644531 305.089844 219.851562 303.765625 223.011719 302.347656 L 93.730469 302.347656 C 96.886719 303.765625 100.09375 305.089844 103.355469 306.308594 " fill-opacity="1" fill-rule="nonzero"/><path fill="#09520e" d="M 125.625 240.277344 L 293.0625 240.277344 C 293.855469 238.960938 294.628906 237.648438 295.394531 236.3125 L 127.171875 236.3125 C 126.78125 237.671875 126.261719 238.996094 125.625 240.277344 " fill-opacity="1" fill-rule="nonzero"/><path fill="#09520e" d="M 82.769531 296.878906 L 233.964844 296.878906 C 236.277344 295.609375 238.539062 294.285156 240.773438 292.910156 L 75.960938 292.910156 C 78.191406 294.285156 80.460938 295.609375 82.765625 296.878906 " fill-opacity="1" fill-rule="nonzero"/><path fill="#09520e" d="M 67.675781 287.441406 L 249.0625 287.441406 C 250.878906 286.160156 252.671875 284.835938 254.425781 283.476562 L 62.308594 283.476562 C 64.070312 284.835938 65.859375 286.160156 67.675781 287.441406 " fill-opacity="1" fill-rule="nonzero"/><path fill="#09520e" d="M 92.765625 258.03125 C 87.191406 258.03125 81.917969 257.003906 77.234375 255.175781 L 33.9375 255.175781 C 34.972656 256.515625 36.03125 257.839844 37.113281 259.136719 L 279.628906 259.136719 C 280.707031 257.839844 281.769531 256.515625 282.804688 255.175781 L 108.296875 255.175781 C 103.609375 257.003906 98.339844 258.03125 92.765625 258.03125 " fill-opacity="1" fill-rule="nonzero"/><path fill="#09520e" d="M 198.246094 230.835938 L 298.351562 230.835938 C 299.027344 229.53125 299.6875 228.207031 300.332031 226.875 L 210.992188 226.875 C 207.175781 228.816406 202.863281 230.183594 198.246094 230.835938 " fill-opacity="1" fill-rule="nonzero"/><path fill="#09520e" d="M 227.269531 193.105469 L 312.0625 193.105469 C 312.359375 191.789062 312.636719 190.464844 312.898438 189.144531 L 227.269531 189.144531 L 227.269531 193.105469 " fill-opacity="1" fill-rule="nonzero"/><g clip-path="url(#id7)"><path fill="#09520e" d="M 227.269531 174.242188 L 315.097656 174.242188 C 315.230469 172.917969 315.34375 171.605469 315.4375 170.273438 L 227.269531 170.273438 L 227.269531 174.242188 " fill-opacity="1" fill-rule="nonzero"/></g><g clip-path="url(#id8)"><path fill="#09520e" d="M 227.269531 160.9375 L 227.269531 164.898438 L 315.75 164.898438 C 315.792969 163.585938 315.835938 162.261719 315.855469 160.9375 L 227.269531 160.9375 " fill-opacity="1" fill-rule="nonzero"/></g><path fill="#09520e" d="M 227.269531 183.675781 L 313.871094 183.675781 C 314.082031 182.359375 314.28125 181.035156 314.453125 179.710938 L 227.269531 179.710938 L 227.269531 183.675781 " fill-opacity="1" fill-rule="nonzero"/><path fill="#09520e" d="M 227.269531 202.265625 L 227.246094 202.265625 C 227.246094 202.363281 227.246094 202.449219 227.253906 202.535156 L 309.644531 202.535156 C 310.027344 201.230469 310.386719 199.90625 310.734375 198.574219 L 227.269531 198.574219 L 227.269531 202.265625 " fill-opacity="1" fill-rule="nonzero"/><path fill="#09520e" d="M 218.886719 221.40625 L 302.835938 221.40625 C 303.410156 220.089844 303.960938 218.777344 304.5 217.445312 L 222.4375 217.445312 C 221.390625 218.847656 220.210938 220.167969 218.886719 221.40625 " fill-opacity="1" fill-rule="nonzero"/><path fill="#09520e" d="M 225.539062 211.976562 L 306.585938 211.976562 C 307.054688 210.660156 307.507812 209.335938 307.949219 208.011719 L 226.773438 208.011719 C 226.480469 209.371094 226.070312 210.6875 225.539062 211.976562 " fill-opacity="1" fill-rule="nonzero"/><path fill="#09520e" d="M 105.164062 170.273438 L 1.300781 170.273438 C 1.398438 171.605469 1.511719 172.917969 1.640625 174.242188 L 105.164062 174.242188 L 105.164062 170.273438 " fill-opacity="1" fill-rule="nonzero"/><path fill="#09520e" d="M 105.164062 132.636719 L 2.960938 132.636719 C 2.75 133.949219 2.550781 135.273438 2.367188 136.597656 L 105.167969 136.597656 L 105.167969 132.636719 " fill-opacity="1" fill-rule="nonzero"/><g clip-path="url(#id9)"><path fill="#09520e" d="M 105.164062 160.9375 L 0.882812 160.9375 C 0.90625 162.261719 0.941406 163.585938 0.992188 164.898438 L 105.160156 164.898438 L 105.160156 160.9375 " fill-opacity="1" fill-rule="nonzero"/></g><path fill="#09520e" d="M 105.164062 142.066406 L 1.703125 142.066406 C 1.570312 143.390625 1.449219 144.707031 1.347656 146.027344 L 105.167969 146.027344 L 105.167969 142.066406 " fill-opacity="1" fill-rule="nonzero"/><g clip-path="url(#id10)"><path fill="#09520e" d="M 105.164062 151.507812 L 1.015625 151.507812 C 0.960938 152.820312 0.917969 154.144531 0.894531 155.46875 L 105.164062 155.46875 L 105.164062 151.507812 " fill-opacity="1" fill-rule="nonzero"/></g><path fill="#09520e" d="M 105.164062 113.765625 L 7.285156 113.765625 C 6.894531 115.082031 6.523438 116.402344 6.171875 117.734375 L 105.164062 117.734375 L 105.164062 113.765625 " fill-opacity="1" fill-rule="nonzero"/><path fill="#09520e" d="M 105.164062 104.335938 L 10.390625 104.335938 C 9.90625 105.648438 9.445312 106.972656 9 108.296875 L 105.167969 108.296875 L 105.167969 104.335938 " fill-opacity="1" fill-rule="nonzero"/><path fill="#09520e" d="M 123.9375 85.46875 L 18.71875 85.46875 C 18.03125 86.78125 17.367188 88.101562 16.714844 89.433594 L 113.953125 89.433594 L 123.9375 85.46875 " fill-opacity="1" fill-rule="nonzero"/><path fill="#09520e" d="M 105.164062 94.902344 L 14.179688 94.902344 C 13.605469 96.21875 13.039062 97.535156 12.5 98.867188 L 105.160156 98.867188 L 105.160156 94.902344 " fill-opacity="1" fill-rule="nonzero"/><path fill="#09520e" d="M 147.710938 76.035156 L 24.066406 76.035156 C 23.261719 77.34375 22.476562 78.664062 21.710938 79.996094 L 137.730469 79.996094 L 147.710938 76.035156 " fill-opacity="1" fill-rule="nonzero"/><path fill="#09520e" d="M 71.023438 208.011719 L 8.792969 208.011719 C 9.230469 209.335938 9.683594 210.660156 10.160156 211.976562 L 65.828125 211.976562 C 67.386719 210.519531 69.125 209.1875 71.023438 208.011719 " fill-opacity="1" fill-rule="nonzero"/><path fill="#09520e" d="M 61.25 217.445312 L 12.246094 217.445312 C 12.78125 218.777344 13.332031 220.089844 13.902344 221.40625 L 59.191406 221.40625 C 59.75 220.039062 60.441406 218.714844 61.25 217.445312 " fill-opacity="1" fill-rule="nonzero"/><path fill="#09520e" d="M 57.46875 230.054688 C 57.46875 228.972656 57.550781 227.917969 57.699219 226.875 L 16.40625 226.875 C 17.046875 228.207031 17.707031 229.53125 18.386719 230.835938 L 57.484375 230.835938 C 57.476562 230.574219 57.46875 230.316406 57.46875 230.054688 " fill-opacity="1" fill-rule="nonzero"/><path fill="#09520e" d="M 63.542969 245.746094 L 27.152344 245.746094 C 28.042969 247.078125 28.945312 248.402344 29.871094 249.707031 L 67.652344 249.707031 C 66.136719 248.488281 64.757812 247.164062 63.542969 245.746094 " fill-opacity="1" fill-rule="nonzero"/><path fill="#09520e" d="M 58.359375 236.3125 L 21.351562 236.3125 C 22.105469 237.648438 22.882812 238.960938 23.675781 240.277344 L 59.902344 240.277344 C 59.269531 238.996094 58.75 237.671875 58.359375 236.3125 " fill-opacity="1" fill-rule="nonzero"/><path fill="#09520e" d="M 105.164062 179.710938 L 2.285156 179.710938 C 2.460938 181.035156 2.65625 182.359375 2.867188 183.675781 L 105.164062 183.675781 L 105.164062 179.710938 " fill-opacity="1" fill-rule="nonzero"/><path fill="#09520e" d="M 92.765625 202.074219 C 94.964844 202.074219 97.113281 202.230469 99.207031 202.535156 L 105.164062 202.535156 L 105.164062 198.574219 L 6.007812 198.574219 C 6.351562 199.90625 6.714844 201.230469 7.097656 202.535156 L 86.320312 202.535156 C 88.40625 202.230469 90.5625 202.074219 92.765625 202.074219 " fill-opacity="1" fill-rule="nonzero"/><path fill="#09520e" d="M 105.164062 189.144531 L 3.839844 189.144531 C 4.105469 190.464844 4.382812 191.789062 4.675781 193.105469 L 105.164062 193.105469 L 105.164062 189.144531 " fill-opacity="1" fill-rule="nonzero"/></g></g></g><g clip-path="url(#id12)"><path fill="#008037" d="M 277.324219 22.441406 C 273.183594 22.441406 269.828125 25.800781 269.828125 29.941406 L 269.828125 56.457031 C 265.417969 53.902344 260.296875 52.441406 254.835938 52.441406 C 238.273438 52.441406 224.851562 65.875 224.851562 82.441406 C 224.851562 99.011719 238.273438 112.441406 254.835938 112.441406 C 271.398438 112.441406 284.820312 99.011719 284.820312 82.441406 L 284.820312 37.441406 L 314.804688 37.441406 C 318.945312 37.441406 322.300781 34.085938 322.300781 29.941406 C 322.300781 25.800781 318.945312 22.441406 314.804688 22.441406 Z M 269.828125 82.441406 C 269.828125 74.15625 263.117188 67.441406 254.835938 67.441406 C 246.554688 67.441406 239.84375 74.15625 239.84375 82.441406 C 239.84375 90.726562 246.554688 97.441406 254.835938 97.441406 C 263.117188 97.441406 269.828125 90.726562 269.828125 82.441406 Z M 269.828125 82.441406 " fill-opacity="1" fill-rule="evenodd"/></g><g clip-path="url(#id13)"><path fill="#008037" d="M 187.371094 52.441406 C 108.707031 52.441406 44.941406 116.242188 44.941406 194.941406 C 44.941406 237.382812 63.484375 275.492188 92.910156 301.597656 C 97.789062 291.066406 108.15625 282.542969 120.410156 276.414062 C 137.933594 267.648438 161.617188 262.441406 187.371094 262.441406 C 213.121094 262.441406 236.804688 267.648438 254.328125 276.414062 C 266.582031 282.542969 276.949219 291.066406 281.828125 301.597656 C 311.253906 275.492188 329.796875 237.382812 329.796875 194.941406 C 329.796875 168.972656 322.863281 144.648438 310.75 123.699219 C 308.675781 120.113281 309.902344 115.523438 313.484375 113.449219 C 317.066406 111.375 321.652344 112.601562 323.726562 116.1875 C 337.125 139.359375 344.792969 166.265625 344.792969 194.941406 C 344.792969 281.925781 274.3125 352.441406 187.371094 352.441406 C 100.429688 352.441406 29.949219 281.925781 29.949219 194.941406 C 29.949219 107.957031 100.429688 37.441406 187.371094 37.441406 C 191.507812 37.441406 194.867188 40.800781 194.867188 44.941406 C 194.867188 49.085938 191.507812 52.441406 187.371094 52.441406 Z M 187.371094 337.441406 C 156.820312 337.441406 128.519531 327.820312 105.324219 311.4375 C 107 304.269531 113.832031 296.472656 127.113281 289.832031 C 142.148438 282.308594 163.441406 277.441406 187.371094 277.441406 C 211.300781 277.441406 232.589844 282.308594 247.625 289.832031 C 260.90625 296.472656 267.738281 304.269531 269.414062 311.4375 C 246.222656 327.820312 217.917969 337.441406 187.371094 337.441406 Z M 187.371094 337.441406 " fill-opacity="1" fill-rule="evenodd"/></g><path fill="#008037" d="M 187.371094 127.441406 C 158.390625 127.441406 134.894531 150.945312 134.894531 179.941406 C 134.894531 208.9375 158.390625 232.441406 187.371094 232.441406 C 216.351562 232.441406 239.84375 208.9375 239.84375 179.941406 C 239.84375 150.945312 216.351562 127.441406 187.371094 127.441406 Z M 149.886719 179.941406 C 149.886719 159.230469 166.667969 142.441406 187.371094 142.441406 C 208.070312 142.441406 224.851562 159.230469 224.851562 179.941406 C 224.851562 200.652344 208.070312 217.441406 187.371094 217.441406 C 166.667969 217.441406 149.886719 200.652344 149.886719 179.941406 Z M 149.886719 179.941406 " fill-opacity="1" fill-rule="evenodd"/><g clip-path="url(#id14)"><path fill="#008037" d="M 245.03125 246.328125 C 243.640625 248.019531 243.757812 250.488281 245.308594 252.035156 L 249.738281 256.453125 C 251.292969 258 253.761719 258.121094 255.457031 256.730469 L 282.664062 234.390625 L 267.417969 219.179688 L 245.03125 246.328125 " fill-opacity="1" fill-rule="nonzero"/></g><path fill="#008037" d="M 272.261719 204.734375 C 269.25 207.742188 267.558594 211.566406 267.191406 215.492188 L 267.234375 215.4375 L 286.410156 234.574219 L 286.355469 234.617188 C 290.285156 234.25 294.121094 232.5625 297.136719 229.554688 C 304.003906 222.699219 304.003906 211.585938 297.136719 204.730469 C 290.269531 197.878906 279.132812 197.878906 272.261719 204.734375 " fill-opacity="1" fill-rule="nonzero"/><g clip-path="url(#id15)"><path fill="#008037" d="M 321.289062 200.90625 L 317.53125 197.15625 C 316.796875 196.421875 315.699219 196.203125 314.734375 196.601562 C 313.773438 197 313.152344 197.929688 313.152344 198.96875 L 313.152344 211.414062 C 312.542969 211.175781 311.882812 211.046875 311.191406 211.046875 C 308.199219 211.046875 305.773438 213.46875 305.773438 216.457031 C 305.773438 219.441406 308.199219 221.863281 311.191406 221.863281 C 314.066406 221.863281 316.417969 219.628906 316.597656 216.804688 L 316.636719 216.804688 L 316.636719 201.1875 L 318.824219 203.363281 C 319.503906 204.042969 320.609375 204.042969 321.289062 203.363281 C 321.96875 202.683594 321.96875 201.585938 321.289062 200.90625 " fill-opacity="1" fill-rule="nonzero"/></g></svg>