<svg xmlns="http://www.w3.org/2000/svg" xmlns:xlink="http://www.w3.org/1999/xlink" width="500" zoomAndPan="magnify" viewBox="0 0 375 374.999991" height="500" preserveAspectRatio="xMidYMid meet" version="1.0"><defs><clipPath id="id1"><path d="M 8.777344 8.777344 L 366.527344 8.777344 L 366.527344 366.527344 L 8.777344 366.527344 Z M 8.777344 8.777344 " clip-rule="nonzero"/></clipPath><clipPath id="id2"><path d="M 8.777344 176 L 20 176 L 20 187 L 8.777344 187 Z M 8.777344 176 " clip-rule="nonzero"/></clipPath><clipPath id="id3"><path d="M 181 355 L 189 355 L 189 365.695312 L 181 365.695312 Z M 181 355 " clip-rule="nonzero"/></clipPath><clipPath id="id4"><path d="M 200 355 L 219 355 L 219 365.695312 L 200 365.695312 Z M 200 355 " clip-rule="nonzero"/></clipPath><clipPath id="id5"><path d="M 186 9.445312 L 195 9.445312 L 195 20 L 186 20 Z M 186 9.445312 " clip-rule="nonzero"/></clipPath></defs><rect x="-37.5" width="450" fill="#ffffff" y="-37.499999" height="449.999989" fill-opacity="1"/><rect x="-37.5" width="450" fill="#000000" y="-37.499999" height="449.999989" fill-opacity="1"/><rect x="-37.5" width="450" fill="#ffffff" y="-37.499999" height="449.999989" fill-opacity="1"/><rect x="-37.5" width="450" fill="#000000" y="-37.499999" height="449.999989" fill-opacity="1"/><g clip-path="url(#id1)"><path fill="#008037" d="M 187.660156 8.761719 C 286.453125 8.761719 366.539062 88.851562 366.539062 187.644531 C 366.539062 286.4375 286.453125 366.527344 187.660156 366.527344 C 88.867188 366.527344 8.777344 286.4375 8.777344 187.644531 C 8.777344 88.851562 88.867188 8.761719 187.660156 8.761719 " fill-opacity="1" fill-rule="evenodd"/></g><path fill="#000000" d="M 190.582031 103.46875 C 202.15625 103.46875 212.632812 108.15625 220.21875 115.746094 C 227.804688 123.328125 232.496094 133.808594 232.496094 145.382812 C 232.496094 156.957031 227.804688 167.4375 220.21875 175.019531 C 212.632812 182.605469 202.15625 187.296875 190.582031 187.296875 C 179.003906 187.296875 168.527344 182.605469 160.941406 175.019531 C 153.359375 167.4375 148.664062 156.957031 148.664062 145.382812 C 148.664062 133.808594 153.359375 123.328125 160.941406 115.746094 C 168.527344 108.15625 179.003906 103.46875 190.582031 103.46875 Z M 198.945312 126.824219 L 198.078125 128.492188 L 196.742188 131.066406 L 193.925781 130.355469 C 192.898438 130.101562 191.886719 129.949219 190.894531 129.90625 C 189.878906 129.863281 188.859375 129.921875 187.847656 130.085938 L 185.074219 130.535156 L 183.925781 127.960938 L 183.203125 126.339844 L 181.539062 127.078125 L 182.21875 128.605469 L 183.402344 131.253906 L 181.097656 133.015625 C 180.277344 133.648438 179.535156 134.34375 178.878906 135.101562 C 178.21875 135.867188 177.636719 136.699219 177.144531 137.585938 L 175.746094 140.09375 L 172.992188 139.351562 L 171.429688 138.933594 L 170.960938 140.679688 L 172.519531 141.097656 L 175.273438 141.839844 L 175.230469 144.691406 C 175.21875 145.703125 175.316406 146.742188 175.519531 147.789062 C 175.722656 148.816406 176.027344 149.8125 176.433594 150.765625 L 177.5625 153.429688 L 175.242188 155.148438 L 173.886719 156.148438 L 174.96875 157.613281 L 176.402344 156.554688 L 178.671875 154.871094 L 180.882812 156.640625 C 181.660156 157.265625 182.515625 157.8125 183.433594 158.285156 C 184.371094 158.761719 185.316406 159.132812 186.265625 159.390625 L 189.066406 160.164062 L 188.964844 163.039062 L 188.898438 164.941406 L 190.722656 165.003906 L 190.792969 162.988281 L 190.894531 160.179688 L 193.636719 159.542969 C 194.601562 159.320312 195.539062 159.003906 196.441406 158.59375 C 197.328125 158.195312 198.183594 157.699219 199.011719 157.105469 L 201.339844 155.4375 L 203.535156 157.308594 L 205.125 158.664062 L 206.304688 157.28125 L 204.667969 155.882812 L 202.515625 154.042969 L 203.75 151.503906 C 204.183594 150.617188 204.523438 149.6875 204.777344 148.734375 C 205.027344 147.789062 205.183594 146.824219 205.246094 145.859375 L 205.421875 143.015625 L 208.21875 142.46875 L 210.3125 142.0625 L 209.964844 140.28125 L 207.90625 140.679688 L 205.097656 141.230469 L 203.886719 138.613281 C 203.464844 137.703125 202.960938 136.847656 202.378906 136.054688 C 201.78125 135.234375 201.121094 134.492188 200.40625 133.835938 L 198.324219 131.925781 L 199.617188 129.441406 L 200.546875 127.660156 Z M 192.804688 122.707031 L 193.359375 121.632812 L 193.375 121.632812 C 193.707031 120.996094 194.148438 120.449219 194.664062 120.019531 C 195.199219 119.574219 195.816406 119.230469 196.472656 119.019531 C 197.148438 118.8125 197.847656 118.734375 198.53125 118.792969 L 198.53125 118.796875 C 199.195312 118.851562 199.863281 119.050781 200.496094 119.375 L 200.523438 119.386719 L 205.71875 122.097656 L 205.71875 122.089844 C 207.035156 122.773438 207.941406 123.910156 208.351562 125.203125 L 208.335938 125.207031 C 208.742188 126.492188 208.664062 127.933594 208 129.222656 L 208 129.25 L 207.347656 130.511719 C 207.679688 130.902344 207.996094 131.308594 208.296875 131.71875 C 208.59375 132.121094 208.875 132.539062 209.144531 132.964844 L 210.566406 132.6875 C 212 132.40625 213.417969 132.738281 214.539062 133.496094 C 215.667969 134.253906 216.503906 135.449219 216.785156 136.898438 L 217.902344 142.667969 L 217.902344 142.683594 C 218.175781 144.109375 217.851562 145.515625 217.09375 146.636719 C 216.335938 147.761719 215.148438 148.597656 213.710938 148.882812 L 213.695312 148.882812 L 212.199219 149.171875 C 212.105469 149.652344 211.996094 150.128906 211.871094 150.605469 C 211.742188 151.082031 211.601562 151.554688 211.445312 152.027344 L 212.617188 153.027344 C 213.140625 153.476562 213.566406 154.027344 213.882812 154.648438 C 214.207031 155.277344 214.40625 155.945312 214.464844 156.613281 L 214.464844 156.726562 C 214.480469 156.996094 214.476562 157.277344 214.445312 157.570312 C 214.410156 157.898438 214.359375 158.183594 214.296875 158.429688 C 214.195312 158.796875 214.050781 159.167969 213.859375 159.53125 C 213.683594 159.863281 213.464844 160.1875 213.195312 160.5 L 213.199219 160.503906 L 209.382812 164.972656 C 208.421875 166.089844 207.109375 166.714844 205.761719 166.820312 L 205.75 166.820312 C 204.40625 166.925781 203.015625 166.515625 201.90625 165.554688 L 200.808594 164.621094 C 200.367188 164.855469 199.917969 165.078125 199.460938 165.285156 C 198.992188 165.496094 198.511719 165.695312 198.023438 165.875 L 197.972656 167.289062 L 197.972656 167.292969 C 197.917969 168.753906 197.28125 170.058594 196.292969 170.984375 C 195.308594 171.902344 193.96875 172.449219 192.507812 172.398438 L 192.503906 172.398438 L 186.746094 172.199219 L 186.746094 172.210938 L 186.628906 172.195312 C 185.152344 172.144531 183.84375 171.503906 182.921875 170.511719 C 182.023438 169.550781 181.484375 168.253906 181.503906 166.839844 L 181.492188 166.839844 L 181.507812 166.726562 L 181.546875 165.5 C 181.050781 165.292969 180.570312 165.070312 180.101562 164.832031 C 179.609375 164.578125 179.121094 164.308594 178.644531 164.011719 L 177.707031 164.710938 L 177.707031 164.707031 L 177.703125 164.710938 C 176.523438 165.585938 175.109375 165.902344 173.78125 165.703125 C 172.441406 165.503906 171.171875 164.792969 170.292969 163.613281 L 170.289062 163.609375 L 166.789062 158.878906 L 166.777344 158.867188 C 166.359375 158.300781 166.066406 157.667969 165.902344 157.007812 L 165.902344 156.996094 C 165.734375 156.320312 165.695312 155.625 165.796875 154.9375 L 165.8125 154.921875 C 165.921875 154.230469 166.160156 153.578125 166.503906 153 C 166.863281 152.40625 167.320312 151.886719 167.867188 151.476562 L 167.894531 151.460938 L 168.707031 150.859375 C 168.554688 150.308594 168.417969 149.753906 168.3125 149.195312 C 168.199219 148.640625 168.113281 148.078125 168.050781 147.503906 L 167.097656 147.25 C 165.6875 146.871094 164.558594 145.953125 163.878906 144.777344 C 163.195312 143.597656 162.960938 142.164062 163.339844 140.753906 L 164.859375 135.070312 C 165.238281 133.664062 166.164062 132.539062 167.347656 131.851562 C 168.527344 131.171875 169.957031 130.941406 171.363281 131.316406 L 172.320312 131.570312 C 172.644531 131.136719 172.984375 130.710938 173.335938 130.304688 C 173.683594 129.898438 174.050781 129.507812 174.425781 129.132812 L 174.019531 128.214844 L 174.003906 128.183594 C 173.726562 127.554688 173.582031 126.871094 173.5625 126.175781 C 173.546875 125.488281 173.65625 124.800781 173.90625 124.160156 L 173.902344 124.160156 C 174.152344 123.507812 174.53125 122.917969 175 122.414062 C 175.484375 121.910156 176.050781 121.496094 176.6875 121.210938 L 176.703125 121.210938 L 182.0625 118.828125 L 182.058594 118.820312 L 182.09375 118.804688 C 183.425781 118.214844 184.871094 118.21875 186.128906 118.703125 C 187.394531 119.1875 188.472656 120.15625 189.070312 121.496094 L 189.101562 121.558594 L 189.097656 121.558594 L 189.546875 122.574219 C 190.101562 122.554688 190.65625 122.558594 191.207031 122.582031 C 191.742188 122.605469 192.273438 122.644531 192.804688 122.707031 " fill-opacity="1" fill-rule="evenodd"/><path fill="#000000" d="M 203.964844 191.703125 L 197.207031 191.699219 C 197.464844 191.863281 197.707031 192.046875 197.925781 192.253906 C 198.910156 193.160156 199.523438 194.429688 199.523438 195.847656 L 199.183594 197.242188 L 193.855469 207.777344 L 193.859375 207.800781 L 193.871094 207.835938 L 196.683594 244.941406 L 196.675781 244.941406 C 196.714844 245.386719 196.664062 245.792969 196.554688 246.171875 L 196.554688 246.183594 C 196.453125 246.519531 196.3125 246.804688 196.160156 247.050781 L 196.011719 247.257812 L 190.371094 254.898438 L 190.371094 254.910156 C 190.039062 255.355469 189.609375 255.710938 189.097656 255.960938 L 189.101562 255.964844 C 188.617188 256.199219 188.097656 256.320312 187.550781 256.320312 L 187.542969 256.320312 C 187.003906 256.320312 186.445312 256.179688 185.945312 255.925781 L 185.933594 255.925781 C 185.4375 255.664062 184.992188 255.28125 184.65625 254.789062 L 184.65625 254.792969 L 179.414062 247.140625 L 179.402344 247.117188 C 179.179688 246.789062 179.023438 246.449219 178.929688 246.09375 L 178.941406 246.09375 C 178.847656 245.757812 178.804688 245.453125 178.804688 245.175781 L 178.816406 244.957031 L 181.4375 207.847656 L 181.453125 207.789062 C 181.460938 207.6875 181.472656 207.589844 181.492188 207.492188 L 176.160156 197.277344 L 175.796875 195.847656 C 175.796875 194.441406 176.402344 193.175781 177.390625 192.261719 C 177.621094 192.050781 177.871094 191.855469 178.136719 191.6875 L 171.472656 191.683594 L 171.472656 191.699219 C 157.988281 191.699219 145.550781 196.558594 136.5625 204.519531 C 127.890625 212.203125 122.441406 222.796875 122.441406 234.664062 L 122.441406 270.179688 C 144.53125 276.308594 170.644531 280.917969 196.117188 280.917969 C 216.320312 280.917969 236.046875 278.011719 252.875 270.625 L 252.875 234.664062 C 252.875 222.789062 247.449219 212.199219 238.800781 204.519531 C 229.84375 196.570312 217.441406 191.71875 203.964844 191.71875 L 203.964844 191.703125 " fill-opacity="1" fill-rule="nonzero"/><path stroke-linecap="round" transform="matrix(0.137713, 0, 0, -0.137655, 7.729582, 367.348658)" fill="none" stroke-linejoin="round" d="M 77.897147 1055.894239 C 73.018341 1080.639151 68.11117 1106.490773 64.764082 1132.370773 " stroke="#000000" stroke-width="3.75" stroke-opacity="1" stroke-miterlimit="4"/><path stroke-linecap="round" transform="matrix(0.137713, 0, 0, -0.137655, 7.729582, 367.348658)" fill="none" stroke-linejoin="round" d="M 687.606066 214.368592 C 640.37809 241.014776 594.596736 271.747276 551.481707 303.983766 " stroke="#000000" stroke-width="3.75" stroke-opacity="1" stroke-miterlimit="4"/><path stroke-linecap="round" transform="matrix(0.137713, 0, 0, -0.137655, 7.729582, 367.348658)" fill="none" stroke-linejoin="round" d="M 1669.38067 102.619208 C 1624.365176 89.877848 1578.640552 78.981006 1531.355846 70.382717 " stroke="#000000" stroke-width="3.75" stroke-opacity="1" stroke-miterlimit="4"/><path stroke-linecap="round" transform="matrix(0.137713, 0, 0, -0.137655, 7.729582, 367.348658)" fill="none" stroke-linejoin="round" d="M 2120.131284 349.387275 C 2079.654213 314.880608 2035.74496 282.61574 1989.991971 252.252144 " stroke="#000000" stroke-width="3.75" stroke-opacity="1" stroke-miterlimit="4"/><path stroke-linecap="round" transform="matrix(0.137713, 0, 0, -0.137655, 7.729582, 367.348658)" fill="none" stroke-linejoin="round" d="M 2534.88652 1038.640906 C 2513.13045 935.858714 2477.50382 837.616873 2431.013338 746.497708 " stroke="#000000" stroke-width="3.75" stroke-opacity="1" stroke-miterlimit="4"/><path stroke-linecap="round" transform="matrix(0.137713, 0, 0, -0.137655, 7.729582, 367.348658)" fill="none" stroke-linejoin="round" d="M 2318.857531 2046.25826 C 2406.988055 1927.386201 2474.497114 1791.260808 2516.477537 1645.402038 " stroke="#000000" stroke-width="3.75" stroke-opacity="1" stroke-miterlimit="4"/><path stroke-linecap="round" transform="matrix(0.137713, 0, 0, -0.137655, 7.729582, 367.348658)" fill="none" stroke-linejoin="round" d="M 1507.727675 2544.646894 C 1549.367717 2538.233649 1590.241899 2528.528649 1630.747335 2517.60343 " stroke="#000000" stroke-width="3.75" stroke-opacity="1" stroke-miterlimit="4"/><path stroke-linecap="round" transform="matrix(0.137713, 0, 0, -0.137655, 7.729582, 367.348658)" fill="none" stroke-linejoin="round" d="M 1307.895187 2334.655669 C 1874.886189 2334.655669 2338.40112 1872.277693 2338.40112 1304.13792 C 2338.40112 736.764331 1874.886189 274.386355 1307.895187 274.386355 C 740.847455 274.386355 277.729635 736.764331 277.729635 1304.13792 C 277.729635 1872.277693 740.847455 2334.655669 1307.895187 2334.655669 Z M 1307.895187 2334.655669 " stroke="#000000" stroke-width="3.75" stroke-opacity="1" stroke-miterlimit="4"/><path stroke-linecap="round" transform="matrix(0.137713, 0, 0, -0.137655, 7.729582, 367.348658)" fill="none" stroke-linejoin="round" d="M 1307.895187 2511.246938 C 1972.745959 2511.246938 2515.399662 1969.384446 2515.399662 1304.13792 C 2515.399662 639.600823 1972.745959 96.63162 1307.895187 96.63162 C 643.753543 96.63162 101.128206 639.600823 101.128206 1304.13792 C 101.128206 1969.384446 643.753543 2511.246938 1307.895187 2511.246938 Z M 1307.895187 2511.246938 " stroke="#000000" stroke-width="3.75" stroke-opacity="1" stroke-miterlimit="4"/><path stroke-linecap="round" transform="matrix(0.137713, 0, 0, -0.137655, 7.729582, 367.348658)" fill="none" stroke-linejoin="round" d="M 1307.895187 2458.749132 C 1943.132742 2458.749132 2461.761161 1940.496464 2461.761161 1304.13792 C 2461.761161 668.517183 1943.132742 150.236137 1307.895187 150.236137 C 672.998014 150.236137 153.972482 668.517183 153.972482 1304.13792 C 153.972482 1940.496464 672.998014 2458.749132 1307.895187 2458.749132 Z M 1307.895187 2458.749132 " stroke="#000000" stroke-width="3.75" stroke-opacity="1" stroke-miterlimit="4"/><path stroke-linecap="round" transform="matrix(0.137713, 0, 0, -0.137655, 7.729582, 367.348658)" fill="none" stroke-linejoin="round" d="M 1307.895187 2417.148168 C 1920.242065 2417.148168 2420.886979 1917.624446 2420.886979 1304.13792 C 2420.886979 691.360823 1920.242065 191.865478 1307.895187 191.865478 C 695.519943 191.865478 194.87503 691.360823 194.87503 1304.13792 C 194.87503 1917.624446 695.519943 2417.148168 1307.895187 2417.148168 Z M 1307.895187 2417.148168 " stroke="#000000" stroke-width="3.75" stroke-opacity="1" stroke-miterlimit="4"/><path stroke-linecap="round" transform="matrix(0.137713, 0, 0, -0.137655, 7.729582, 367.348658)" fill="none" stroke-linejoin="round" d="M 1307.895187 2376.256633 C 1897.7485 2376.256633 2379.246937 1895.121333 2379.246937 1304.13792 C 2379.246937 714.601743 1897.7485 232.728636 1307.895187 232.728636 C 718.35389 232.728636 236.486706 714.601743 236.486706 1304.13792 C 236.486706 1895.121333 718.35389 2376.256633 1307.895187 2376.256633 Z M 1307.895187 2376.256633 " stroke="#000000" stroke-width="3.75" stroke-opacity="1" stroke-miterlimit="4"/><path stroke-linecap="round" transform="matrix(0.137713, 0, 0, -0.137655, 7.729582, 367.348658)" fill="none" stroke-linejoin="round" d="M 2471.490408 1511.121162 L 2322.630096 1484.134452 " stroke="#000000" stroke-width="3.75" stroke-opacity="1" stroke-miterlimit="4"/><path stroke-linecap="round" transform="matrix(0.137713, 0, 0, -0.137655, 7.729582, 367.348658)" fill="none" stroke-linejoin="round" d="M 263.121583 1907.891069 L 416.491954 1819.382606 " stroke="#000000" stroke-width="3.75" stroke-opacity="1" stroke-miterlimit="4"/><path stroke-linecap="round" transform="matrix(0.137713, 0, 0, -0.137655, 7.729582, 367.348658)" fill="none" stroke-linejoin="round" d="M 1292.152528 2576.883385 L 1297.002969 2290.756152 " stroke="#000000" stroke-width="3.75" stroke-opacity="1" stroke-miterlimit="4"/><path stroke-linecap="round" transform="matrix(0.137713, 0, 0, -0.137655, 7.729582, 367.348658)" fill="none" stroke-linejoin="round" d="M 695.519943 2344.389046 L 784.756708 2192.145408 " stroke="#000000" stroke-width="3.75" stroke-opacity="1" stroke-miterlimit="4"/><path stroke-linecap="round" transform="matrix(0.137713, 0, 0, -0.137655, 7.729582, 367.348658)" fill="none" stroke-linejoin="round" d="M 534.604442 2229.262776 L 648.632349 2093.137383 " stroke="#000000" stroke-width="3.75" stroke-opacity="1" stroke-miterlimit="4"/><path stroke-linecap="round" transform="matrix(0.137713, 0, 0, -0.137655, 7.729582, 367.348658)" fill="none" stroke-linejoin="round" d="M 386.141242 2081.13383 L 520.733883 1967.880455 " stroke="#000000" stroke-width="3.75" stroke-opacity="1" stroke-miterlimit="4"/><path stroke-linecap="round" transform="matrix(0.137713, 0, 0, -0.137655, 7.729582, 367.348658)" fill="none" stroke-linejoin="round" d="M 175.388171 1720.402958 L 340.388254 1658.512301 " stroke="#000000" stroke-width="3.75" stroke-opacity="1" stroke-miterlimit="4"/><path stroke-linecap="round" transform="matrix(0.137713, 0, 0, -0.137655, 7.729582, 367.348658)" fill="none" stroke-linejoin="round" d="M 121.380923 1526.132697 L 295.004012 1493.867829 " stroke="#000000" stroke-width="3.75" stroke-opacity="1" stroke-miterlimit="4"/><path stroke-linecap="round" transform="matrix(0.137713, 0, 0, -0.137655, 7.729582, 367.348658)" fill="none" stroke-linejoin="round" d="M 102.603194 1344.660551 L 278.864241 1338.247305 " stroke="#000000" stroke-width="3.75" stroke-opacity="1" stroke-miterlimit="4"/><path stroke-linecap="round" transform="matrix(0.137713, 0, 0, -0.137655, 7.729582, 367.348658)" fill="none" stroke-linejoin="round" d="M 35.859993 1310.125507 L 320.87303 1310.125507 " stroke="#000000" stroke-width="3.75" stroke-opacity="1" stroke-miterlimit="4"/><path stroke-linecap="round" transform="matrix(0.137713, 0, 0, -0.137655, 7.729582, 367.348658)" fill="none" stroke-linejoin="round" d="M 69.614523 1096.360115 L 291.628559 1133.505861 " stroke="#000000" stroke-width="3.75" stroke-opacity="1" stroke-miterlimit="4"/><path stroke-linecap="round" transform="matrix(0.137713, 0, 0, -0.137655, 7.729582, 367.348658)" fill="none" stroke-linejoin="round" d="M 170.112253 903.622223 L 335.84983 961.767091 " stroke="#000000" stroke-width="3.75" stroke-opacity="1" stroke-miterlimit="4"/><path stroke-linecap="round" transform="matrix(0.137713, 0, 0, -0.137655, 7.729582, 367.348658)" fill="none" stroke-linejoin="round" d="M 259.377383 707.904726 L 413.853995 795.618628 " stroke="#000000" stroke-width="3.75" stroke-opacity="1" stroke-miterlimit="4"/><path stroke-linecap="round" transform="matrix(0.137713, 0, 0, -0.137655, 7.729582, 367.348658)" fill="none" stroke-linejoin="round" d="M 376.355265 539.145561 L 512.50799 650.866569 " stroke="#000000" stroke-width="3.75" stroke-opacity="1" stroke-miterlimit="4"/><path stroke-linecap="round" transform="matrix(0.137713, 0, 0, -0.137655, 7.729582, 367.348658)" fill="none" stroke-linejoin="round" d="M 533.129454 379.381967 L 647.100631 515.110079 " stroke="#000000" stroke-width="3.75" stroke-opacity="1" stroke-miterlimit="4"/><path stroke-linecap="round" transform="matrix(0.137713, 0, 0, -0.137655, 7.729582, 367.348658)" fill="none" stroke-linejoin="round" d="M 706.752543 258.637013 L 795.620561 410.852274 " stroke="#000000" stroke-width="3.75" stroke-opacity="1" stroke-miterlimit="4"/><path stroke-linecap="round" transform="matrix(0.137713, 0, 0, -0.137655, 7.729582, 367.348658)" fill="none" stroke-linejoin="round" d="M 899.890856 168.993461 L 959.145656 334.37574 " stroke="#000000" stroke-width="3.75" stroke-opacity="1" stroke-miterlimit="4"/><path stroke-linecap="round" transform="matrix(0.137713, 0, 0, -0.137655, 7.729582, 367.348658)" fill="none" stroke-linejoin="round" d="M 1108.743462 111.245874 L 1138.753792 287.893898 " stroke="#000000" stroke-width="3.75" stroke-opacity="1" stroke-miterlimit="4"/><path stroke-linecap="round" transform="matrix(0.137713, 0, 0, -0.137655, 7.729582, 367.348658)" fill="none" stroke-linejoin="round" d="M 1287.273722 97.738331 L 1290.223698 274.386355 " stroke="#000000" stroke-width="3.75" stroke-opacity="1" stroke-miterlimit="4"/><path stroke-linecap="round" transform="matrix(0.137713, 0, 0, -0.137655, 7.729582, 367.348658)" fill="none" stroke-linejoin="round" d="M 1322.503239 32.896446 L 1318.390293 317.122407 " stroke="#000000" stroke-width="3.75" stroke-opacity="1" stroke-miterlimit="4"/><path stroke-linecap="round" transform="matrix(0.137713, 0, 0, -0.137655, 7.729582, 367.348658)" fill="none" stroke-linejoin="round" d="M 1537.000511 69.247629 L 1495.729216 291.242407 " stroke="#000000" stroke-width="3.75" stroke-opacity="1" stroke-miterlimit="4"/><path stroke-linecap="round" transform="matrix(0.137713, 0, 0, -0.137655, 7.729582, 367.348658)" fill="none" stroke-linejoin="round" d="M 1728.975852 172.739251 L 1667.50857 339.256617 " stroke="#000000" stroke-width="3.75" stroke-opacity="1" stroke-miterlimit="4"/><path stroke-linecap="round" transform="matrix(0.137713, 0, 0, -0.137655, 7.729582, 367.348658)" fill="none" stroke-linejoin="round" d="M 1922.511277 264.596223 L 1831.771159 417.606046 " stroke="#000000" stroke-width="3.75" stroke-opacity="1" stroke-miterlimit="4"/><path stroke-linecap="round" transform="matrix(0.137713, 0, 0, -0.137655, 7.729582, 367.348658)" fill="none" stroke-linejoin="round" d="M 2097.268972 392.123327 L 1982.503571 524.50293 " stroke="#000000" stroke-width="3.75" stroke-opacity="1" stroke-miterlimit="4"/><path stroke-linecap="round" transform="matrix(0.137713, 0, 0, -0.137655, 7.729582, 367.348658)" fill="none" stroke-linejoin="round" d="M 2244.257184 543.998061 L 2106.998219 654.612358 " stroke="#000000" stroke-width="3.75" stroke-opacity="1" stroke-miterlimit="4"/><path stroke-linecap="round" transform="matrix(0.137713, 0, 0, -0.137655, 7.729582, 367.348658)" fill="none" stroke-linejoin="round" d="M 2359.760079 712.728849 L 2205.226736 800.499505 " stroke="#000000" stroke-width="3.75" stroke-opacity="1" stroke-miterlimit="4"/><path stroke-linecap="round" transform="matrix(0.137713, 0, 0, -0.137655, 7.729582, 367.348658)" fill="none" stroke-linejoin="round" d="M 2495.884438 896.868451 L 2283.230901 969.996477 " stroke="#000000" stroke-width="3.75" stroke-opacity="1" stroke-miterlimit="4"/><path stroke-linecap="round" transform="matrix(0.137713, 0, 0, -0.137655, 7.729582, 367.348658)" fill="none" stroke-linejoin="round" d="M 2499.259891 1108.392045 L 2324.133449 1137.25165 " stroke="#000000" stroke-width="3.75" stroke-opacity="1" stroke-miterlimit="4"/><path stroke-linecap="round" transform="matrix(0.137713, 0, 0, -0.137655, 7.729582, 367.348658)" fill="none" stroke-linejoin="round" d="M 2515.00255 1284.245508 L 2338.40112 1287.622394 " stroke="#000000" stroke-width="3.75" stroke-opacity="1" stroke-miterlimit="4"/><path stroke-linecap="round" transform="matrix(0.137713, 0, 0, -0.137655, 7.729582, 367.348658)" fill="none" stroke-linejoin="round" d="M 2395.386708 1931.13199 L 2199.638802 1817.878614 " stroke="#000000" stroke-width="3.75" stroke-opacity="1" stroke-miterlimit="4"/><path stroke-linecap="round" transform="matrix(0.137713, 0, 0, -0.137655, 7.729582, 367.348658)" fill="none" stroke-linejoin="round" d="M 2487.261432 1734.988835 L 2276.877108 1658.512301 " stroke="#000000" stroke-width="3.75" stroke-opacity="1" stroke-miterlimit="4"/><path stroke-linecap="round" transform="matrix(0.137713, 0, 0, -0.137655, 7.729582, 367.348658)" fill="none" stroke-linejoin="round" d="M 2580.242397 1318.752174 L 2294.491866 1315.403665 " stroke="#000000" stroke-width="3.75" stroke-opacity="1" stroke-miterlimit="4"/><path stroke-linecap="round" transform="matrix(0.137713, 0, 0, -0.137655, 7.729582, 367.348658)" fill="none" stroke-linejoin="round" d="M 2232.996219 2079.658216 L 2098.403578 1966.376463 " stroke="#000000" stroke-width="3.75" stroke-opacity="1" stroke-miterlimit="4"/><path stroke-linecap="round" transform="matrix(0.137713, 0, 0, -0.137655, 7.729582, 367.348658)" fill="none" stroke-linejoin="round" d="M 2078.859989 2231.873477 L 1965.626306 2095.748084 " stroke="#000000" stroke-width="3.75" stroke-opacity="1" stroke-miterlimit="4"/><path stroke-linecap="round" transform="matrix(0.137713, 0, 0, -0.137655, 7.729582, 367.348658)" fill="none" stroke-linejoin="round" d="M 1904.130659 2352.277905 L 1817.134741 2199.636986 " stroke="#000000" stroke-width="3.75" stroke-opacity="1" stroke-miterlimit="4"/><path stroke-linecap="round" transform="matrix(0.137713, 0, 0, -0.137655, 7.729582, 367.348658)" fill="none" stroke-linejoin="round" d="M 1711.361094 2441.495799 L 1651.765911 2274.637907 " stroke="#000000" stroke-width="3.75" stroke-opacity="1" stroke-miterlimit="4"/><path stroke-linecap="round" transform="matrix(0.137713, 0, 0, -0.137655, 7.729582, 367.348658)" fill="none" stroke-linejoin="round" d="M 1511.131493 2543.511806 L 1474.76737 2321.119748 " stroke="#000000" stroke-width="3.75" stroke-opacity="1" stroke-miterlimit="4"/><path stroke-linecap="round" transform="matrix(0.137713, 0, 0, -0.137655, 7.729582, 367.348658)" fill="none" stroke-linejoin="round" d="M 1327.382045 2512.382026 L 1325.907058 2335.734002 " stroke="#000000" stroke-width="3.75" stroke-opacity="1" stroke-miterlimit="4"/><path stroke-linecap="round" transform="matrix(0.137713, 0, 0, -0.137655, 7.729582, 367.348658)" fill="none" stroke-linejoin="round" d="M 895.749544 2438.118913 L 956.479332 2272.396108 " stroke="#000000" stroke-width="3.75" stroke-opacity="1" stroke-miterlimit="4"/><path stroke-linecap="round" transform="matrix(0.137713, 0, 0, -0.137655, 7.729582, 367.348658)" fill="none" stroke-linejoin="round" d="M 1096.745003 2492.886895 L 1127.492827 2319.246853 " stroke="#000000" stroke-width="3.75" stroke-opacity="1" stroke-miterlimit="4"/><g clip-path="url(#id2)"><path fill="#000000" d="M 14.527344 186.128906 C 12.410156 187.003906 10.710938 185.816406 10.914062 182.5625 L 11.328125 178.433594 C 11.328125 178.074219 10.398438 177.089844 8.949219 177.605469 L 9.3125 176.214844 C 11.171875 175.75 12.667969 177.195312 12.667969 178.019531 L 12.410156 180.292969 C 14.527344 181.117188 17.109375 182 18.457031 183.132812 L 18.863281 181.429688 C 19.175781 182.304688 18.972656 182.460938 18.972656 182.976562 L 19.125 186.277344 L 18.660156 185.660156 C 18.761719 185.144531 17.785156 183.855469 16.492188 183.441406 L 12.207031 182 C 11.375 185.457031 12.515625 184.941406 13.753906 184.527344 L 14.527344 186.128906 " fill-opacity="1" fill-rule="nonzero"/></g><path fill="#000000" d="M 16.234375 177.089844 C 16.648438 176.679688 17.164062 177.558594 17.421875 179.570312 C 16.4375 179.207031 15.40625 177.871094 16.234375 177.089844 Z M 17.164062 176.679688 C 16.90625 175.390625 15.40625 175.851562 15.40625 176.988281 C 15.304688 179.417969 16.492188 180.085938 17.574219 180.292969 C 20.726562 181.21875 19.796875 178.433594 18.660156 177.089844 L 18.246094 177.195312 C 19.175781 178.277344 19.640625 179.777344 17.988281 179.621094 L 17.164062 176.679688 " fill-opacity="1" fill-rule="nonzero"/><path fill="#000000" d="M 16.492188 173.789062 C 15.976562 172.292969 14.945312 170.640625 16.078125 171.105469 L 18.761719 172.035156 C 19.640625 172.445312 19.640625 171.621094 19.332031 170.847656 L 19.640625 170.949219 L 20.3125 172.859375 C 20.003906 173.375 19.640625 173.167969 18.972656 172.960938 L 17.164062 172.292969 C 15.5625 171.777344 17.109375 173.53125 17.164062 173.992188 L 19.796875 174.875 L 20.003906 175.851562 L 16.492188 174.664062 C 15.976562 174.507812 16.234375 174.976562 16.4375 175.542969 L 16.078125 175.542969 C 15.148438 173.53125 14.734375 173.117188 16.492188 173.789062 " fill-opacity="1" fill-rule="nonzero"/><path fill="#000000" d="M 15.976562 167.796875 C 15.765625 165.167969 18.863281 166.40625 19.796875 167.546875 C 20.210938 167.796875 20.523438 168.625 20.671875 169.09375 C 20.882812 170.640625 19.175781 171.824219 16.75 169.554688 C 16.28125 168.9375 16.078125 168.421875 15.976562 167.796875 Z M 16.4375 167.796875 C 16.28125 169.554688 19.796875 170.488281 20.109375 169.296875 C 20.523438 167.953125 16.90625 166.25 16.4375 167.796875 " fill-opacity="1" fill-rule="nonzero"/><path fill="#000000" d="M 18.089844 161.96875 C 17.316406 162.636719 17.785156 163.308594 17.988281 163.566406 L 20.882812 165.371094 L 21.140625 166.25 L 17.988281 164.496094 C 17.421875 164.183594 17.574219 164.855469 17.628906 165.371094 L 17.421875 165.527344 C 16.90625 164.035156 15.820312 162.636719 17.574219 163.519531 C 17.109375 162.898438 16.492188 162.226562 17.109375 161.5 L 18.089844 161.96875 " fill-opacity="1" fill-rule="nonzero"/><path fill="#000000" d="M 20.109375 162.484375 L 20.882812 161.8125 L 21.65625 162.636719 C 21.554688 163.050781 21.1875 163.152344 20.726562 163.308594 L 20.109375 162.484375 " fill-opacity="1" fill-rule="nonzero"/><path fill="#000000" d="M 118.382812 59.246094 C 117.710938 62.492188 112.804688 65.851562 108.417969 65.589844 C 111.71875 66.777344 118.640625 64.558594 118.382812 59.246094 " fill-opacity="1" fill-rule="nonzero"/><path fill="#000000" d="M 41.847656 152.160156 L 39.628906 148.183594 L 42.832031 145.757812 L 45.203125 150.144531 Z M 42.832031 147.773438 L 40.96875 149.011719 L 41.640625 150.402344 L 43.707031 149.214844 L 42.832031 147.773438 " fill-opacity="1" fill-rule="nonzero"/><path fill="#000000" d="M 45.308594 132.289062 L 46.132812 129.910156 L 54.136719 133.007812 L 57.496094 131.460938 L 60.386719 136.621094 L 55.273438 138.324219 L 53.933594 134.761719 Z M 55.789062 136.722656 L 58.480469 135.691406 L 57.03125 133.421875 L 54.863281 134.609375 L 55.789062 136.722656 " fill-opacity="1" fill-rule="nonzero"/><path fill="#000000" d="M 53.980469 121.601562 L 56.820312 120.101562 L 57.703125 122.683594 L 54.863281 123.613281 Z M 52.640625 121.445312 L 54.449219 125.164062 L 58.886719 124.285156 L 57.496094 118.710938 L 53.933594 119.585938 L 46.390625 115.871094 C 41.484375 113.546875 43.863281 109.519531 45.976562 106.0625 C 47.996094 102.707031 50.421875 99.816406 54.449219 102.863281 L 60.695312 107.613281 L 61.523438 112.046875 L 65.8125 111.328125 L 65.292969 105.390625 L 61.578125 105.546875 L 55.273438 101.316406 C 52.226562 99.296875 48.097656 101.574219 45.515625 105.75 C 42.832031 110.089844 42.3125 115.410156 45.671875 117.367188 Z M 61.78125 107.972656 L 64.621094 107.09375 L 65.140625 110.191406 L 62.195312 110.5 L 61.78125 107.972656 " fill-opacity="1" fill-rule="nonzero"/><path fill="#000000" d="M 60.4375 93.726562 L 61.78125 91.554688 L 70.199219 99.507812 L 72.679688 98.835938 L 74.074219 103.273438 L 69.628906 104.515625 L 68.957031 100.691406 Z M 70.664062 102.652344 L 73.195312 102.035156 L 72.421875 100.644531 L 70.042969 101.316406 L 70.664062 102.652344 " fill-opacity="1" fill-rule="nonzero"/><path fill="#000000" d="M 77.636719 86.808594 L 72.421875 87.324219 L 72.421875 81.644531 L 77.792969 81.542969 Z M 76.085938 83.246094 L 73.402344 83.296875 L 73.402344 86.34375 L 76.085938 85.929688 L 76.085938 83.246094 " fill-opacity="1" fill-rule="nonzero"/><path fill="#000000" d="M 85.695312 58.574219 L 87.398438 57.125 L 93.855469 66.933594 L 96.742188 67.246094 L 96.585938 72.300781 L 92.351562 71.632812 L 92.613281 67.863281 Z M 93.699219 69.929688 L 95.867188 70.085938 L 95.710938 68.378906 L 93.644531 68.121094 L 93.699219 69.929688 " fill-opacity="1" fill-rule="nonzero"/><path fill="#000000" d="M 108.878906 65.179688 L 106.867188 66.777344 L 101.234375 57.4375 L 97.929688 56.921875 L 99.066406 51.808594 L 103.667969 53.097656 L 102.785156 56.765625 Z M 102.632812 53.667969 L 99.480469 52.894531 L 99.066406 55.21875 L 102.164062 55.78125 L 102.632812 53.667969 " fill-opacity="1" fill-rule="nonzero"/><path fill="#000000" d="M 120.394531 58.261719 L 118.488281 59.449219 L 113.683594 50.46875 L 110.121094 49.335938 L 111.257812 44.632812 L 116.164062 46.082031 L 115.285156 49.382812 Z M 114.355469 46.957031 L 111.71875 46.238281 L 111.046875 48.664062 L 114.144531 49.382812 L 114.355469 46.957031 " fill-opacity="1" fill-rule="nonzero"/><path fill="#000000" d="M 130.003906 56.296875 L 127.988281 57.796875 L 123.753906 48.664062 L 120.859375 47.316406 L 122.40625 42.929688 L 126.4375 44.066406 L 125.507812 47.988281 Z M 125.144531 44.941406 L 122.71875 44.273438 L 122.046875 46.082031 L 124.941406 46.753906 L 125.144531 44.941406 " fill-opacity="1" fill-rule="nonzero"/><path fill="#000000" d="M 143.375 47.160156 L 140.535156 48.09375 L 138.933594 39.527344 L 135.785156 37.820312 L 137.851562 33.742188 L 141.828125 35.601562 L 140.121094 38.855469 Z M 140.535156 36.273438 L 138.007812 35.085938 L 137.125 37.355469 L 139.660156 38.183594 L 140.535156 36.273438 " fill-opacity="1" fill-rule="nonzero"/><path fill="#000000" d="M 152.726562 38.699219 L 150.347656 39.527344 L 148.28125 29.046875 L 145.390625 27.082031 L 148.078125 23.007812 L 151.695312 25.535156 L 150.144531 28.375 Z M 150.292969 25.894531 L 148.078125 24.347656 L 146.945312 26.667969 L 149.261719 28.015625 L 150.292969 25.894531 " fill-opacity="1" fill-rule="nonzero"/><path fill="#000000" d="M 159.285156 27.03125 L 160.777344 23.988281 L 162.328125 27.03125 L 164.449219 23.675781 L 165.324219 26.359375 C 167.335938 23.46875 169.25 15 172.914062 13.867188 C 174.621094 13.300781 176.167969 13.042969 176.84375 14.382812 C 177.359375 15.671875 176.273438 16.863281 175.496094 16.550781 C 174 16.085938 175.597656 14.078125 173.125 14.851562 C 169.457031 15.929688 168.578125 25.480469 165.480469 27.757812 C 164.136719 27.757812 164.347656 26.359375 163.878906 25.691406 L 162.585938 27.90625 C 161.65625 29.25 160.988281 26.824219 160.417969 25.996094 L 159.285156 27.03125 " fill-opacity="1" fill-rule="nonzero"/><path fill="#000000" d="M 25.375 187.003906 L 21.859375 182.25 L 26.09375 182.304688 L 29.453125 187.160156 Z M 23.667969 182.304688 L 22.535156 182.25 L 25.890625 186.898438 L 26.976562 187.003906 L 23.667969 182.304688 " fill-opacity="1" fill-rule="nonzero"/><path fill="#000000" d="M 31.46875 186.898438 L 27.800781 182.460938 L 32.5 182.5625 L 35.5 187.003906 Z M 30.125 182.5625 L 28.574219 182.460938 L 32.140625 186.898438 L 33.636719 187.003906 L 30.125 182.5625 " fill-opacity="1" fill-rule="nonzero"/><path fill="#000000" d="M 349.789062 252.921875 L 350.722656 252.507812 L 351.238281 253.59375 L 350.101562 253.800781 L 349.789062 252.921875 " fill-opacity="1" fill-rule="nonzero"/><g clip-path="url(#id3)"><path fill="#000000" d="M 186.292969 356.78125 C 191.25 355.59375 188.71875 365.457031 183.917969 365.199219 C 180.871094 364.941406 182.625 358.488281 185.160156 357.609375 C 183.039062 355.59375 182.421875 355.234375 181.59375 356.109375 L 181.074219 355.59375 C 183.140625 353.894531 184.589844 356.578125 186.292969 356.78125 Z M 186.601562 357.816406 L 185.929688 358.023438 C 184.070312 358.332031 182.265625 364.0625 184.488281 364.113281 C 188.304688 364.527344 189.652344 356.320312 186.601562 357.816406 " fill-opacity="1" fill-rule="nonzero"/></g><path fill="#000000" d="M 182.625 360.5 C 181.59375 361.171875 180.613281 361.894531 180.917969 360.808594 L 181.953125 357.867188 C 182.265625 356.78125 180.714844 357.660156 180.246094 358.023438 L 179.371094 360.808594 L 178.492188 361.171875 L 179.527344 357.867188 C 179.730469 356.9375 178.90625 357.351562 178.03125 357.816406 L 178.03125 357.453125 L 179.996094 356.476562 C 180.871094 356.007812 180.613281 356.992188 180.402344 357.609375 L 181.851562 356.679688 C 182.625 356.265625 183.609375 356.109375 182.210938 359.675781 C 181.851562 360.707031 181.953125 360.5 182.726562 360.136719 L 182.625 360.5 " fill-opacity="1" fill-rule="nonzero"/><path fill="#000000" d="M 178.234375 360.292969 C 177.71875 360.550781 175.707031 361.894531 176.167969 360.707031 C 176.378906 359.878906 176.894531 358.691406 177.148438 357.660156 C 177.304688 356.9375 176.480469 357.351562 175.707031 357.660156 L 175.707031 357.351562 C 176.167969 356.992188 176.894531 356.679688 177.5625 356.476562 C 178.90625 355.804688 177.515625 358.949219 177.304688 359.621094 C 176.894531 360.347656 177.515625 360.136719 178.183594 359.878906 L 178.234375 360.292969 " fill-opacity="1" fill-rule="nonzero"/><path fill="#000000" d="M 175.347656 362.71875 L 176.273438 362.046875 C 176.480469 362.359375 176.632812 362.71875 176.632812 362.929688 L 175.707031 363.445312 L 175.347656 362.71875 " fill-opacity="1" fill-rule="nonzero"/><path fill="#000000" d="M 173.328125 359.832031 C 171.9375 360.5 170.386719 361.480469 170.699219 360.347656 L 171.730469 357.660156 C 171.984375 356.679688 170.902344 357.144531 170.386719 357.609375 L 170.386719 357.25 L 172.453125 356.109375 C 172.8125 356.320312 172.65625 356.78125 172.453125 357.351562 L 171.9375 359.160156 C 171.316406 360.964844 173.125 359.363281 173.585938 359.207031 L 174.417969 356.578125 L 175.347656 356.320312 L 174.261719 359.832031 C 174 360.292969 174.621094 360.136719 175.136719 359.878906 L 175.136719 360.292969 C 173.125 361.171875 172.65625 361.585938 173.328125 359.832031 " fill-opacity="1" fill-rule="nonzero"/><path fill="#000000" d="M 166.875 359.160156 L 167.335938 358.691406 L 168.421875 358.800781 L 169.097656 356.679688 C 169.558594 355.59375 168.007812 356.476562 167.546875 356.78125 L 167.492188 356.476562 C 168.886719 355.445312 170.699219 354.304688 170.027344 356.476562 L 169.25 358.800781 L 170.230469 358.949219 L 169.769531 359.363281 L 169.097656 359.207031 L 168.421875 361.378906 L 167.546875 361.480469 L 168.371094 359.207031 L 166.875 359.160156 " fill-opacity="1" fill-rule="nonzero"/><path fill="#000000" d="M 166.410156 359.363281 C 165.324219 359.832031 164.136719 360.808594 164.449219 359.621094 L 165.480469 356.78125 C 165.738281 355.648438 164.191406 356.578125 163.777344 356.9375 L 162.84375 359.621094 L 161.96875 360.035156 L 163 356.78125 C 163.257812 355.804688 162.4375 356.265625 161.503906 356.679688 L 161.503906 356.320312 L 163.46875 355.390625 C 164.347656 354.925781 164.136719 355.90625 163.878906 356.320312 L 165.324219 355.59375 C 166.152344 355.132812 167.082031 354.925781 165.683594 358.539062 C 165.324219 359.621094 165.683594 359.207031 166.410156 359.003906 L 166.410156 359.363281 " fill-opacity="1" fill-rule="nonzero"/><path fill="#000000" d="M 161.765625 355.445312 L 160.832031 355.90625 C 161.089844 354.046875 158.972656 354.976562 159.285156 355.804688 C 159.902344 356.578125 160.988281 356.679688 160.316406 357.867188 C 159.957031 358.332031 159.746094 358.539062 159.285156 358.949219 C 158.871094 359.003906 157.9375 359.160156 157.679688 358.539062 L 158.195312 358.023438 C 158.972656 359.207031 160.316406 357.816406 159.285156 357.144531 C 157.890625 356.320312 158.613281 355.234375 159.285156 354.773438 C 159.957031 354.304688 161.765625 353.636719 161.765625 355.445312 " fill-opacity="1" fill-rule="nonzero"/><path fill="#000000" d="M 156.546875 355.234375 L 155.925781 354.304688 L 157.007812 353.636719 C 157.21875 353.894531 157.273438 354.253906 157.421875 354.71875 L 156.546875 355.234375 " fill-opacity="1" fill-rule="nonzero"/><path fill="#000000" d="M 146.945312 345.839844 L 148.59375 344.496094 L 149.933594 345.996094 L 148.28125 347.542969 L 146.945312 345.839844 " fill-opacity="1" fill-rule="nonzero"/><path fill="#000000" d="M 155.925781 333.96875 L 158.558594 334.382812 L 156.546875 345.324219 L 158.40625 348.21875 L 154.582031 350.742188 L 152.109375 347.542969 L 154.535156 345.167969 Z M 153.5 347.542969 L 155.050781 349.554688 L 156.546875 348.476562 L 154.738281 346.199219 L 153.5 347.542969 " fill-opacity="1" fill-rule="nonzero"/><path fill="#000000" d="M 143.429688 334.484375 L 146.375 335.15625 L 142.5 345.324219 L 144.097656 348.476562 L 140.277344 350.539062 L 138.007812 346.457031 L 140.691406 344.964844 L 143.429688 334.484375 " fill-opacity="1" fill-rule="nonzero"/><path fill="#000000" d="M 127.3125 347.851562 L 122.875 349.8125 L 121.117188 345.121094 L 125.972656 342.226562 Z M 123.289062 345.324219 L 123.957031 348.0625 L 125.507812 347.390625 L 124.628906 344.496094 L 123.289062 345.324219 " fill-opacity="1" fill-rule="nonzero"/><path fill="#000000" d="M 97.210938 329.578125 L 97.726562 335.15625 L 92.148438 336.390625 L 91.011719 330.816406 Z M 92.613281 331.957031 L 93.488281 334.945312 L 95.867188 334.171875 L 95.660156 331.285156 L 92.613281 331.957031 " fill-opacity="1" fill-rule="nonzero"/><path fill="#000000" d="M 77.328125 299.175781 L 76.960938 301.546875 L 74.949219 301.859375 L 74.746094 299.328125 Z M 61.109375 277.441406 L 56.203125 277.238281 L 54.449219 281.988281 L 60.851562 282.917969 L 62.246094 278.21875 C 65.8125 275.222656 69.527344 278.578125 73.605469 283.277344 C 77.792969 287.921875 83.574219 293.085938 77.636719 297.988281 L 73.089844 297.832031 L 73.402344 303.097656 L 78.667969 302.941406 L 79.339844 298.710938 C 84.761719 293.132812 79.183594 287.921875 74.535156 282.808594 C 69.734375 277.699219 65.601562 272.851562 61.109375 277.441406 Z M 59.253906 278.375 L 58.839844 281.054688 L 56.820312 280.640625 L 57.339844 278.113281 L 59.253906 278.375 " fill-opacity="1" fill-rule="nonzero"/><path fill="#000000" d="M 44.636719 263.402344 L 39.265625 262.574219 L 40.8125 258.757812 L 45.71875 259.015625 Z M 42.105469 259.476562 L 40.96875 262.160156 L 43.292969 262.527344 L 44.121094 259.632812 L 42.105469 259.476562 " fill-opacity="1" fill-rule="nonzero"/><path fill="#000000" d="M 43.292969 229.796875 L 39.628906 227.269531 L 41.179688 223.8125 L 45.203125 225.511719 Z M 41.742188 225.046875 L 40.609375 227.160156 L 42.3125 228.246094 L 43.503906 225.71875 L 41.742188 225.046875 " fill-opacity="1" fill-rule="nonzero"/><path fill="#000000" d="M 16.90625 214.878906 L 13.753906 213.332031 L 16.28125 211.523438 L 14.269531 209.765625 L 16.4375 208.167969 C 14.890625 205.277344 10.039062 202.382812 9.726562 198.515625 C 9.570312 196.8125 10.242188 195.007812 11.742188 194.75 C 13.082031 194.488281 14.269531 195.9375 13.855469 196.757812 C 13.082031 197.84375 10.5 195.9375 10.710938 198.515625 C 11.070312 202.382812 16.957031 204.605469 18.089844 209.203125 L 16.28125 210.539062 L 17.988281 212.191406 L 16.75 212.816406 L 16.90625 214.878906 " fill-opacity="1" fill-rule="nonzero"/><path fill="#000000" d="M 189.855469 350.328125 L 185.160156 353.894531 L 185.261719 349.65625 L 189.855469 346.199219 Z M 185.261719 352.035156 L 185.160156 353.222656 L 189.855469 349.8125 L 189.855469 348.679688 L 185.261719 352.035156 " fill-opacity="1" fill-rule="nonzero"/><path fill="#000000" d="M 189.699219 344.085938 L 185.261719 347.851562 L 185.410156 343.15625 L 189.652344 340.058594 Z M 185.410156 345.527344 L 185.261719 347.128906 L 189.699219 343.414062 L 189.699219 342.070312 L 185.410156 345.527344 " fill-opacity="1" fill-rule="nonzero"/><path fill="#000000" d="M 365.234375 196.085938 C 366.160156 197.171875 366.113281 199.699219 365.4375 199.652344 C 364.820312 199.652344 365.75 196.96875 362.960938 195.671875 L 358.363281 193.609375 C 357.488281 193.144531 357.230469 193.816406 357.378906 194.953125 L 357.019531 194.59375 L 357.019531 192.574219 C 357.019531 192.574219 356.972656 191.441406 357.019531 191.441406 C 357.175781 191.394531 357.691406 192.371094 357.898438 192.472656 L 359.195312 192.785156 L 359.242188 190.773438 C 358.363281 189.6875 356.042969 187.210938 357.175781 186.128906 C 357.488281 185.863281 358.363281 185.863281 358.519531 186.796875 C 358.570312 187.46875 358.054688 188.140625 358.984375 189.015625 Z M 359.65625 192.941406 L 362.546875 194.28125 L 359.859375 191.238281 Z M 359.65625 192.941406 " fill-opacity="1" fill-rule="nonzero"/><path fill="#000000" d="M 364.40625 202.539062 C 364.5625 201.507812 364.5625 200.992188 364.09375 200.527344 L 358.054688 196.085938 C 357.230469 195.46875 357.847656 197.015625 358.160156 197.6875 L 357.898438 197.6875 L 356.972656 196.34375 C 356.300781 195.421875 357.019531 194.59375 358.054688 195.265625 L 364.5625 199.910156 C 365.234375 200.371094 365.492188 201.042969 365.75 201.664062 C 365.75 201.867188 366.316406 203.210938 365.28125 203.625 C 364.765625 203.882812 364.304688 203.054688 364.40625 202.539062 " fill-opacity="1" fill-rule="nonzero"/><path fill="#000000" d="M 359.914062 202.179688 L 359.398438 201.867188 L 359.398438 200.734375 L 357.691406 199.652344 C 356.714844 198.980469 357.488281 200.527344 357.691406 200.992188 L 357.378906 201.042969 C 356.144531 199.394531 355.832031 197.171875 357.644531 198.308594 L 359.5 199.652344 L 359.5 198.824219 L 360.070312 199.394531 L 360.070312 199.910156 L 361.621094 200.992188 L 361.410156 201.867188 L 359.914062 200.835938 L 359.914062 202.179688 " fill-opacity="1" fill-rule="nonzero"/><path fill="#000000" d="M 360.171875 203.210938 C 360.585938 204.195312 361.050781 205.636719 360.171875 204.964844 L 357.230469 202.75 C 356.503906 202.179688 357.230469 203.625 357.644531 204.195312 L 360.171875 206.152344 L 359.914062 207.445312 L 357.230469 205.277344 C 356.503906 204.605469 356.714844 205.433594 357.175781 206.152344 L 356.816406 206.152344 C 356.503906 205.480469 355.9375 205.070312 355.679688 204.296875 C 355.472656 203.523438 356.300781 203.523438 356.816406 203.882812 L 356.042969 202.382812 C 355.265625 200.992188 357.175781 201.199219 359.242188 203.210938 C 359.914062 203.933594 360.070312 203.933594 359.859375 203.054688 L 360.171875 203.210938 " fill-opacity="1" fill-rule="nonzero"/><path fill="#000000" d="M 356.613281 206.105469 L 357.019531 206.824219 C 355.164062 206.980469 355.9375 209.507812 357.175781 209.09375 C 358.054688 208.789062 357.847656 207.753906 359.039062 208.425781 C 359.398438 208.789062 359.710938 209.203125 359.914062 209.664062 C 360.171875 210.125 360.070312 211.058594 359.5 211.472656 L 358.984375 210.851562 C 360.171875 210.125 358.828125 208.632812 358.160156 209.765625 C 357.230469 211.058594 355.679688 209.765625 355.265625 209.09375 C 355.007812 208.425781 354.953125 206.152344 356.613281 206.105469 " fill-opacity="1" fill-rule="nonzero"/><path fill="#000000" d="M 356.042969 212.660156 L 355.164062 213.222656 L 354.59375 212.144531 C 354.75 211.988281 355.007812 211.730469 355.472656 211.730469 L 356.042969 212.660156 " fill-opacity="1" fill-rule="nonzero"/><path fill="#000000" d="M 228.070312 352.292969 L 231.121094 354.976562 L 228.429688 359.621094 L 224.714844 356.265625 L 226.210938 353.378906 L 223.992188 341.398438 L 218.414062 342.429688 L 219.085938 339.183594 C 219.550781 340.9375 224.195312 340.421875 225.847656 339.851562 Z M 228.023438 353.378906 L 226.519531 355.90625 L 228.429688 357.351562 L 230.238281 354.925781 L 228.023438 353.378906 " fill-opacity="1" fill-rule="nonzero"/><path fill="#000000" d="M 338.640625 231.296875 L 339.203125 228.867188 L 351.910156 232.171875 L 354.953125 230.46875 L 357.230469 234.441406 L 353.820312 236.664062 L 351.652344 233.980469 Z M 353.921875 235.320312 L 356.042969 233.824219 L 355.007812 232.429688 L 352.734375 233.824219 L 353.921875 235.320312 " fill-opacity="1" fill-rule="nonzero"/><path fill="#000000" d="M 338.535156 246.316406 L 339.304688 243.890625 L 349.6875 247.816406 L 352.996094 246.316406 L 354.796875 250.5 L 350.929688 252.25 L 349.382812 249.566406 Z M 351.238281 251.171875 L 353.820312 249.824219 L 352.941406 248.222656 L 350.257812 249.671875 L 351.238281 251.171875 " fill-opacity="1" fill-rule="nonzero"/><path fill="#000000" d="M 335.539062 253.027344 L 336.417969 250.546875 L 346.535156 255.449219 L 349.789062 254.269531 L 351.445312 258.34375 L 347.878906 260.148438 L 346.074219 257.257812 L 335.539062 253.027344 " fill-opacity="1" fill-rule="nonzero"/><path fill="#000000" d="M 314.367188 267.738281 L 315.550781 265.515625 L 325.109375 271.195312 L 328.460938 270.421875 L 329.601562 274.808594 L 325.777344 275.996094 L 324.382812 272.851562 Z M 326.246094 274.65625 L 328.722656 273.882812 L 328.15625 272.179688 L 325.363281 273 L 326.246094 274.65625 " fill-opacity="1" fill-rule="nonzero"/><path fill="#000000" d="M 311.730469 277.90625 L 313.074219 275.738281 L 321.800781 282.347656 L 324.847656 281.988281 L 325.519531 286.890625 L 321.128906 287.351562 L 320.613281 283.996094 Z M 321.800781 285.703125 L 324.4375 285.289062 L 324.179688 283.691406 L 321.496094 283.996094 L 321.800781 285.703125 " fill-opacity="1" fill-rule="nonzero"/><path fill="#000000" d="M 313.074219 298.503906 L 317.773438 298.195312 L 318.1875 302.683594 L 313.28125 303.355469 Z M 314.109375 301.757812 L 317.308594 301.546875 L 317.101562 299.382812 L 313.898438 299.84375 L 314.109375 301.757812 " fill-opacity="1" fill-rule="nonzero"/><path fill="#000000" d="M 293.398438 324.214844 L 293.242188 328.90625 L 288.335938 328.234375 L 288.335938 323.488281 Z M 289.578125 327.050781 L 292.3125 327.050781 L 292.46875 325.246094 L 289.367188 325.035156 L 289.578125 327.050781 " fill-opacity="1" fill-rule="nonzero"/><path fill="#000000" d="M 261.324219 325.550781 L 263.5 324.363281 L 268.25 334.84375 L 272.378906 336.910156 L 271.089844 341.96875 L 265.925781 340.421875 L 266.386719 335.570312 Z M 266.800781 338.871094 L 270.472656 340.214844 L 270.933594 338.410156 L 267.113281 336.910156 L 266.800781 338.871094 " fill-opacity="1" fill-rule="nonzero"/><path fill="#000000" d="M 250.332031 331.074219 L 252.601562 329.941406 L 256.316406 340.523438 L 259.675781 342.484375 L 258.125 347.648438 L 254.097656 345.527344 L 254.40625 341.554688 Z M 255.082031 344.238281 L 257.921875 345.785156 L 258.4375 343.414062 L 255.542969 341.8125 L 255.082031 344.238281 " fill-opacity="1" fill-rule="nonzero"/><path fill="#000000" d="M 234.683594 332.625 L 237.003906 331.746094 L 240.363281 342.945312 L 243.203125 344.449219 L 241.183594 350.226562 L 236.953125 346.714844 L 238.914062 343.621094 Z M 238.242188 346.199219 L 241.035156 347.804688 L 242.273438 344.964844 L 239.847656 343.828125 L 238.242188 346.199219 " fill-opacity="1" fill-rule="nonzero"/><g clip-path="url(#id4)"><path fill="#000000" d="M 218.460938 357.609375 L 216.605469 360.707031 L 215.160156 358.488281 L 212.890625 360.964844 L 211.960938 358.125 C 209.792969 361.171875 207.929688 365.199219 204.160156 365.613281 C 202.40625 365.714844 200.542969 365.199219 200.183594 363.703125 C 199.980469 362.359375 201.214844 361.378906 201.992188 361.84375 C 203.234375 362.5625 201.527344 364.785156 204.003906 364.578125 C 207.929688 364.113281 210.355469 358.488281 212.476562 355.390625 L 214.023438 358.28125 L 215.933594 356.320312 L 216.863281 358.023438 L 218.460938 357.609375 " fill-opacity="1" fill-rule="nonzero"/></g><path fill="#000000" d="M 350.460938 185.863281 L 354.078125 190.566406 L 349.789062 190.566406 L 346.230469 185.863281 Z M 352.269531 190.511719 L 353.40625 190.566406 L 350.046875 185.863281 L 348.757812 185.863281 L 352.269531 190.511719 " fill-opacity="1" fill-rule="nonzero"/><path fill="#000000" d="M 344.320312 186.019531 L 348.085938 190.511719 L 343.4375 190.359375 L 340.238281 186.128906 Z M 345.660156 190.359375 L 347.363281 190.511719 L 343.648438 186.019531 L 342.253906 186.019531 L 345.660156 190.359375 " fill-opacity="1" fill-rule="nonzero"/><path fill="#000000" d="M 342.667969 216.789062 C 339.570312 215.550781 338.535156 216.21875 338.019531 217.976562 C 337.191406 217.304688 336.261719 215.914062 337.394531 215.035156 C 338.742188 214.003906 341.996094 214.566406 342.667969 216.789062 " fill-opacity="1" fill-rule="nonzero"/><g clip-path="url(#id5)"><path fill="#000000" d="M 191.199219 18.613281 C 189.183594 20.578125 186.960938 20.425781 186.808594 17.433594 C 186.757812 14.851562 188.617188 12.316406 190.324219 10.824219 C 191.664062 9.636719 194.554688 9.480469 194.863281 11.957031 L 193.421875 12.628906 C 193.421875 11.285156 192.539062 10.980469 191.507812 11.441406 C 189.496094 12.527344 188.304688 14.851562 188.359375 17.222656 C 188.359375 18.410156 189.183594 19.285156 191.199219 18.410156 L 191.199219 18.613281 " fill-opacity="1" fill-rule="nonzero"/></g><path fill="#000000" d="M 195.433594 19.082031 L 195.488281 19.285156 C 194.554688 20.320312 193.523438 20.320312 193.882812 19.082031 C 190.371094 21.976562 191.507812 17.949219 192.078125 16.757812 C 192.390625 16.34375 193.007812 15.882812 193.523438 15.671875 C 194.089844 15.519531 194.863281 15.519531 195.488281 15.726562 L 195.277344 16.191406 L 194.761719 18.769531 C 194.605469 19.441406 194.863281 19.441406 195.433594 19.082031 Z M 193.9375 18.566406 L 194.554688 16.191406 C 193.007812 16.085938 192.851562 16.398438 192.59375 17.222656 C 192.335938 18.097656 191.921875 19.910156 193.007812 19.238281 L 193.9375 18.566406 " fill-opacity="1" fill-rule="nonzero"/><path fill="#000000" d="M 197.445312 16.757812 C 198.789062 16.085938 199.980469 15 199.769531 16.085938 L 199.308594 18.566406 C 199.101562 19.441406 199.308594 19.082031 199.980469 18.769531 L 199.980469 19.082031 C 199.460938 19.441406 199.308594 20.21875 198.585938 20.21875 C 198.117188 20.21875 198.320312 19.441406 198.429688 19.027344 L 198.789062 17.277344 C 199.101562 15.671875 197.65625 17.222656 197.242188 17.433594 L 196.773438 19.960938 L 195.894531 19.960938 L 196.570312 16.863281 C 196.621094 16.398438 196.15625 16.605469 195.738281 16.757812 L 195.738281 16.550781 C 197.5 15.519531 197.914062 15.054688 197.445312 16.757812 " fill-opacity="1" fill-rule="nonzero"/><path fill="#000000" d="M 203.234375 17.019531 L 202.820312 17.277344 L 201.734375 17.277344 L 201.320312 19.285156 C 201.058594 20.425781 202.40625 19.441406 202.820312 19.238281 L 202.867188 19.441406 C 201.683594 20.992188 200.183594 21.09375 200.542969 19.546875 L 201.011719 17.277344 L 200.136719 17.277344 L 200.542969 17.019531 L 201.058594 17.019531 L 201.472656 15.210938 L 202.351562 15.210938 L 201.890625 17.019531 L 203.234375 17.019531 " fill-opacity="1" fill-rule="nonzero"/><path fill="#000000" d="M 203.488281 17.066406 C 204.417969 16.605469 205.761719 15.726562 205.550781 16.605469 L 204.574219 19.648438 C 204.367188 20.632812 205.550781 19.753906 206.019531 19.441406 L 206.585938 17.019531 L 207.773438 17.019531 L 206.792969 19.546875 C 206.433594 20.320312 207.257812 19.960938 207.984375 19.546875 L 207.984375 19.910156 C 207.570312 20.21875 207.101562 20.578125 206.640625 20.890625 C 206.019531 21.460938 205.761719 20.425781 205.917969 19.910156 C 205.449219 20.21875 205.035156 20.578125 204.675781 20.789062 C 204.003906 21.25 203.335938 20.632812 204.210938 17.949219 C 204.675781 16.605469 204.160156 17.277344 203.335938 17.691406 L 203.488281 17.066406 " fill-opacity="1" fill-rule="nonzero"/><path fill="#000000" d="M 207.929688 20.425781 L 208.808594 19.960938 C 208.652344 21.664062 210.667969 20.632812 210.253906 19.960938 C 209.792969 19.238281 208.652344 19.238281 209.117188 17.949219 C 209.324219 17.691406 209.738281 17.277344 209.996094 17.066406 C 210.464844 16.863281 211.285156 16.757812 211.597656 17.222656 L 211.128906 17.894531 C 210.355469 16.757812 209.117188 18.207031 210.152344 18.613281 C 211.597656 19.285156 210.925781 20.425781 210.355469 20.890625 C 209.792969 21.304688 208.242188 22.125 207.929688 20.425781 " fill-opacity="1" fill-rule="nonzero"/><path fill="#000000" d="M 212.835938 20.632812 L 213.507812 21.460938 L 212.632812 22.179688 C 212.21875 21.976562 212.164062 21.664062 212.011719 21.25 L 212.835938 20.632812 " fill-opacity="1" fill-rule="nonzero"/><path fill="#000000" d="M 185.929688 25.324219 L 190.574219 21.765625 L 190.574219 25.996094 L 185.824219 29.5625 Z M 190.527344 23.523438 L 190.574219 22.4375 L 185.929688 25.792969 L 185.929688 27.03125 L 190.527344 23.523438 " fill-opacity="1" fill-rule="nonzero"/><path fill="#000000" d="M 186.085938 31.472656 L 190.527344 27.703125 L 190.371094 32.402344 L 186.085938 35.601562 Z M 190.371094 30.179688 L 190.527344 28.421875 L 186.085938 32.144531 L 186.085938 33.585938 L 190.371094 30.179688 " fill-opacity="1" fill-rule="nonzero"/><path fill="#000000" d="M 220.480469 34.929688 C 218.617188 34.257812 216.503906 33.949219 214.644531 34.464844 L 214.488281 32.035156 L 218.460938 33.277344 L 221.308594 20.992188 L 219.136719 17.949219 L 223.523438 15.054688 L 225.644531 19.027344 L 223.320312 21.09375 Z M 224.660156 19.027344 L 222.75 16.605469 L 221.152344 17.949219 L 223.109375 20.113281 L 224.660156 19.027344 " fill-opacity="1" fill-rule="nonzero"/><path fill="#000000" d="M 229.101562 46.285156 L 226.882812 45.566406 L 230.753906 33.332031 L 229.101562 30.234375 L 233.132812 27.90625 L 235.355469 31.371094 L 232.253906 33.949219 Z M 234.007812 31.265625 L 232.5625 29.09375 L 230.964844 30.179688 L 232.5625 32.449219 L 234.007812 31.265625 " fill-opacity="1" fill-rule="nonzero"/><path fill="#000000" d="M 243.25 51.34375 L 240.777344 50.210938 L 245.941406 38.644531 L 244.597656 35.34375 L 248.828125 33.484375 L 250.746094 37.046875 L 247.851562 39.058594 Z M 249.296875 36.839844 L 248.109375 34.617188 L 246.351562 35.5 L 247.851562 37.976562 L 249.296875 36.839844 " fill-opacity="1" fill-rule="nonzero"/><path fill="#000000" d="M 259.675781 30.902344 L 262 31.933594 L 257.300781 42.414062 L 257.972656 45.566406 L 253.734375 47.421875 L 252.394531 42.875 L 255.644531 41.382812 Z M 253.890625 43.289062 L 254.769531 45.972656 L 256.574219 44.894531 L 256.214844 42.257812 L 253.890625 43.289062 " fill-opacity="1" fill-rule="nonzero"/><path fill="#000000" d="M 286.324219 47.113281 L 288.445312 48.507812 L 280.902344 58.984375 L 281.105469 62.289062 L 276.714844 62.960938 L 276.199219 58.574219 L 279.558594 58.261719 Z M 277.390625 59.140625 L 277.75 62.289062 L 279.765625 61.875 L 279.558594 58.777344 L 277.390625 59.140625 " fill-opacity="1" fill-rule="nonzero"/><path fill="#000000" d="M 276.410156 47.421875 L 278.523438 48.765625 L 273.515625 57.4375 L 273.71875 61.152344 L 269.335938 61.875 L 268.664062 57.640625 L 272.019531 56.453125 L 276.410156 47.421875 " fill-opacity="1" fill-rule="nonzero"/><path fill="#000000" d="M 275.375 40.402344 L 277.542969 41.84375 L 270.472656 52.066406 L 271.292969 54.542969 L 266.90625 55.421875 L 266.128906 51.863281 L 268.921875 51.34375 L 275.375 40.402344 " fill-opacity="1" fill-rule="nonzero"/><path fill="#000000" d="M 315.964844 66.058594 L 317.980469 67.605469 L 309.71875 74.832031 L 309.871094 77.726562 L 305.636719 78.1875 L 305.484375 74.113281 L 308.320312 73.488281 L 315.964844 66.058594 " fill-opacity="1" fill-rule="nonzero"/><path fill="#000000" d="M 309.460938 64.921875 L 311.316406 66.574219 L 303.417969 74.628906 L 302.796875 78.1875 L 298.976562 78.1875 L 298.507812 74.160156 L 301.871094 73.441406 L 309.460938 64.921875 " fill-opacity="1" fill-rule="nonzero"/><path fill="#000000" d="M 302.589844 63.476562 C 304.085938 63.21875 305.847656 64.507812 305.070312 66.058594 C 303.625 69.414062 300.574219 68.585938 298.046875 71.269531 L 297.476562 74.160156 L 293.65625 75.035156 L 294.125 71.269531 L 297.167969 70.390625 C 299.699219 67.449219 300.058594 64.039062 302.589844 63.476562 Z M 302.074219 64.714844 C 301.246094 64.820312 299.492188 67.605469 299.234375 68.742188 C 300.527344 68.535156 302.953125 67.402344 303.210938 66.777344 C 303.726562 65.386719 303.054688 64.714844 302.074219 64.714844 " fill-opacity="1" fill-rule="nonzero"/><path fill="#000000" d="M 297.375 62.289062 L 299.179688 64.039062 L 291.230469 71.835938 L 290.972656 75.296875 L 286.527344 75.035156 L 286.480469 71.0625 L 289.78125 70.5 L 297.375 62.289062 " fill-opacity="1" fill-rule="nonzero"/><path fill="#000000" d="M 307.652344 95.792969 L 306.105469 93.933594 L 315.917969 85.515625 L 315.964844 82.109375 L 320.460938 82.574219 L 319.945312 86.863281 L 316.894531 86.863281 L 307.652344 95.792969 " fill-opacity="1" fill-rule="nonzero"/><path fill="#000000" d="M 314.414062 94.449219 L 313.4375 93.054688 L 321.699219 87.324219 L 322.371094 83.96875 L 326.863281 84.585938 L 326.605469 88.566406 L 323.144531 88.667969 L 314.414062 94.449219 " fill-opacity="1" fill-rule="nonzero"/><path fill="#000000" d="M 318.804688 100.175781 L 317.253906 98.007812 L 328.050781 91.039062 L 328.460938 87.894531 L 333.164062 88.355469 L 332.183594 92.695312 L 328.722656 92.695312 L 318.804688 100.175781 " fill-opacity="1" fill-rule="nonzero"/><path fill="#000000" d="M 316.222656 108.746094 L 314.78125 106.632812 L 325.933594 99.972656 L 326.605469 96.667969 L 331.308594 97.492188 L 329.960938 101.363281 L 326.605469 100.902344 L 316.222656 108.746094 " fill-opacity="1" fill-rule="nonzero"/><path fill="#000000" d="M 332.488281 111.328125 L 331.152344 109.105469 L 340.910156 103.738281 L 341.785156 100.902344 L 345.660156 101.988281 L 344.78125 105.804688 L 341.636719 105.546875 L 332.488281 111.328125 " fill-opacity="1" fill-rule="nonzero"/><path fill="#000000" d="M 328.722656 127.691406 L 327.738281 125.367188 L 339.570312 120.257812 L 340.960938 117.367188 L 345.816406 118.453125 L 343.804688 122.480469 L 340.445312 121.855469 L 328.722656 127.691406 " fill-opacity="1" fill-rule="nonzero"/><path fill="#000000" d="M 333.523438 116.074219 L 344.320312 111.328125 L 345.816406 108.074219 L 349.171875 109.316406 L 348.035156 113.1875 L 344.679688 112.671875 L 336.261719 116.441406 C 338.898438 117.210938 344.679688 116.542969 342.921875 113.546875 C 346.902344 117.210938 336.417969 118.710938 333.523438 116.074219 " fill-opacity="1" fill-rule="nonzero"/><path fill="#000000" d="M 325.261719 133.9375 L 324.179688 131.613281 L 334.867188 127.171875 L 338.226562 124.542969 L 341.636719 125.882812 L 339.304688 129.035156 L 335.382812 128.777344 L 325.261719 133.9375 " fill-opacity="1" fill-rule="nonzero"/><path fill="#000000" d="M 337.605469 140.1875 L 336.722656 137.859375 L 348.554688 134.09375 L 350.101562 130.738281 L 354.28125 132.75 L 352.734375 136.519531 L 349.382812 135.488281 Z M 352.269531 134.96875 L 352.941406 132.804688 L 351.394531 132.078125 L 350.460938 134.296875 L 352.269531 134.96875 " fill-opacity="1" fill-rule="nonzero"/><path fill="#000000" d="M 331.769531 158.253906 L 331.152344 155.773438 L 341.996094 153.34375 L 344.007812 150.558594 L 347.832031 153.039062 L 345.867188 156.441406 L 342.667969 155.101562 Z M 345.195312 155.257812 L 346.535156 152.882812 L 344.882812 152.160156 L 343.59375 154.585938 L 345.195312 155.257812 " fill-opacity="1" fill-rule="nonzero"/><path fill="#000000" d="M 332.957031 168.421875 L 332.488281 165.839844 L 343.59375 164.238281 L 345.660156 161.554688 L 349.382812 164.238281 L 347.160156 167.75 L 344.109375 166.199219 Z M 346.691406 166.40625 L 348.085938 164.238281 L 346.488281 163.308594 L 344.882812 165.582031 L 346.691406 166.40625 " fill-opacity="1" fill-rule="nonzero"/><path fill="#000000" d="M 358.054688 168.421875 L 358.519531 170.847656 L 346.074219 171.777344 L 343.804688 174.460938 L 340.289062 171.519531 L 342.667969 168.0625 L 345.660156 169.8125 Z M 343.59375 169.398438 L 341.636719 171.980469 L 342.976562 172.960938 L 344.679688 170.175781 L 343.59375 169.398438 " fill-opacity="1" fill-rule="nonzero"/><path fill="#000000" d="M 241.394531 50.46875 C 237.210938 52.066406 229.777344 49.382812 227.398438 45.410156 C 228.226562 49.640625 237.625 54.027344 241.394531 50.46875 " fill-opacity="1" fill-rule="nonzero"/><path fill="#000000" d="M 333.058594 167.132812 C 329.601562 164.855469 328.617188 158.402344 332.644531 155.980469 C 328.15625 157.785156 328.414062 165.167969 333.058594 167.132812 " fill-opacity="1" fill-rule="nonzero"/><path fill="#000000" d="M 339.304688 178.230469 C 338.226562 177.351562 337.605469 176.007812 338.742188 175.542969 C 340.445312 174.71875 341.117188 175.335938 342.976562 175.390625 L 342.921875 176.214844 C 342.300781 176.421875 341.582031 176.007812 340.960938 176.679688 C 340.496094 177.351562 342.300781 178.535156 343.648438 178.746094 L 343.59375 179.417969 C 342.976562 179.570312 342.253906 179.207031 341.636719 179.878906 C 341.167969 180.449219 343.851562 181.632812 345.140625 182 C 347.570312 182.769531 349.171875 181.117188 350.460938 179.417969 C 352.269531 181.117188 352.269531 183.183594 354.078125 182.976562 C 353.664062 183.800781 353.820312 185.347656 352.996094 185.457031 C 351.652344 185.199219 351.394531 182.769531 350.257812 181.789062 C 349.585938 182.460938 348.554688 183.800781 347.570312 183.648438 C 344.523438 183.441406 336.933594 180.550781 339.304688 178.230469 " fill-opacity="1" fill-rule="nonzero"/></svg>