<svg xmlns="http://www.w3.org/2000/svg" xmlns:xlink="http://www.w3.org/1999/xlink" width="500" zoomAndPan="magnify" viewBox="0 0 375 374.999991" height="500" preserveAspectRatio="xMidYMid meet" version="1.0"><defs><filter x="0%" y="0%" width="100%" height="100%" id="id1"><feColorMatrix values="0 0 0 0 1 0 0 0 0 1 0 0 0 0 1 0 0 0 1 0" color-interpolation-filters="sRGB"/></filter><g/><clipPath id="id2"><path d="M 21 129 L 63 129 L 63 167 L 21 167 Z M 21 129 " clip-rule="nonzero"/></clipPath><clipPath id="id3"><path d="M -21.984375 90.042969 L 282.660156 -20.261719 L 396.792969 294.960938 L 92.148438 405.265625 Z M -21.984375 90.042969 " clip-rule="nonzero"/></clipPath><clipPath id="id4"><path d="M -21.984375 90.042969 L 282.660156 -20.261719 L 396.792969 294.960938 L 92.148438 405.265625 Z M -21.984375 90.042969 " clip-rule="nonzero"/></clipPath><clipPath id="id5"><path d="M -21.984375 90.042969 L 282.660156 -20.261719 L 396.792969 294.960938 L 92.148438 405.265625 Z M -21.984375 90.042969 " clip-rule="nonzero"/></clipPath><clipPath id="id6"><path d="M 123 283 L 141 283 L 141 311 L 123 311 Z M 123 283 " clip-rule="nonzero"/></clipPath><clipPath id="id7"><path d="M -21.984375 90.042969 L 282.660156 -20.261719 L 396.792969 294.960938 L 92.148438 405.265625 Z M -21.984375 90.042969 " clip-rule="nonzero"/></clipPath><clipPath id="id8"><path d="M -21.984375 90.042969 L 282.660156 -20.261719 L 396.792969 294.960938 L 92.148438 405.265625 Z M -21.984375 90.042969 " clip-rule="nonzero"/></clipPath><clipPath id="id9"><path d="M -21.984375 90.042969 L 282.660156 -20.261719 L 396.792969 294.960938 L 92.148438 405.265625 Z M -21.984375 90.042969 " clip-rule="nonzero"/></clipPath><clipPath id="id10"><path d="M 244 55 L 258 55 L 258 90 L 244 90 Z M 244 55 " clip-rule="nonzero"/></clipPath><clipPath id="id11"><path d="M -21.984375 90.042969 L 282.660156 -20.261719 L 396.792969 294.960938 L 92.148438 405.265625 Z M -21.984375 90.042969 " clip-rule="nonzero"/></clipPath><clipPath id="id12"><path d="M -21.984375 90.042969 L 282.660156 -20.261719 L 396.792969 294.960938 L 92.148438 405.265625 Z M -21.984375 90.042969 " clip-rule="nonzero"/></clipPath><clipPath id="id13"><path d="M -21.984375 90.042969 L 282.660156 -20.261719 L 396.792969 294.960938 L 92.148438 405.265625 Z M -21.984375 90.042969 " clip-rule="nonzero"/></clipPath><clipPath id="id14"><path d="M 60 168 L 87 168 L 87 182 L 60 182 Z M 60 168 " clip-rule="nonzero"/></clipPath><clipPath id="id15"><path d="M -21.984375 90.042969 L 282.660156 -20.261719 L 396.792969 294.960938 L 92.148438 405.265625 Z M -21.984375 90.042969 " clip-rule="nonzero"/></clipPath><clipPath id="id16"><path d="M -21.984375 90.042969 L 282.660156 -20.261719 L 396.792969 294.960938 L 92.148438 405.265625 Z M -21.984375 90.042969 " clip-rule="nonzero"/></clipPath><clipPath id="id17"><path d="M -21.984375 90.042969 L 282.660156 -20.261719 L 396.792969 294.960938 L 92.148438 405.265625 Z M -21.984375 90.042969 " clip-rule="nonzero"/></clipPath><clipPath id="id18"><path d="M 275 279 L 310 279 L 310 310 L 275 310 Z M 275 279 " clip-rule="nonzero"/></clipPath><clipPath id="id19"><path d="M -21.984375 90.042969 L 282.660156 -20.261719 L 396.792969 294.960938 L 92.148438 405.265625 Z M -21.984375 90.042969 " clip-rule="nonzero"/></clipPath><clipPath id="id20"><path d="M -21.984375 90.042969 L 282.660156 -20.261719 L 396.792969 294.960938 L 92.148438 405.265625 Z M -21.984375 90.042969 " clip-rule="nonzero"/></clipPath><clipPath id="id21"><path d="M -21.984375 90.042969 L 282.660156 -20.261719 L 396.792969 294.960938 L 92.148438 405.265625 Z M -21.984375 90.042969 " clip-rule="nonzero"/></clipPath><clipPath id="id22"><path d="M 82 46 L 117 46 L 117 88 L 82 88 Z M 82 46 " clip-rule="nonzero"/></clipPath><clipPath id="id23"><path d="M -21.984375 90.042969 L 282.660156 -20.261719 L 396.792969 294.960938 L 92.148438 405.265625 Z M -21.984375 90.042969 " clip-rule="nonzero"/></clipPath><clipPath id="id24"><path d="M -21.984375 90.042969 L 282.660156 -20.261719 L 396.792969 294.960938 L 92.148438 405.265625 Z M -21.984375 90.042969 " clip-rule="nonzero"/></clipPath><clipPath id="id25"><path d="M -21.984375 90.042969 L 282.660156 -20.261719 L 396.792969 294.960938 L 92.148438 405.265625 Z M -21.984375 90.042969 " clip-rule="nonzero"/></clipPath><clipPath id="id26"><path d="M 150 25 L 174 25 L 174 54 L 150 54 Z M 150 25 " clip-rule="nonzero"/></clipPath><clipPath id="id27"><path d="M -21.984375 90.042969 L 282.660156 -20.261719 L 396.792969 294.960938 L 92.148438 405.265625 Z M -21.984375 90.042969 " clip-rule="nonzero"/></clipPath><clipPath id="id28"><path d="M -21.984375 90.042969 L 282.660156 -20.261719 L 396.792969 294.960938 L 92.148438 405.265625 Z M -21.984375 90.042969 " clip-rule="nonzero"/></clipPath><clipPath id="id29"><path d="M -21.984375 90.042969 L 282.660156 -20.261719 L 396.792969 294.960938 L 92.148438 405.265625 Z M -21.984375 90.042969 " clip-rule="nonzero"/></clipPath><clipPath id="id30"><path d="M 183 324 L 206 324 L 206 364 L 183 364 Z M 183 324 " clip-rule="nonzero"/></clipPath><clipPath id="id31"><path d="M -21.984375 90.042969 L 282.660156 -20.261719 L 396.792969 294.960938 L 92.148438 405.265625 Z M -21.984375 90.042969 " clip-rule="nonzero"/></clipPath><clipPath id="id32"><path d="M -21.984375 90.042969 L 282.660156 -20.261719 L 396.792969 294.960938 L 92.148438 405.265625 Z M -21.984375 90.042969 " clip-rule="nonzero"/></clipPath><clipPath id="id33"><path d="M -21.984375 90.042969 L 282.660156 -20.261719 L 396.792969 294.960938 L 92.148438 405.265625 Z M -21.984375 90.042969 " clip-rule="nonzero"/></clipPath><clipPath id="id34"><path d="M 74 298 L 99 298 L 99 321 L 74 321 Z M 74 298 " clip-rule="nonzero"/></clipPath><clipPath id="id35"><path d="M -21.984375 90.042969 L 282.660156 -20.261719 L 396.792969 294.960938 L 92.148438 405.265625 Z M -21.984375 90.042969 " clip-rule="nonzero"/></clipPath><clipPath id="id36"><path d="M -21.984375 90.042969 L 282.660156 -20.261719 L 396.792969 294.960938 L 92.148438 405.265625 Z M -21.984375 90.042969 " clip-rule="nonzero"/></clipPath><clipPath id="id37"><path d="M -21.984375 90.042969 L 282.660156 -20.261719 L 396.792969 294.960938 L 92.148438 405.265625 Z M -21.984375 90.042969 " clip-rule="nonzero"/></clipPath><clipPath id="id38"><path d="M 277 112 L 312 112 L 312 139 L 277 139 Z M 277 112 " clip-rule="nonzero"/></clipPath><clipPath id="id39"><path d="M -21.984375 90.042969 L 282.660156 -20.261719 L 396.792969 294.960938 L 92.148438 405.265625 Z M -21.984375 90.042969 " clip-rule="nonzero"/></clipPath><clipPath id="id40"><path d="M -21.984375 90.042969 L 282.660156 -20.261719 L 396.792969 294.960938 L 92.148438 405.265625 Z M -21.984375 90.042969 " clip-rule="nonzero"/></clipPath><clipPath id="id41"><path d="M -21.984375 90.042969 L 282.660156 -20.261719 L 396.792969 294.960938 L 92.148438 405.265625 Z M -21.984375 90.042969 " clip-rule="nonzero"/></clipPath><clipPath id="id42"><path d="M 54 244 L 103 244 L 103 289 L 54 289 Z M 54 244 " clip-rule="nonzero"/></clipPath><clipPath id="id43"><path d="M -21.984375 90.042969 L 282.660156 -20.261719 L 396.792969 294.960938 L 92.148438 405.265625 Z M -21.984375 90.042969 " clip-rule="nonzero"/></clipPath><clipPath id="id44"><path d="M -21.984375 90.042969 L 282.660156 -20.261719 L 396.792969 294.960938 L 92.148438 405.265625 Z M -21.984375 90.042969 " clip-rule="nonzero"/></clipPath><clipPath id="id45"><path d="M -21.984375 90.042969 L 282.660156 -20.261719 L 396.792969 294.960938 L 92.148438 405.265625 Z M -21.984375 90.042969 " clip-rule="nonzero"/></clipPath><clipPath id="id46"><path d="M 37 222 L 59 222 L 59 239 L 37 239 Z M 37 222 " clip-rule="nonzero"/></clipPath><clipPath id="id47"><path d="M -21.984375 90.042969 L 282.660156 -20.261719 L 396.792969 294.960938 L 92.148438 405.265625 Z M -21.984375 90.042969 " clip-rule="nonzero"/></clipPath><clipPath id="id48"><path d="M -21.984375 90.042969 L 282.660156 -20.261719 L 396.792969 294.960938 L 92.148438 405.265625 Z M -21.984375 90.042969 " clip-rule="nonzero"/></clipPath><clipPath id="id49"><path d="M -21.984375 90.042969 L 282.660156 -20.261719 L 396.792969 294.960938 L 92.148438 405.265625 Z M -21.984375 90.042969 " clip-rule="nonzero"/></clipPath><clipPath id="id50"><path d="M 34 224 L 38 224 L 38 228 L 34 228 Z M 34 224 " clip-rule="nonzero"/></clipPath><clipPath id="id51"><path d="M -21.984375 90.042969 L 282.660156 -20.261719 L 396.792969 294.960938 L 92.148438 405.265625 Z M -21.984375 90.042969 " clip-rule="nonzero"/></clipPath><clipPath id="id52"><path d="M -21.984375 90.042969 L 282.660156 -20.261719 L 396.792969 294.960938 L 92.148438 405.265625 Z M -21.984375 90.042969 " clip-rule="nonzero"/></clipPath><clipPath id="id53"><path d="M -21.984375 90.042969 L 282.660156 -20.261719 L 396.792969 294.960938 L 92.148438 405.265625 Z M -21.984375 90.042969 " clip-rule="nonzero"/></clipPath><clipPath id="id54"><path d="M 38 221 L 42 221 L 42 225 L 38 225 Z M 38 221 " clip-rule="nonzero"/></clipPath><clipPath id="id55"><path d="M -21.984375 90.042969 L 282.660156 -20.261719 L 396.792969 294.960938 L 92.148438 405.265625 Z M -21.984375 90.042969 " clip-rule="nonzero"/></clipPath><clipPath id="id56"><path d="M -21.984375 90.042969 L 282.660156 -20.261719 L 396.792969 294.960938 L 92.148438 405.265625 Z M -21.984375 90.042969 " clip-rule="nonzero"/></clipPath><clipPath id="id57"><path d="M -21.984375 90.042969 L 282.660156 -20.261719 L 396.792969 294.960938 L 92.148438 405.265625 Z M -21.984375 90.042969 " clip-rule="nonzero"/></clipPath><clipPath id="id58"><path d="M 88 87 L 348 87 L 348 307 L 88 307 Z M 88 87 " clip-rule="nonzero"/></clipPath><clipPath id="id59"><path d="M -21.984375 90.042969 L 282.660156 -20.261719 L 396.792969 294.960938 L 92.148438 405.265625 Z M -21.984375 90.042969 " clip-rule="nonzero"/></clipPath><clipPath id="id60"><path d="M -21.984375 90.042969 L 282.660156 -20.261719 L 396.792969 294.960938 L 92.148438 405.265625 Z M -21.984375 90.042969 " clip-rule="nonzero"/></clipPath><clipPath id="id61"><path d="M -21.984375 90.042969 L 282.660156 -20.261719 L 396.792969 294.960938 L 92.148438 405.265625 Z M -21.984375 90.042969 " clip-rule="nonzero"/></clipPath><clipPath id="id62"><path d="M 77 77 L 348 77 L 348 314 L 77 314 Z M 77 77 " clip-rule="nonzero"/></clipPath><clipPath id="id63"><path d="M -21.984375 90.042969 L 282.660156 -20.261719 L 396.792969 294.960938 L 92.148438 405.265625 Z M -21.984375 90.042969 " clip-rule="nonzero"/></clipPath><clipPath id="id64"><path d="M -21.984375 90.042969 L 282.660156 -20.261719 L 396.792969 294.960938 L 92.148438 405.265625 Z M -21.984375 90.042969 " clip-rule="nonzero"/></clipPath><clipPath id="id65"><path d="M -21.984375 90.042969 L 282.660156 -20.261719 L 396.792969 294.960938 L 92.148438 405.265625 Z M -21.984375 90.042969 " clip-rule="nonzero"/></clipPath><clipPath id="id66"><path d="M 66 67 L 348 67 L 348 321 L 66 321 Z M 66 67 " clip-rule="nonzero"/></clipPath><clipPath id="id67"><path d="M -21.984375 90.042969 L 282.660156 -20.261719 L 396.792969 294.960938 L 92.148438 405.265625 Z M -21.984375 90.042969 " clip-rule="nonzero"/></clipPath><clipPath id="id68"><path d="M -21.984375 90.042969 L 282.660156 -20.261719 L 396.792969 294.960938 L 92.148438 405.265625 Z M -21.984375 90.042969 " clip-rule="nonzero"/></clipPath><clipPath id="id69"><path d="M -21.984375 90.042969 L 282.660156 -20.261719 L 396.792969 294.960938 L 92.148438 405.265625 Z M -21.984375 90.042969 " clip-rule="nonzero"/></clipPath><clipPath id="id70"><path d="M 55 56 L 348 56 L 348 329 L 55 329 Z M 55 56 " clip-rule="nonzero"/></clipPath><clipPath id="id71"><path d="M -21.984375 90.042969 L 282.660156 -20.261719 L 396.792969 294.960938 L 92.148438 405.265625 Z M -21.984375 90.042969 " clip-rule="nonzero"/></clipPath><clipPath id="id72"><path d="M -21.984375 90.042969 L 282.660156 -20.261719 L 396.792969 294.960938 L 92.148438 405.265625 Z M -21.984375 90.042969 " clip-rule="nonzero"/></clipPath><clipPath id="id73"><path d="M -21.984375 90.042969 L 282.660156 -20.261719 L 396.792969 294.960938 L 92.148438 405.265625 Z M -21.984375 90.042969 " clip-rule="nonzero"/></clipPath><clipPath id="id74"><path d="M 45 46 L 348 46 L 348 336 L 45 336 Z M 45 46 " clip-rule="nonzero"/></clipPath><clipPath id="id75"><path d="M -21.984375 90.042969 L 282.660156 -20.261719 L 396.792969 294.960938 L 92.148438 405.265625 Z M -21.984375 90.042969 " clip-rule="nonzero"/></clipPath><clipPath id="id76"><path d="M -21.984375 90.042969 L 282.660156 -20.261719 L 396.792969 294.960938 L 92.148438 405.265625 Z M -21.984375 90.042969 " clip-rule="nonzero"/></clipPath><clipPath id="id77"><path d="M -21.984375 90.042969 L 282.660156 -20.261719 L 396.792969 294.960938 L 92.148438 405.265625 Z M -21.984375 90.042969 " clip-rule="nonzero"/></clipPath><clipPath id="id78"><path d="M 34 36 L 348 36 L 348 343 L 34 343 Z M 34 36 " clip-rule="nonzero"/></clipPath><clipPath id="id79"><path d="M -21.984375 90.042969 L 282.660156 -20.261719 L 396.792969 294.960938 L 92.148438 405.265625 Z M -21.984375 90.042969 " clip-rule="nonzero"/></clipPath><clipPath id="id80"><path d="M -21.984375 90.042969 L 282.660156 -20.261719 L 396.792969 294.960938 L 92.148438 405.265625 Z M -21.984375 90.042969 " clip-rule="nonzero"/></clipPath><clipPath id="id81"><path d="M -21.984375 90.042969 L 282.660156 -20.261719 L 396.792969 294.960938 L 92.148438 405.265625 Z M -21.984375 90.042969 " clip-rule="nonzero"/></clipPath><clipPath id="id82"><path d="M 23 25 L 348 25 L 348 350 L 23 350 Z M 23 25 " clip-rule="nonzero"/></clipPath><clipPath id="id83"><path d="M -21.984375 90.042969 L 282.660156 -20.261719 L 396.792969 294.960938 L 92.148438 405.265625 Z M -21.984375 90.042969 " clip-rule="nonzero"/></clipPath><clipPath id="id84"><path d="M -21.984375 90.042969 L 282.660156 -20.261719 L 396.792969 294.960938 L 92.148438 405.265625 Z M -21.984375 90.042969 " clip-rule="nonzero"/></clipPath><clipPath id="id85"><path d="M -21.984375 90.042969 L 282.660156 -20.261719 L 396.792969 294.960938 L 92.148438 405.265625 Z M -21.984375 90.042969 " clip-rule="nonzero"/></clipPath><clipPath id="id86"><path d="M 129 312 L 160 312 L 160 351 L 129 351 Z M 129 312 " clip-rule="nonzero"/></clipPath><clipPath id="id87"><path d="M -21.984375 90.042969 L 282.660156 -20.261719 L 396.792969 294.960938 L 92.148438 405.265625 Z M -21.984375 90.042969 " clip-rule="nonzero"/></clipPath><clipPath id="id88"><path d="M -21.984375 90.042969 L 282.660156 -20.261719 L 396.792969 294.960938 L 92.148438 405.265625 Z M -21.984375 90.042969 " clip-rule="nonzero"/></clipPath><clipPath id="id89"><path d="M -21.984375 90.042969 L 282.660156 -20.261719 L 396.792969 294.960938 L 92.148438 405.265625 Z M -21.984375 90.042969 " clip-rule="nonzero"/></clipPath><clipPath id="id90"><path d="M 209 323 L 224 323 L 224 359 L 209 359 Z M 209 323 " clip-rule="nonzero"/></clipPath><clipPath id="id91"><path d="M -21.984375 90.042969 L 282.660156 -20.261719 L 396.792969 294.960938 L 92.148438 405.265625 Z M -21.984375 90.042969 " clip-rule="nonzero"/></clipPath><clipPath id="id92"><path d="M -21.984375 90.042969 L 282.660156 -20.261719 L 396.792969 294.960938 L 92.148438 405.265625 Z M -21.984375 90.042969 " clip-rule="nonzero"/></clipPath><clipPath id="id93"><path d="M -21.984375 90.042969 L 282.660156 -20.261719 L 396.792969 294.960938 L 92.148438 405.265625 Z M -21.984375 90.042969 " clip-rule="nonzero"/></clipPath><clipPath id="id94"><path d="M 232 68 L 247 68 L 247 103 L 232 103 Z M 232 68 " clip-rule="nonzero"/></clipPath><clipPath id="id95"><path d="M -21.984375 90.042969 L 282.660156 -20.261719 L 396.792969 294.960938 L 92.148438 405.265625 Z M -21.984375 90.042969 " clip-rule="nonzero"/></clipPath><clipPath id="id96"><path d="M -21.984375 90.042969 L 282.660156 -20.261719 L 396.792969 294.960938 L 92.148438 405.265625 Z M -21.984375 90.042969 " clip-rule="nonzero"/></clipPath><clipPath id="id97"><path d="M -21.984375 90.042969 L 282.660156 -20.261719 L 396.792969 294.960938 L 92.148438 405.265625 Z M -21.984375 90.042969 " clip-rule="nonzero"/></clipPath><clipPath id="id98"><path d="M 99 282 L 122 282 L 122 323 L 99 323 Z M 99 282 " clip-rule="nonzero"/></clipPath><clipPath id="id99"><path d="M -21.984375 90.042969 L 282.660156 -20.261719 L 396.792969 294.960938 L 92.148438 405.265625 Z M -21.984375 90.042969 " clip-rule="nonzero"/></clipPath><clipPath id="id100"><path d="M -21.984375 90.042969 L 282.660156 -20.261719 L 396.792969 294.960938 L 92.148438 405.265625 Z M -21.984375 90.042969 " clip-rule="nonzero"/></clipPath><clipPath id="id101"><path d="M -21.984375 90.042969 L 282.660156 -20.261719 L 396.792969 294.960938 L 92.148438 405.265625 Z M -21.984375 90.042969 " clip-rule="nonzero"/></clipPath><clipPath id="id102"><path d="M 52 83 L 108 83 L 108 147 L 52 147 Z M 52 83 " clip-rule="nonzero"/></clipPath><clipPath id="id103"><path d="M -21.984375 90.042969 L 282.660156 -20.261719 L 396.792969 294.960938 L 92.148438 405.265625 Z M -21.984375 90.042969 " clip-rule="nonzero"/></clipPath><clipPath id="id104"><path d="M -21.984375 90.042969 L 282.660156 -20.261719 L 396.792969 294.960938 L 92.148438 405.265625 Z M -21.984375 90.042969 " clip-rule="nonzero"/></clipPath><clipPath id="id105"><path d="M -21.984375 90.042969 L 282.660156 -20.261719 L 396.792969 294.960938 L 92.148438 405.265625 Z M -21.984375 90.042969 " clip-rule="nonzero"/></clipPath><clipPath id="id106"><path d="M 231 292 L 269 292 L 269 327 L 231 327 Z M 231 292 " clip-rule="nonzero"/></clipPath><clipPath id="id107"><path d="M -21.984375 90.042969 L 282.660156 -20.261719 L 396.792969 294.960938 L 92.148438 405.265625 Z M -21.984375 90.042969 " clip-rule="nonzero"/></clipPath><clipPath id="id108"><path d="M -21.984375 90.042969 L 282.660156 -20.261719 L 396.792969 294.960938 L 92.148438 405.265625 Z M -21.984375 90.042969 " clip-rule="nonzero"/></clipPath><clipPath id="id109"><path d="M -21.984375 90.042969 L 282.660156 -20.261719 L 396.792969 294.960938 L 92.148438 405.265625 Z M -21.984375 90.042969 " clip-rule="nonzero"/></clipPath><clipPath id="id110"><path d="M 55 211 L 95 211 L 95 245 L 55 245 Z M 55 211 " clip-rule="nonzero"/></clipPath><clipPath id="id111"><path d="M -21.984375 90.042969 L 282.660156 -20.261719 L 396.792969 294.960938 L 92.148438 405.265625 Z M -21.984375 90.042969 " clip-rule="nonzero"/></clipPath><clipPath id="id112"><path d="M -21.984375 90.042969 L 282.660156 -20.261719 L 396.792969 294.960938 L 92.148438 405.265625 Z M -21.984375 90.042969 " clip-rule="nonzero"/></clipPath><clipPath id="id113"><path d="M -21.984375 90.042969 L 282.660156 -20.261719 L 396.792969 294.960938 L 92.148438 405.265625 Z M -21.984375 90.042969 " clip-rule="nonzero"/></clipPath><clipPath id="id114"><path d="M 259 80 L 295 80 L 295 111 L 259 111 Z M 259 80 " clip-rule="nonzero"/></clipPath><clipPath id="id115"><path d="M -21.984375 90.042969 L 282.660156 -20.261719 L 396.792969 294.960938 L 92.148438 405.265625 Z M -21.984375 90.042969 " clip-rule="nonzero"/></clipPath><clipPath id="id116"><path d="M -21.984375 90.042969 L 282.660156 -20.261719 L 396.792969 294.960938 L 92.148438 405.265625 Z M -21.984375 90.042969 " clip-rule="nonzero"/></clipPath><clipPath id="id117"><path d="M -21.984375 90.042969 L 282.660156 -20.261719 L 396.792969 294.960938 L 92.148438 405.265625 Z M -21.984375 90.042969 " clip-rule="nonzero"/></clipPath><clipPath id="id118"><path d="M 20 169 L 59 169 L 59 197 L 20 197 Z M 20 169 " clip-rule="nonzero"/></clipPath><clipPath id="id119"><path d="M -21.984375 90.042969 L 282.660156 -20.261719 L 396.792969 294.960938 L 92.148438 405.265625 Z M -21.984375 90.042969 " clip-rule="nonzero"/></clipPath><clipPath id="id120"><path d="M -21.984375 90.042969 L 282.660156 -20.261719 L 396.792969 294.960938 L 92.148438 405.265625 Z M -21.984375 90.042969 " clip-rule="nonzero"/></clipPath><clipPath id="id121"><path d="M -21.984375 90.042969 L 282.660156 -20.261719 L 396.792969 294.960938 L 92.148438 405.265625 Z M -21.984375 90.042969 " clip-rule="nonzero"/></clipPath><clipPath id="id122"><path d="M 166 297 L 188 297 L 188 338 L 166 338 Z M 166 297 " clip-rule="nonzero"/></clipPath><clipPath id="id123"><path d="M -21.984375 90.042969 L 282.660156 -20.261719 L 396.792969 294.960938 L 92.148438 405.265625 Z M -21.984375 90.042969 " clip-rule="nonzero"/></clipPath><clipPath id="id124"><path d="M -21.984375 90.042969 L 282.660156 -20.261719 L 396.792969 294.960938 L 92.148438 405.265625 Z M -21.984375 90.042969 " clip-rule="nonzero"/></clipPath><clipPath id="id125"><path d="M -21.984375 90.042969 L 282.660156 -20.261719 L 396.792969 294.960938 L 92.148438 405.265625 Z M -21.984375 90.042969 " clip-rule="nonzero"/></clipPath><clipPath id="id126"><path d="M 179 8 L 217 8 L 217 97 L 179 97 Z M 179 8 " clip-rule="nonzero"/></clipPath><clipPath id="id127"><path d="M -21.984375 90.042969 L 282.660156 -20.261719 L 396.792969 294.960938 L 92.148438 405.265625 Z M -21.984375 90.042969 " clip-rule="nonzero"/></clipPath><clipPath id="id128"><path d="M -21.984375 90.042969 L 282.660156 -20.261719 L 396.792969 294.960938 L 92.148438 405.265625 Z M -21.984375 90.042969 " clip-rule="nonzero"/></clipPath><clipPath id="id129"><path d="M -21.984375 90.042969 L 282.660156 -20.261719 L 396.792969 294.960938 L 92.148438 405.265625 Z M -21.984375 90.042969 " clip-rule="nonzero"/></clipPath><clipPath id="id130"><path d="M 126 60 L 149 60 L 149 91 L 126 91 Z M 126 60 " clip-rule="nonzero"/></clipPath><clipPath id="id131"><path d="M -21.984375 90.042969 L 282.660156 -20.261719 L 396.792969 294.960938 L 92.148438 405.265625 Z M -21.984375 90.042969 " clip-rule="nonzero"/></clipPath><clipPath id="id132"><path d="M -21.984375 90.042969 L 282.660156 -20.261719 L 396.792969 294.960938 L 92.148438 405.265625 Z M -21.984375 90.042969 " clip-rule="nonzero"/></clipPath><clipPath id="id133"><path d="M -21.984375 90.042969 L 282.660156 -20.261719 L 396.792969 294.960938 L 92.148438 405.265625 Z M -21.984375 90.042969 " clip-rule="nonzero"/></clipPath><clipPath id="id134"><path d="M 145 57 L 150 57 L 150 63 L 145 63 Z M 145 57 " clip-rule="nonzero"/></clipPath><clipPath id="id135"><path d="M -21.984375 90.042969 L 282.660156 -20.261719 L 396.792969 294.960938 L 92.148438 405.265625 Z M -21.984375 90.042969 " clip-rule="nonzero"/></clipPath><clipPath id="id136"><path d="M -21.984375 90.042969 L 282.660156 -20.261719 L 396.792969 294.960938 L 92.148438 405.265625 Z M -21.984375 90.042969 " clip-rule="nonzero"/></clipPath><clipPath id="id137"><path d="M -21.984375 90.042969 L 282.660156 -20.261719 L 396.792969 294.960938 L 92.148438 405.265625 Z M -21.984375 90.042969 " clip-rule="nonzero"/></clipPath><clipPath id="id138"><path d="M 147 65 L 153 65 L 153 70 L 147 70 Z M 147 65 " clip-rule="nonzero"/></clipPath><clipPath id="id139"><path d="M -21.984375 90.042969 L 282.660156 -20.261719 L 396.792969 294.960938 L 92.148438 405.265625 Z M -21.984375 90.042969 " clip-rule="nonzero"/></clipPath><clipPath id="id140"><path d="M -21.984375 90.042969 L 282.660156 -20.261719 L 396.792969 294.960938 L 92.148438 405.265625 Z M -21.984375 90.042969 " clip-rule="nonzero"/></clipPath><clipPath id="id141"><path d="M -21.984375 90.042969 L 282.660156 -20.261719 L 396.792969 294.960938 L 92.148438 405.265625 Z M -21.984375 90.042969 " clip-rule="nonzero"/></clipPath><mask id="id142"><g filter="url(#id1)"><rect x="-37.5" width="450" fill="#000000" y="-37.499999" height="449.999989" fill-opacity="0.498"/></g></mask><clipPath id="id143"><path d="M 45 157 L 61 157 L 61 172 L 45 172 Z M 45 157 " clip-rule="nonzero"/></clipPath><clipPath id="id144"><path d="M -9.054688 5.539062 L 96.417969 -2.132812 L 109.75 181.132812 L 4.277344 188.804688 Z M -9.054688 5.539062 " clip-rule="nonzero"/></clipPath><clipPath id="id145"><path d="M -9.054688 5.539062 L 96.417969 -2.132812 L 109.75 181.132812 L 4.277344 188.804688 Z M -9.054688 5.539062 " clip-rule="nonzero"/></clipPath><clipPath id="id146"><path d="M 7 6 L 78 6 L 78 180 L 7 180 Z M 7 6 " clip-rule="nonzero"/></clipPath><clipPath id="id147"><path d="M -9.054688 5.539062 L 96.417969 -2.132812 L 109.75 181.132812 L 4.277344 188.804688 Z M -9.054688 5.539062 " clip-rule="nonzero"/></clipPath><clipPath id="id148"><path d="M -9.054688 5.539062 L 96.417969 -2.132812 L 109.75 181.132812 L 4.277344 188.804688 Z M -9.054688 5.539062 " clip-rule="nonzero"/></clipPath><clipPath id="id149"><path d="M 63 11 L 71 11 L 71 63 L 63 63 Z M 63 11 " clip-rule="nonzero"/></clipPath><clipPath id="id150"><path d="M -9.054688 5.539062 L 96.417969 -2.132812 L 109.75 181.132812 L 4.277344 188.804688 Z M -9.054688 5.539062 " clip-rule="nonzero"/></clipPath><clipPath id="id151"><path d="M -9.054688 5.539062 L 96.417969 -2.132812 L 109.75 181.132812 L 4.277344 188.804688 Z M -9.054688 5.539062 " clip-rule="nonzero"/></clipPath><clipPath id="id152"><path d="M 53 57 L 72 57 L 72 73 L 53 73 Z M 53 57 " clip-rule="nonzero"/></clipPath><clipPath id="id153"><path d="M -9.054688 5.539062 L 96.417969 -2.132812 L 109.75 181.132812 L 4.277344 188.804688 Z M -9.054688 5.539062 " clip-rule="nonzero"/></clipPath><clipPath id="id154"><path d="M -9.054688 5.539062 L 96.417969 -2.132812 L 109.75 181.132812 L 4.277344 188.804688 Z M -9.054688 5.539062 " clip-rule="nonzero"/></clipPath><clipPath id="id155"><path d="M 63 10 L 82 10 L 82 45 L 63 45 Z M 63 10 " clip-rule="nonzero"/></clipPath><clipPath id="id156"><path d="M -9.054688 5.539062 L 96.417969 -2.132812 L 109.75 181.132812 L 4.277344 188.804688 Z M -9.054688 5.539062 " clip-rule="nonzero"/></clipPath><clipPath id="id157"><path d="M -9.054688 5.539062 L 96.417969 -2.132812 L 109.75 181.132812 L 4.277344 188.804688 Z M -9.054688 5.539062 " clip-rule="nonzero"/></clipPath><clipPath id="id158"><path d="M 80 59 L 88 59 L 88 85 L 80 85 Z M 80 59 " clip-rule="nonzero"/></clipPath><clipPath id="id159"><path d="M -9.054688 5.539062 L 96.417969 -2.132812 L 109.75 181.132812 L 4.277344 188.804688 Z M -9.054688 5.539062 " clip-rule="nonzero"/></clipPath><clipPath id="id160"><path d="M -9.054688 5.539062 L 96.417969 -2.132812 L 109.75 181.132812 L 4.277344 188.804688 Z M -9.054688 5.539062 " clip-rule="nonzero"/></clipPath><clipPath id="id161"><path d="M 94 62 L 102 62 L 102 88 L 94 88 Z M 94 62 " clip-rule="nonzero"/></clipPath><clipPath id="id162"><path d="M -9.054688 5.539062 L 96.417969 -2.132812 L 109.75 181.132812 L 4.277344 188.804688 Z M -9.054688 5.539062 " clip-rule="nonzero"/></clipPath><clipPath id="id163"><path d="M -9.054688 5.539062 L 96.417969 -2.132812 L 109.75 181.132812 L 4.277344 188.804688 Z M -9.054688 5.539062 " clip-rule="nonzero"/></clipPath><clipPath id="id164"><path d="M 84 59 L 102 59 L 102 69 L 84 69 Z M 84 59 " clip-rule="nonzero"/></clipPath><clipPath id="id165"><path d="M -9.054688 5.539062 L 96.417969 -2.132812 L 109.75 181.132812 L 4.277344 188.804688 Z M -9.054688 5.539062 " clip-rule="nonzero"/></clipPath><clipPath id="id166"><path d="M -9.054688 5.539062 L 96.417969 -2.132812 L 109.75 181.132812 L 4.277344 188.804688 Z M -9.054688 5.539062 " clip-rule="nonzero"/></clipPath><clipPath id="id167"><path d="M 84 65 L 100 65 L 100 71 L 84 71 Z M 84 65 " clip-rule="nonzero"/></clipPath><clipPath id="id168"><path d="M -9.054688 5.539062 L 96.417969 -2.132812 L 109.75 181.132812 L 4.277344 188.804688 Z M -9.054688 5.539062 " clip-rule="nonzero"/></clipPath><clipPath id="id169"><path d="M -9.054688 5.539062 L 96.417969 -2.132812 L 109.75 181.132812 L 4.277344 188.804688 Z M -9.054688 5.539062 " clip-rule="nonzero"/></clipPath><clipPath id="id170"><path d="M 73 81 L 83 81 L 83 88 L 73 88 Z M 73 81 " clip-rule="nonzero"/></clipPath><clipPath id="id171"><path d="M -9.054688 5.539062 L 96.417969 -2.132812 L 109.75 181.132812 L 4.277344 188.804688 Z M -9.054688 5.539062 " clip-rule="nonzero"/></clipPath><clipPath id="id172"><path d="M -9.054688 5.539062 L 96.417969 -2.132812 L 109.75 181.132812 L 4.277344 188.804688 Z M -9.054688 5.539062 " clip-rule="nonzero"/></clipPath><clipPath id="id173"><path d="M 86 84 L 97 84 L 97 91 L 86 91 Z M 86 84 " clip-rule="nonzero"/></clipPath><clipPath id="id174"><path d="M -9.054688 5.539062 L 96.417969 -2.132812 L 109.75 181.132812 L 4.277344 188.804688 Z M -9.054688 5.539062 " clip-rule="nonzero"/></clipPath><clipPath id="id175"><path d="M -9.054688 5.539062 L 96.417969 -2.132812 L 109.75 181.132812 L 4.277344 188.804688 Z M -9.054688 5.539062 " clip-rule="nonzero"/></clipPath><clipPath id="id176"><rect x="0" width="110" y="0" height="184"/></clipPath></defs><path fill="#008037" d="M 187.5 0 C 83.945312 0 0 83.945312 0 187.5 C 0 291.054688 83.945312 375 187.5 375 C 291.054688 375 375 291.054688 375 187.5 C 375 83.945312 291.054688 0 187.5 0 " fill-opacity="1" fill-rule="nonzero"/><g clip-path="url(#id2)"><g clip-path="url(#id3)"><g clip-path="url(#id4)"><g clip-path="url(#id5)"><path fill="#918f8f" d="M 24.007812 146.515625 L 27.636719 148.644531 L 42.238281 157.167969 C 41.175781 158.128906 40.480469 159.753906 40.476562 161.589844 C 40.480469 164.546875 42.273438 166.941406 44.492188 166.9375 C 46.710938 166.945312 48.511719 164.550781 48.511719 161.597656 C 48.511719 159.316406 47.4375 157.371094 45.929688 156.605469 L 45.933594 156.59375 L 29.332031 146.894531 L 41.335938 134.542969 L 56.023438 143.128906 C 54.960938 144.085938 54.261719 145.710938 54.261719 147.546875 C 54.257812 150.496094 56.058594 152.898438 58.277344 152.894531 C 60.492188 152.898438 62.292969 150.507812 62.292969 147.554688 C 62.296875 145.273438 61.222656 143.328125 59.710938 142.558594 L 59.714844 142.550781 L 43.027344 132.796875 L 38.980469 130.433594 L 37.050781 129.304688 L 21.660156 145.140625 L 24.007812 146.515625 " fill-opacity="1" fill-rule="nonzero"/></g></g></g></g><g clip-path="url(#id6)"><g clip-path="url(#id7)"><g clip-path="url(#id8)"><g clip-path="url(#id9)"><path fill="#918f8f" d="M 136.058594 300.828125 C 137.457031 298.296875 136.90625 294.578125 135.648438 291.863281 C 135.648438 291.863281 139.25 292.171875 140.367188 289.460938 C 141.488281 286.753906 138.964844 283.863281 138.964844 283.863281 C 138.964844 283.863281 138.496094 287.246094 136.78125 288.585938 C 135.078125 289.921875 132.601562 289.773438 131.214844 289.351562 C 131.214844 289.351562 134.40625 293.914062 131.867188 297.527344 C 129.933594 300.277344 125.636719 299.390625 124.054688 302.78125 C 122.09375 306.964844 126.1875 309.929688 127.199219 310.347656 C 127.199219 310.347656 126.199219 308.683594 127.835938 306.992188 C 129.976562 304.785156 134.226562 304.136719 136.058594 300.828125 " fill-opacity="1" fill-rule="nonzero"/></g></g></g></g><g clip-path="url(#id10)"><g clip-path="url(#id11)"><g clip-path="url(#id12)"><g clip-path="url(#id13)"><path fill="#918f8f" d="M 245.214844 69.269531 C 244.585938 72.597656 246.554688 76.53125 248.945312 79.085938 C 248.945312 79.085938 244.832031 80.050781 244.574219 83.472656 C 244.324219 86.894531 248.179688 89.179688 248.179688 89.179688 C 248.179688 89.179688 247.46875 85.253906 248.875 83.140625 C 250.28125 81.027344 253.09375 80.292969 254.78125 80.25 C 254.78125 80.25 249.574219 76.347656 251.074219 71.410156 C 252.21875 67.648438 257.3125 67.054688 257.835938 62.710938 C 258.484375 57.34375 252.855469 55.546875 251.578125 55.453125 C 251.578125 55.453125 253.300781 56.941406 252.097656 59.417969 C 250.523438 62.644531 246.042969 64.921875 245.214844 69.269531 " fill-opacity="1" fill-rule="nonzero"/></g></g></g></g><g clip-path="url(#id14)"><g clip-path="url(#id15)"><g clip-path="url(#id16)"><g clip-path="url(#id17)"><path fill="#918f8f" d="M 79.65625 177.226562 C 78.40625 174.46875 79.058594 172.660156 79.785156 172.21875 C 80.867188 171.558594 83.722656 172.050781 85.039062 175.382812 C 85.722656 177.132812 85.726562 178.753906 85.128906 179.914062 L 80.941406 179.507812 C 80.554688 178.875 80.03125 178.058594 79.65625 177.226562 Z M 86.203125 175.078125 C 84.164062 169.214844 80.121094 167.789062 77.988281 169.292969 C 75.832031 170.820312 75.941406 175.148438 77.433594 177.785156 C 77.707031 178.269531 78.011719 178.765625 78.335938 179.257812 L 60.242188 177.5 L 60.0625 179.390625 L 86.535156 181.957031 L 86.683594 180.441406 C 86.921875 178.410156 86.839844 176.890625 86.203125 175.078125 " fill-opacity="1" fill-rule="nonzero"/></g></g></g></g><g clip-path="url(#id18)"><g clip-path="url(#id19)"><g clip-path="url(#id20)"><g clip-path="url(#id21)"><path fill="#918f8f" d="M 275.632812 293.984375 L 280.847656 309.101562 L 281.210938 308.972656 L 281.210938 308.976562 L 309.730469 299.140625 L 309.851562 299.09375 L 305.273438 285.804688 C 306.222656 285.78125 307.277344 285.265625 308.078125 284.34375 C 309.359375 282.851562 309.488281 280.863281 308.367188 279.898438 C 307.25 278.933594 305.304688 279.359375 304.023438 280.847656 C 303.03125 282 302.734375 283.445312 303.164062 284.488281 L 303.15625 284.492188 L 307.171875 296.132812 L 294.894531 300.371094 L 291.511719 290.554688 C 292.464844 290.527344 293.515625 290.015625 294.3125 289.085938 C 295.59375 287.601562 295.730469 285.609375 294.609375 284.644531 C 293.488281 283.683594 291.542969 284.105469 290.261719 285.597656 C 289.277344 286.746094 288.972656 288.191406 289.402344 289.234375 L 289.394531 289.234375 L 293.410156 300.882812 L 281.136719 305.117188 L 277.75 295.296875 C 278.703125 295.273438 279.753906 294.757812 280.558594 293.832031 C 281.832031 292.34375 281.964844 290.355469 280.847656 289.390625 C 279.726562 288.425781 277.78125 288.851562 276.503906 290.339844 C 275.515625 291.492188 275.210938 292.9375 275.640625 293.980469 L 275.632812 293.984375 " fill-opacity="1" fill-rule="nonzero"/></g></g></g></g><g clip-path="url(#id22)"><g clip-path="url(#id23)"><g clip-path="url(#id24)"><g clip-path="url(#id25)"><path fill="#918f8f" d="M 89.304688 66.832031 L 87.339844 64.417969 L 102.097656 52.382812 L 104.0625 54.796875 Z M 98.695312 48.203125 L 83.9375 60.242188 L 82.300781 61.570312 L 82.152344 61.695312 L 95.167969 77.679688 C 93.867188 78.195312 92.679688 79.433594 92.046875 81.117188 C 91.035156 83.816406 91.859375 86.617188 93.886719 87.382812 C 95.917969 88.140625 98.378906 86.570312 99.386719 83.875 C 100.171875 81.792969 99.855469 79.644531 98.734375 78.425781 L 98.746094 78.417969 L 90.449219 68.238281 L 105.207031 56.195312 L 111.710938 64.183594 C 110.414062 64.699219 109.222656 65.941406 108.589844 67.621094 C 107.578125 70.316406 108.402344 73.125 110.429688 73.886719 C 112.460938 74.648438 114.917969 73.078125 115.929688 70.378906 C 116.714844 68.292969 116.394531 66.15625 115.28125 64.933594 L 115.289062 64.925781 L 100.480469 46.746094 L 99.433594 47.597656 L 98.695312 48.203125 " fill-opacity="1" fill-rule="nonzero"/></g></g></g></g><g clip-path="url(#id26)"><g clip-path="url(#id27)"><g clip-path="url(#id28)"><g clip-path="url(#id29)"><path fill="#918f8f" d="M 167.523438 40.535156 L 159.15625 43.195312 L 158.480469 37.976562 L 166.84375 35.320312 Z M 167.527344 25.714844 L 165.621094 25.960938 L 166.335938 31.429688 L 157.972656 34.082031 L 157.058594 27.078125 L 155.152344 27.324219 L 156.113281 34.675781 L 150.140625 36.570312 L 150.648438 40.464844 L 156.617188 38.566406 L 157.296875 43.78125 L 151.332031 45.675781 L 151.835938 49.570312 L 157.808594 47.675781 L 158.535156 53.234375 L 160.4375 52.984375 L 159.667969 47.085938 L 168.03125 44.433594 L 169 51.871094 L 170.902344 51.625 L 169.886719 43.835938 L 173.511719 42.683594 L 173.003906 38.792969 L 169.382812 39.949219 L 168.699219 34.734375 L 172.324219 33.578125 L 171.816406 29.6875 L 168.191406 30.835938 L 167.527344 25.714844 " fill-opacity="1" fill-rule="nonzero"/></g></g></g></g><g clip-path="url(#id30)"><g clip-path="url(#id31)"><g clip-path="url(#id32)"><g clip-path="url(#id33)"><path fill="#918f8f" d="M 195.253906 326.964844 C 196.738281 326.394531 198.246094 326.246094 199.578125 326.457031 C 201.4375 326.757812 202.945312 327.761719 203.546875 329.320312 C 204.578125 331.988281 202.539062 335.265625 198.992188 336.632812 C 197.511719 337.207031 196 337.359375 194.667969 337.140625 C 192.808594 336.847656 191.296875 335.835938 190.699219 334.285156 C 189.667969 331.617188 191.703125 328.335938 195.253906 326.964844 Z M 183.671875 362.667969 L 186.679688 363.152344 L 190.78125 337.484375 C 191.753906 338.261719 192.972656 338.808594 194.363281 339.035156 C 196.085938 339.3125 197.925781 339.097656 199.683594 338.421875 C 201.78125 337.609375 203.53125 336.207031 204.613281 334.476562 C 205.777344 332.597656 206.039062 330.464844 205.332031 328.628906 C 204.507812 326.5 202.46875 324.984375 199.882812 324.570312 C 198.15625 324.292969 196.320312 324.5 194.5625 325.179688 C 192.464844 325.988281 190.714844 327.390625 189.632812 329.125 C 189.046875 330.074219 188.6875 331.09375 188.570312 332.097656 L 188.5625 332.09375 L 183.671875 362.667969 " fill-opacity="1" fill-rule="nonzero"/></g></g></g></g><g clip-path="url(#id34)"><g clip-path="url(#id35)"><g clip-path="url(#id36)"><g clip-path="url(#id37)"><path fill="#918f8f" d="M 75.402344 309.421875 C 76.375 312.542969 75.523438 317.429688 75.097656 319.441406 L 74.890625 320.351562 L 89.914062 303.308594 C 90.570312 304.410156 91.867188 305.300781 93.480469 305.621094 C 96.066406 306.128906 98.472656 304.96875 98.855469 303.027344 C 99.238281 301.078125 97.453125 299.085938 94.867188 298.578125 C 92.867188 298.179688 90.988281 298.785156 90.050781 299.976562 L 90.042969 299.96875 L 80.789062 310.476562 C 80.753906 309.757812 80.644531 308.898438 80.390625 308.058594 C 79.644531 305.636719 77.875 303.109375 78.613281 301.941406 C 78.613281 301.941406 77.109375 303.445312 78.742188 307.078125 C 79.378906 308.488281 79.425781 310.65625 79.371094 312.078125 L 77.695312 313.980469 C 77.671875 312.855469 77.5625 311.503906 77.222656 310.441406 C 76.527344 308.234375 74.648438 304.769531 75.621094 303.679688 C 75.621094 303.679688 73.910156 304.628906 75.402344 309.421875 " fill-opacity="1" fill-rule="nonzero"/></g></g></g></g><g clip-path="url(#id38)"><g clip-path="url(#id39)"><g clip-path="url(#id40)"><g clip-path="url(#id41)"><path fill="#918f8f" d="M 282.425781 137.996094 C 284.945312 138.78125 287.453125 138.257812 288.820312 136.851562 L 288.828125 136.863281 L 307.207031 120.011719 C 307.324219 121.191406 307.464844 122.6875 307.578125 124.105469 C 308.0625 130.066406 308.113281 134.355469 305.390625 134.265625 C 305.390625 134.265625 310.824219 136.648438 311.015625 125.679688 C 311.121094 119.507812 311.117188 112.71875 311.117188 112.71875 L 289.453125 132.585938 C 288.757812 131.082031 287.207031 129.753906 285.183594 129.125 C 281.925781 128.113281 278.664062 129.273438 277.910156 131.722656 C 277.148438 134.171875 279.167969 136.984375 282.425781 137.996094 " fill-opacity="1" fill-rule="nonzero"/></g></g></g></g><g clip-path="url(#id42)"><g clip-path="url(#id43)"><g clip-path="url(#id44)"><g clip-path="url(#id45)"><path fill="#918f8f" d="M 84.605469 255.222656 C 81.671875 259.039062 78.8125 262.917969 76.054688 266.8125 C 74.9375 265.875 74.171875 264.589844 73.828125 263.433594 C 73.128906 261.054688 73.726562 258.664062 75.054688 257.078125 C 76.796875 255.003906 80.992188 253.421875 84.605469 255.222656 Z M 86.535156 256.578125 C 91.027344 260.898438 92.820312 267.035156 88.566406 272.289062 C 84.730469 277.023438 79.675781 277.703125 72.421875 274.6875 C 73.390625 273.382812 74.359375 272.054688 75.300781 270.761719 C 78.417969 272.941406 81.554688 272.457031 84.808594 269.375 C 86.4375 267.835938 88.480469 264.085938 86.074219 261.261719 C 86.074219 261.261719 85.773438 266.179688 81.972656 267.675781 C 80.25 268.351562 78.742188 268.238281 77.496094 267.707031 C 80.304688 263.789062 82.398438 260.789062 82.398438 260.789062 C 82.398438 260.789062 84.070312 258.578125 85.972656 256.101562 C 86.160156 256.253906 86.351562 256.402344 86.535156 256.578125 Z M 65.421875 280.011719 C 64.1875 281.464844 62.691406 283.078125 60.691406 284.613281 C 58.898438 285.996094 57.117188 286.433594 56.714844 286.152344 C 56.308594 285.878906 55.683594 284.378906 56.265625 282.085938 C 56.546875 280.992188 57.679688 279.335938 58.828125 278.210938 C 60.578125 276.507812 62.402344 275.59375 64.78125 275.789062 C 65.917969 275.878906 67.117188 276.191406 68.300781 276.574219 C 67.132812 277.984375 66.085938 279.234375 65.421875 280.011719 Z M 70.292969 260.132812 C 69.554688 263.449219 71.46875 267.253906 73.945312 269.636719 C 73.039062 270.78125 71.808594 272.300781 70.539062 273.847656 C 70.371094 273.769531 70.203125 273.695312 70.027344 273.609375 C 63.464844 270.386719 55.234375 275.308594 54.285156 281.648438 C 53.847656 284.550781 54.800781 287.433594 56 288.066406 C 57.199219 288.695312 61.070312 288.675781 65.488281 283.589844 C 66.808594 282.070312 68.570312 279.824219 70.449219 277.328125 C 70.914062 277.5 71.367188 277.667969 71.796875 277.828125 C 75.542969 279.183594 78.304688 280.566406 82.394531 279.753906 C 85.980469 279.046875 89.25 276.089844 91.105469 273.011719 C 94.824219 266.839844 91.714844 259.351562 86.65625 255.21875 C 88.421875 252.929688 90.25 250.617188 91.039062 249.746094 C 92.90625 247.707031 94.484375 244.96875 98.175781 246.050781 C 99.800781 246.527344 100.757812 247.523438 101.117188 248.691406 C 99.878906 247.902344 98.214844 248.109375 97.21875 249.25 C 96.117188 250.515625 96.246094 252.433594 97.507812 253.539062 C 98.769531 254.640625 100.6875 254.515625 101.789062 253.253906 C 101.941406 253.082031 102.058594 252.902344 102.164062 252.710938 C 103.117188 251.171875 103.074219 249.546875 102.742188 248.464844 C 101.921875 245.792969 99.144531 243.59375 95.621094 244.347656 C 93.273438 244.847656 91.582031 246.449219 89.730469 248.722656 C 88.25 250.542969 86.792969 252.394531 85.339844 254.269531 C 82.890625 252.75 79.886719 252.199219 77.101562 253.152344 C 74.175781 254.15625 71.136719 256.355469 70.292969 260.132812 " fill-opacity="1" fill-rule="nonzero"/></g></g></g></g><g clip-path="url(#id46)"><g clip-path="url(#id47)"><g clip-path="url(#id48)"><g clip-path="url(#id49)"><path fill="#918f8f" d="M 38.804688 235.109375 C 39.976562 236.945312 42.164062 238.585938 45.109375 238.355469 C 45.328125 238.355469 45.546875 238.328125 45.765625 238.277344 L 45.800781 238.273438 L 45.796875 238.269531 C 46.15625 238.1875 46.503906 238.046875 46.835938 237.839844 C 48.382812 236.847656 48.835938 234.789062 47.839844 233.234375 C 46.851562 231.683594 44.792969 231.226562 43.246094 232.21875 C 42.195312 232.890625 41.652344 234.050781 41.714844 235.214844 C 40.316406 232.226562 40.75 229.117188 44.371094 226.632812 C 47.082031 224.773438 53.234375 224.46875 58.695312 231.042969 C 52.636719 220.707031 44.957031 222.15625 41.378906 224.445312 C 37.699219 226.800781 36.542969 231.574219 38.804688 235.109375 " fill-opacity="1" fill-rule="nonzero"/></g></g></g></g><g clip-path="url(#id50)"><g clip-path="url(#id51)"><g clip-path="url(#id52)"><g clip-path="url(#id53)"><path fill="#918f8f" d="M 34.289062 226.476562 C 34.765625 227.226562 35.761719 227.441406 36.511719 226.96875 C 37.257812 226.488281 37.476562 225.492188 36.996094 224.746094 C 36.515625 223.992188 35.523438 223.773438 34.773438 224.25 C 34.027344 224.734375 33.808594 225.726562 34.289062 226.476562 " fill-opacity="1" fill-rule="nonzero"/></g></g></g></g><g clip-path="url(#id54)"><g clip-path="url(#id55)"><g clip-path="url(#id56)"><g clip-path="url(#id57)"><path fill="#918f8f" d="M 38.855469 223.550781 C 39.335938 224.304688 40.328125 224.519531 41.078125 224.042969 C 41.824219 223.5625 42.042969 222.566406 41.5625 221.820312 C 41.082031 221.074219 40.089844 220.847656 39.339844 221.328125 C 38.59375 221.808594 38.375 222.804688 38.855469 223.550781 " fill-opacity="1" fill-rule="nonzero"/></g></g></g></g><g clip-path="url(#id58)"><g clip-path="url(#id59)"><g clip-path="url(#id60)"><g clip-path="url(#id61)"><path fill="#231f20" d="M 346.417969 184.804688 C 345.894531 234.773438 317.363281 280.167969 270.796875 297.03125 C 240.140625 308.128906 203.386719 308.707031 170.894531 297.054688 C 138.40625 285.398438 110.191406 261.546875 96.5 223.742188 C 83.921875 188.996094 88.386719 160.550781 101.257812 138.832031 C 114.132812 117.109375 135.46875 102.109375 156.664062 94.433594 C 160.421875 93.074219 164.175781 91.945312 167.875 91.050781 C 194.984375 84.476562 219.6875 90.730469 239.914062 104.847656 C 260.136719 118.96875 275.855469 140.980469 284.875 165.886719 C 285.46875 167.527344 286.035156 169.1875 286.570312 170.851562 C 286.65625 171.125 286.945312 171.269531 287.214844 171.1875 C 287.484375 171.097656 287.632812 170.808594 287.546875 170.539062 C 287.007812 168.859375 286.4375 167.191406 285.835938 165.535156 C 276.753906 140.453125 260.925781 118.273438 240.5 104.007812 C 220.078125 89.742188 195.03125 83.40625 167.632812 90.050781 C 163.898438 90.957031 160.105469 92.097656 156.316406 93.46875 C 134.933594 101.21875 113.40625 116.335938 100.375 138.304688 C 87.34375 160.277344 82.859375 189.109375 95.535156 224.09375 C 109.332031 262.203125 137.820312 286.292969 170.550781 298.023438 C 203.28125 309.757812 240.257812 309.175781 271.144531 297.996094 C 318.15625 280.96875 346.921875 235.15625 347.441406 184.816406 C 347.445312 184.535156 347.21875 184.300781 346.9375 184.296875 C 346.648438 184.296875 346.421875 184.523438 346.417969 184.804688 " fill-opacity="1" fill-rule="nonzero"/></g></g></g></g><g clip-path="url(#id62)"><g clip-path="url(#id63)"><g clip-path="url(#id64)"><g clip-path="url(#id65)"><path fill="#231f20" d="M 297.003906 168.070312 C 296.097656 165.125 294.957031 161.605469 293.726562 158.203125 C 293.140625 156.582031 292.535156 154.996094 291.917969 153.503906 C 281.105469 127.222656 262.8125 105.195312 240.054688 91.675781 C 217.300781 78.152344 190.058594 73.152344 161.429688 80.933594 C 158.472656 81.746094 155.515625 82.6875 152.574219 83.753906 C 128.066406 92.628906 104.601562 110.179688 90.558594 134.683594 C 76.515625 159.1875 71.9375 190.660156 85.179688 227.21875 C 99.21875 265.988281 128.09375 291.386719 161.625 304.09375 C 195.15625 316.808594 233.339844 316.871094 266.089844 305.019531 C 316.394531 286.800781 347.21875 238.03125 347.464844 184.863281 C 347.460938 184.578125 347.234375 184.347656 346.953125 184.347656 C 346.667969 184.34375 346.4375 184.570312 346.4375 184.855469 C 346.191406 237.640625 315.605469 286 265.742188 304.054688 C 233.234375 315.824219 195.277344 315.761719 161.988281 303.136719 C 128.695312 290.507812 100.078125 265.34375 86.144531 226.871094 C 73 190.554688 77.554688 159.460938 91.453125 135.195312 C 105.347656 110.933594 128.621094 93.511719 152.925781 84.71875 C 155.84375 83.660156 158.773438 82.730469 161.699219 81.925781 C 190.0625 74.21875 216.984375 79.164062 239.535156 92.554688 C 262.078125 105.945312 280.230469 127.804688 290.972656 153.898438 C 291.578125 155.367188 292.179688 156.949219 292.761719 158.554688 C 293.984375 161.929688 295.117188 165.4375 296.023438 168.375 C 296.105469 168.644531 296.394531 168.796875 296.664062 168.714844 C 296.933594 168.628906 297.085938 168.339844 297.003906 168.070312 " fill-opacity="1" fill-rule="nonzero"/></g></g></g></g><g clip-path="url(#id66)"><g clip-path="url(#id67)"><g clip-path="url(#id68)"><g clip-path="url(#id69)"><path fill="#231f20" d="M 306.460938 165.601562 C 305.398438 162.003906 303.789062 156.617188 302.121094 152.011719 C 301.785156 151.078125 301.445312 150.179688 301.105469 149.328125 C 289.40625 119.886719 268.605469 95.875 242.890625 81.539062 C 217.175781 67.199219 186.542969 62.546875 155.230469 71.820312 C 152.972656 72.496094 150.726562 73.242188 148.496094 74.046875 C 120.675781 84.121094 95.398438 104.214844 80.5 131.296875 C 65.597656 158.375 61.097656 192.449219 74.824219 230.347656 C 89.101562 269.78125 118.371094 296.480469 152.699219 310.171875 C 187.03125 323.863281 226.425781 324.566406 261.03125 312.039062 C 314.628906 292.632812 347.519531 240.902344 347.484375 184.90625 C 347.484375 184.625 347.25 184.394531 346.96875 184.394531 C 346.683594 184.394531 346.457031 184.621094 346.457031 184.90625 C 346.492188 240.507812 313.84375 291.828125 260.679688 311.074219 C 226.324219 323.519531 187.167969 322.816406 153.078125 309.21875 C 118.984375 295.617188 89.960938 269.140625 75.785156 230 C 62.160156 192.351562 66.636719 158.632812 81.394531 131.792969 C 96.160156 104.957031 121.246094 85 148.84375 75.011719 C 151.058594 74.210938 153.289062 73.472656 155.523438 72.800781 C 186.566406 63.613281 216.894531 68.222656 242.394531 82.433594 C 267.886719 96.648438 288.535156 120.476562 300.152344 149.710938 C 300.488281 150.546875 300.824219 151.433594 301.15625 152.359375 C 302.808594 156.921875 304.417969 162.300781 305.476562 165.894531 C 305.554688 166.164062 305.84375 166.320312 306.117188 166.238281 C 306.382812 166.160156 306.542969 165.875 306.460938 165.601562 " fill-opacity="1" fill-rule="nonzero"/></g></g></g></g><g clip-path="url(#id70)"><g clip-path="url(#id71)"><g clip-path="url(#id72)"><g clip-path="url(#id73)"><path fill="#231f20" d="M 315.914062 163.136719 C 314.816406 159.21875 312.816406 152.074219 310.878906 146.714844 C 310.683594 146.175781 310.488281 145.65625 310.292969 145.152344 C 285.132812 79.945312 217.03125 41.183594 149.035156 62.699219 C 147.402344 63.222656 145.785156 63.773438 144.179688 64.355469 C 112.925781 75.671875 85.921875 98.390625 70.265625 128.070312 C 54.609375 157.75 50.316406 194.394531 64.464844 233.476562 C 78.984375 273.570312 108.644531 301.578125 143.773438 316.246094 C 178.90625 330.917969 219.511719 332.265625 255.972656 319.0625 C 312.863281 298.464844 347.820312 243.773438 347.503906 184.949219 C 347.5 184.667969 347.269531 184.4375 346.988281 184.441406 C 346.703125 184.441406 346.476562 184.675781 346.476562 184.957031 C 346.789062 243.375 312.085938 297.660156 255.625 318.097656 C 219.414062 331.214844 179.058594 329.871094 144.167969 315.300781 C 109.273438 300.726562 79.847656 272.9375 65.429688 233.125 C 51.378906 194.304688 55.648438 157.992188 71.171875 128.550781 C 86.699219 99.113281 113.507812 76.554688 144.527344 65.320312 C 146.125 64.742188 147.726562 64.199219 149.34375 63.679688 C 216.78125 42.335938 284.332031 80.765625 309.339844 145.527344 C 309.527344 146.015625 309.71875 146.53125 309.914062 147.066406 C 311.832031 152.363281 313.828125 159.5 314.929688 163.414062 C 315.007812 163.683594 315.289062 163.847656 315.5625 163.769531 C 315.835938 163.691406 315.992188 163.410156 315.914062 163.136719 " fill-opacity="1" fill-rule="nonzero"/></g></g></g></g><g clip-path="url(#id74)"><g clip-path="url(#id75)"><g clip-path="url(#id76)"><g clip-path="url(#id77)"><path fill="#231f20" d="M 325.375 160.667969 C 324.28125 156.574219 321.933594 147.734375 319.800781 141.839844 C 319.695312 141.546875 319.585938 141.257812 319.480469 140.980469 C 292.550781 69.445312 216.191406 29.089844 142.835938 53.582031 C 141.785156 53.9375 140.742188 54.304688 139.707031 54.679688 C 104.917969 67.273438 76.253906 92.667969 59.914062 124.960938 C 43.574219 157.253906 39.570312 196.453125 54.109375 236.605469 C 68.867188 277.363281 98.921875 306.675781 134.847656 322.324219 C 170.78125 337.972656 212.597656 339.960938 250.917969 326.085938 C 311.097656 304.296875 348.117188 246.644531 347.523438 184.992188 C 347.519531 184.714844 347.289062 184.484375 347.003906 184.488281 C 346.722656 184.488281 346.492188 184.722656 346.496094 185.007812 C 347.085938 246.242188 310.324219 303.488281 250.570312 325.121094 C 212.503906 338.902344 170.953125 336.925781 135.253906 321.378906 C 99.5625 305.835938 69.734375 276.738281 55.070312 236.253906 C 40.632812 196.363281 44.609375 157.480469 60.824219 125.421875 C 77.042969 93.371094 105.511719 68.152344 140.054688 55.644531 C 141.085938 55.269531 142.125 54.90625 143.164062 54.554688 C 215.96875 30.246094 291.761719 70.289062 318.519531 141.339844 C 318.625 141.617188 318.730469 141.898438 318.835938 142.1875 C 320.945312 148.007812 323.292969 156.84375 324.382812 160.933594 C 324.457031 161.207031 324.738281 161.367188 325.011719 161.300781 C 325.285156 161.226562 325.445312 160.941406 325.375 160.667969 " fill-opacity="1" fill-rule="nonzero"/></g></g></g></g><g clip-path="url(#id78)"><g clip-path="url(#id79)"><g clip-path="url(#id80)"><g clip-path="url(#id81)"><path fill="#231f20" d="M 334.832031 158.199219 C 333.761719 154 331.09375 143.492188 328.804688 137.171875 C 328.757812 137.050781 328.714844 136.925781 328.667969 136.800781 C 299.964844 58.957031 215.355469 16.996094 136.644531 44.464844 C 136.132812 44.644531 135.625 44.824219 135.117188 45.007812 C 96.730469 58.90625 66.441406 87.011719 49.472656 121.929688 C 32.503906 156.84375 28.859375 198.585938 43.753906 239.730469 C 58.75 281.148438 89.195312 311.773438 125.921875 328.394531 C 162.65625 345.023438 205.683594 347.65625 245.859375 333.109375 C 309.335938 310.125 348.417969 249.515625 347.546875 185.042969 C 347.539062 184.757812 347.304688 184.53125 347.023438 184.535156 C 346.742188 184.539062 346.515625 184.769531 346.519531 185.054688 C 347.382812 249.109375 308.558594 309.316406 245.511719 332.144531 C 205.589844 346.597656 162.839844 343.980469 126.347656 327.460938 C 89.851562 310.941406 59.617188 280.53125 44.71875 239.382812 C 15.117188 157.628906 59.207031 73.589844 135.464844 45.972656 C 135.96875 45.792969 136.476562 45.613281 136.980469 45.433594 C 215.15625 18.15625 299.183594 59.816406 327.707031 137.152344 C 327.75 137.277344 327.796875 137.398438 327.839844 137.523438 C 330.097656 143.753906 332.773438 154.265625 333.839844 158.453125 C 333.90625 158.726562 334.1875 158.894531 334.460938 158.824219 C 334.734375 158.753906 334.902344 158.476562 334.832031 158.199219 " fill-opacity="1" fill-rule="nonzero"/></g></g></g></g><g clip-path="url(#id82)"><g clip-path="url(#id83)"><g clip-path="url(#id84)"><g clip-path="url(#id85)"><path fill="#231f20" d="M 344.289062 155.734375 C 343.261719 151.460938 340.273438 139.304688 337.855469 132.621094 C 307.378906 48.460938 214.523438 4.910156 130.449219 35.351562 C 46.375 65.792969 2.925781 158.695312 33.398438 242.859375 C 63.871094 327.023438 156.730469 370.574219 240.800781 340.132812 C 307.570312 315.957031 348.714844 252.386719 347.5625 185.085938 C 347.558594 184.800781 347.324219 184.574219 347.042969 184.578125 C 346.757812 184.585938 346.53125 184.820312 346.539062 185.101562 C 347.683594 251.976562 306.796875 315.144531 240.453125 339.167969 C 198.683594 354.292969 154.730469 351.035156 117.433594 333.546875 C 80.140625 316.050781 49.503906 284.324219 34.363281 242.507812 C 19.21875 200.691406 22.445312 156.707031 39.894531 119.394531 C 57.347656 82.078125 89.027344 51.4375 130.796875 36.316406 C 172.570312 21.191406 216.519531 24.445312 253.816406 41.9375 C 291.117188 59.429688 321.75 91.152344 336.890625 132.972656 C 339.277344 139.550781 342.269531 151.71875 343.292969 155.972656 C 343.359375 156.25 343.632812 156.417969 343.910156 156.351562 C 344.1875 156.289062 344.355469 156.007812 344.289062 155.734375 " fill-opacity="1" fill-rule="nonzero"/></g></g></g></g><g clip-path="url(#id86)"><g clip-path="url(#id87)"><g clip-path="url(#id88)"><g clip-path="url(#id89)"><path fill="#231f20" d="M 151.105469 347.808594 L 151.214844 343.601562 L 151.648438 326.695312 C 153.003906 327.164062 154.757812 326.996094 156.367188 326.113281 C 158.953125 324.695312 160.183594 321.96875 159.117188 320.019531 C 158.050781 318.074219 155.089844 317.644531 152.5 319.0625 C 150.503906 320.15625 149.320312 322.035156 149.375 323.730469 L 149.363281 323.730469 L 148.867188 342.953125 L 132.265625 338.363281 L 132.707031 321.351562 C 134.0625 321.820312 135.816406 321.65625 137.421875 320.769531 C 140.011719 319.355469 141.246094 316.625 140.175781 314.679688 C 139.109375 312.730469 136.144531 312.300781 133.558594 313.71875 C 131.5625 314.816406 130.375 316.691406 130.433594 318.386719 L 130.417969 318.386719 L 129.917969 337.71875 L 129.800781 342.398438 L 129.742188 344.640625 L 151.03125 350.527344 L 151.105469 347.808594 " fill-opacity="1" fill-rule="nonzero"/></g></g></g></g><g clip-path="url(#id90)"><g clip-path="url(#id91)"><g clip-path="url(#id92)"><g clip-path="url(#id93)"><path fill="#231f20" d="M 223.742188 341.773438 C 223.015625 338.265625 219.496094 335.21875 216.128906 333.695312 C 216.128906 333.695312 219.753906 331.082031 218.617188 327.636719 C 217.480469 324.1875 212.78125 323.519531 212.78125 323.519531 C 212.78125 323.519531 215.070312 327.066406 214.554688 329.707031 C 214.03125 332.339844 211.585938 334.199219 209.953125 334.925781 C 209.953125 334.925781 216.621094 336.625 217.15625 342.0625 C 217.566406 346.199219 212.828125 348.84375 214.074219 353.304688 C 215.617188 358.8125 221.835938 358.28125 223.125 357.855469 C 223.125 357.855469 220.84375 357.101562 221.019531 354.195312 C 221.242188 350.402344 224.695312 346.355469 223.742188 341.773438 " fill-opacity="1" fill-rule="nonzero"/></g></g></g></g><g clip-path="url(#id94)"><g clip-path="url(#id95)"><g clip-path="url(#id96)"><g clip-path="url(#id97)"><path fill="#231f20" d="M 233.402344 82.277344 C 232.769531 85.609375 234.742188 89.539062 237.128906 92.097656 C 237.128906 92.097656 233.015625 93.058594 232.761719 96.480469 C 232.507812 99.902344 236.367188 102.191406 236.367188 102.191406 C 236.367188 102.191406 235.65625 98.261719 237.0625 96.148438 C 238.46875 94.035156 241.28125 93.304688 242.96875 93.257812 C 242.96875 93.257812 237.757812 89.355469 239.261719 84.417969 C 240.398438 80.65625 245.496094 80.066406 246.023438 75.71875 C 246.671875 70.351562 241.039062 68.558594 239.761719 68.460938 C 239.761719 68.460938 241.484375 69.953125 240.28125 72.425781 C 238.710938 75.65625 234.230469 77.929688 233.402344 82.277344 " fill-opacity="1" fill-rule="nonzero"/></g></g></g></g><g clip-path="url(#id98)"><g clip-path="url(#id99)"><g clip-path="url(#id100)"><g clip-path="url(#id101)"><path fill="#231f20" d="M 111.980469 293.246094 C 107.515625 294.128906 105.089844 292.550781 104.691406 291.324219 C 104.09375 289.515625 105.796875 285.488281 111.121094 284.714844 C 113.917969 284.308594 116.300781 284.863281 117.789062 286.144531 L 115.761719 292.144531 C 114.699219 292.496094 113.324219 292.980469 111.980469 293.246094 Z M 111.082031 282.894531 C 101.792969 283.875 98.3125 289.3125 99.789062 292.953125 C 101.285156 296.648438 107.667969 297.976562 112.035156 296.703125 C 112.839844 296.464844 113.671875 296.183594 114.5 295.878906 L 105.726562 321.808594 L 108.433594 322.726562 L 121.265625 284.78125 L 119.097656 284.046875 C 116.203125 282.996094 113.949219 282.59375 111.082031 282.894531 " fill-opacity="1" fill-rule="nonzero"/></g></g></g></g><g clip-path="url(#id102)"><g clip-path="url(#id103)"><g clip-path="url(#id104)"><g clip-path="url(#id105)"><path fill="#231f20" d="M 105.390625 101.175781 L 86.554688 83.269531 L 86.125 83.722656 L 86.121094 83.71875 L 52.371094 119.300781 L 52.21875 119.460938 L 68.777344 135.203125 C 67.421875 135.949219 66.285156 137.484375 65.832031 139.414062 C 65.097656 142.527344 66.398438 145.492188 68.730469 146.050781 C 71.066406 146.597656 73.554688 144.53125 74.289062 141.417969 C 74.855469 139.015625 74.203125 136.707031 72.800781 135.519531 L 72.816406 135.507812 L 58.304688 121.71875 L 72.832031 106.402344 L 85.066406 118.03125 C 83.710938 118.78125 82.574219 120.3125 82.117188 122.25 C 81.386719 125.359375 82.6875 128.328125 85.023438 128.878906 C 87.359375 129.433594 89.847656 127.359375 90.578125 124.246094 C 91.140625 121.847656 90.496094 119.535156 89.097656 118.351562 L 89.101562 118.34375 L 74.589844 104.550781 L 89.117188 89.234375 L 101.355469 100.863281 C 100 101.613281 98.867188 103.144531 98.40625 105.078125 C 97.675781 108.1875 98.976562 111.15625 101.316406 111.710938 C 103.648438 112.261719 106.136719 110.191406 106.867188 107.082031 C 107.433594 104.679688 106.78125 102.367188 105.382812 101.183594 L 105.390625 101.175781 " fill-opacity="1" fill-rule="nonzero"/></g></g></g></g><g clip-path="url(#id106)"><g clip-path="url(#id107)"><g clip-path="url(#id108)"><g clip-path="url(#id109)"><path fill="#231f20" d="M 256.960938 316.730469 L 256.910156 320.421875 L 234.363281 320.101562 L 234.410156 316.414062 Z M 234.277344 326.480469 L 256.824219 326.792969 L 259.324219 326.832031 L 259.558594 326.835938 L 259.878906 302.429688 C 261.453125 302.949219 263.476562 302.730469 265.328125 301.683594 C 268.292969 300.007812 269.679688 296.839844 268.417969 294.601562 C 267.152344 292.367188 263.722656 291.917969 260.757812 293.59375 C 258.460938 294.890625 257.125 297.074219 257.207031 299.035156 L 257.195312 299.035156 L 256.988281 314.582031 L 234.4375 314.265625 L 234.601562 302.074219 C 236.171875 302.59375 238.199219 302.375 240.046875 301.332031 C 243.015625 299.652344 244.398438 296.480469 243.136719 294.246094 C 241.878906 292.015625 238.449219 291.5625 235.476562 293.238281 C 233.183594 294.535156 231.84375 296.71875 231.929688 298.679688 L 231.917969 298.679688 L 231.546875 326.441406 L 233.148438 326.460938 L 234.277344 326.480469 " fill-opacity="1" fill-rule="nonzero"/></g></g></g></g><g clip-path="url(#id110)"><g clip-path="url(#id111)"><g clip-path="url(#id112)"><g clip-path="url(#id113)"><path fill="#231f20" d="M 75.0625 220.289062 L 80.917969 230.53125 L 74.265625 232.894531 L 68.410156 222.652344 Z M 55.613281 224.453125 L 56.476562 226.886719 L 63.449219 224.410156 L 69.300781 234.65625 L 60.363281 237.835938 L 61.226562 240.265625 L 70.605469 236.933594 L 74.785156 244.246094 L 79.75 242.484375 L 75.570312 235.171875 L 82.21875 232.808594 L 86.402344 240.121094 L 91.363281 238.363281 L 87.183594 231.046875 L 94.269531 228.53125 L 93.40625 226.097656 L 85.882812 228.769531 L 80.027344 218.523438 L 89.519531 215.152344 L 88.65625 212.722656 L 78.722656 216.246094 L 76.1875 211.804688 L 71.226562 213.570312 L 73.761719 218.007812 L 67.109375 220.371094 L 64.574219 215.929688 L 59.609375 217.695312 L 62.144531 222.136719 L 55.613281 224.453125 " fill-opacity="1" fill-rule="nonzero"/></g></g></g></g><g clip-path="url(#id114)"><g clip-path="url(#id115)"><g clip-path="url(#id116)"><g clip-path="url(#id117)"><path fill="#231f20" d="M 267.261719 108.277344 C 265.6875 108.058594 264.289062 107.453125 263.230469 106.617188 C 261.75 105.457031 260.921875 103.839844 261.152344 102.191406 C 261.542969 99.355469 264.917969 97.484375 268.683594 98.011719 C 270.261719 98.230469 271.652344 98.835938 272.710938 99.671875 C 274.195312 100.835938 275.023438 102.449219 274.796875 104.097656 C 274.398438 106.933594 271.027344 108.804688 267.261719 108.277344 Z M 294.714844 82.710938 L 292.324219 80.828125 L 276.273438 101.261719 C 275.804688 100.109375 275.003906 99.035156 273.898438 98.167969 C 272.527344 97.085938 270.8125 96.375 268.945312 96.117188 C 266.71875 95.804688 264.507812 96.179688 262.722656 97.164062 C 260.792969 98.238281 259.527344 99.972656 259.253906 101.925781 C 258.941406 104.183594 259.988281 106.496094 262.050781 108.121094 C 263.421875 109.203125 265.132812 109.914062 266.996094 110.171875 C 269.226562 110.484375 271.4375 110.113281 273.222656 109.121094 C 274.195312 108.582031 275.007812 107.863281 275.597656 107.039062 L 275.597656 107.054688 L 294.714844 82.710938 " fill-opacity="1" fill-rule="nonzero"/></g></g></g></g><g clip-path="url(#id118)"><g clip-path="url(#id119)"><g clip-path="url(#id120)"><g clip-path="url(#id121)"><path fill="#231f20" d="M 33.824219 173.046875 C 30.792969 175.992188 24.65625 177.851562 22.082031 178.535156 L 20.90625 178.828125 L 49.347656 186.269531 C 48.46875 187.671875 48.195312 189.691406 48.765625 191.742188 C 49.683594 195.023438 52.429688 197.132812 54.898438 196.445312 C 57.371094 195.753906 58.625 192.53125 57.703125 189.246094 C 56.996094 186.703125 55.199219 184.878906 53.277344 184.488281 L 53.28125 184.476562 L 35.753906 179.890625 C 36.554688 179.433594 37.492188 178.808594 38.304688 178.023438 C 40.667969 175.75 42.550781 172.234375 44.335938 172.410156 C 44.335938 172.410156 41.71875 171.539062 38.484375 175.546875 C 37.222656 177.101562 34.746094 178.421875 33.078125 179.1875 L 29.90625 178.355469 C 31.179688 177.675781 32.683594 176.761719 33.714844 175.746094 C 35.851562 173.660156 38.753906 169.472656 40.582031 169.964844 C 40.582031 169.964844 38.484375 168.535156 33.824219 173.046875 " fill-opacity="1" fill-rule="nonzero"/></g></g></g></g><g clip-path="url(#id122)"><g clip-path="url(#id123)"><g clip-path="url(#id124)"><g clip-path="url(#id125)"><path fill="#231f20" d="M 178.554688 299.382812 C 176.464844 300.988281 175.449219 303.339844 175.808594 305.269531 L 175.796875 305.269531 L 178.992188 330.023438 C 177.960938 329.4375 176.660156 328.691406 175.429688 327.96875 C 170.285156 324.925781 166.757812 322.5 168.394531 320.320312 C 168.394531 320.320312 163.320312 323.394531 172.171875 329.875 C 177.148438 333.515625 182.695312 337.425781 182.695312 337.425781 L 178.933594 308.246094 C 180.5625 308.546875 182.539062 308.042969 184.21875 306.746094 C 186.917969 304.664062 187.84375 301.328125 186.277344 299.296875 C 184.714844 297.261719 181.253906 297.304688 178.554688 299.382812 " fill-opacity="1" fill-rule="nonzero"/></g></g></g></g><g clip-path="url(#id126)"><g clip-path="url(#id127)"><g clip-path="url(#id128)"><g clip-path="url(#id129)"><path fill="#231f20" d="M 203.242188 70.890625 C 203.054688 63.949219 202.71875 57.007812 202.261719 50.132812 C 204.367188 50.15625 206.390625 50.902344 207.828125 51.890625 C 210.769531 53.917969 212.28125 57.132812 212.238281 60.117188 C 212.175781 64.019531 208.925781 69.617188 203.242188 70.890625 Z M 199.855469 71.132812 C 190.90625 70.394531 183.316406 65.160156 183.292969 55.410156 C 183.277344 46.605469 188.3125 41.234375 199.15625 38.003906 C 199.265625 40.351562 199.394531 42.722656 199.515625 45.027344 C 194.050781 45.425781 190.984375 48.828125 190.144531 55.242188 C 189.726562 58.445312 190.851562 64.507812 196.109375 65.476562 C 196.109375 65.476562 191.972656 59.695312 194.863281 54.558594 C 196.175781 52.226562 197.960938 50.984375 199.835938 50.449219 C 200.261719 57.386719 200.652344 62.652344 200.652344 62.652344 C 200.652344 62.652344 200.800781 66.652344 200.917969 71.15625 C 200.566406 71.160156 200.21875 71.164062 199.855469 71.132812 Z M 202.140625 25.671875 C 202.203125 22.921875 202.410156 19.753906 203.246094 16.214844 C 203.996094 13.027344 205.589844 10.917969 206.296875 10.859375 C 207.003906 10.804688 209.0625 11.90625 210.492188 15.007812 C 211.179688 16.488281 211.417969 19.375 211.152344 21.675781 C 210.75 25.179688 209.539062 27.867188 206.703125 29.816406 C 205.347656 30.746094 203.730469 31.492188 202.054688 32.140625 C 202.078125 29.5 202.113281 27.144531 202.140625 25.671875 Z M 214.777344 52.355469 C 212.589844 47.976562 206.988281 45.464844 202.054688 45.046875 C 202.027344 42.9375 202.019531 40.121094 202.03125 37.234375 C 202.292969 37.167969 202.546875 37.09375 202.816406 37.03125 C 213.089844 34.664062 217.808594 21.65625 213.109375 13.695312 C 210.953125 10.042969 207.269531 7.683594 205.351562 8.074219 C 203.433594 8.460938 199.128906 12.003906 198.816406 21.726562 C 198.722656 24.628906 198.800781 28.746094 198.957031 33.253906 C 198.292969 33.484375 197.632812 33.710938 197.003906 33.929688 C 191.585938 35.816406 187.242188 36.789062 183.398438 41.425781 C 180.039062 45.484375 179.078125 51.773438 179.800781 56.90625 C 181.257812 67.203125 191.539062 72.757812 200.957031 72.761719 C 201.066406 76.933594 201.128906 81.191406 201.03125 82.886719 C 200.800781 86.871094 201.527344 91.375 196.414062 93.523438 C 194.164062 94.472656 192.183594 94.222656 190.726562 93.246094 C 192.828125 92.996094 194.496094 91.257812 194.574219 89.074219 C 194.65625 86.652344 192.773438 84.621094 190.351562 84.53125 C 187.933594 84.449219 185.90625 86.335938 185.824219 88.753906 C 185.808594 89.078125 185.839844 89.390625 185.894531 89.703125 C 186.230469 92.296875 187.753906 94.074219 189.113281 94.984375 C 192.46875 97.222656 197.566406 97.15625 200.828125 93.105469 C 202.992188 90.402344 203.425781 87.074219 203.425781 82.84375 C 203.425781 79.457031 203.371094 76.046875 203.296875 72.636719 C 207.410156 72.101562 211.269531 69.976562 213.515625 66.375 C 215.875 62.585938 217.277344 57.355469 214.777344 52.355469 " fill-opacity="1" fill-rule="nonzero"/></g></g></g></g><g clip-path="url(#id130)"><g clip-path="url(#id131)"><g clip-path="url(#id132)"><g clip-path="url(#id133)"><path fill="#231f20" d="M 133.105469 61.496094 C 130.15625 62.5625 127.15625 65.117188 126.554688 69.335938 C 126.488281 69.640625 126.457031 69.960938 126.457031 70.28125 L 126.453125 70.332031 C 126.460938 70.855469 126.546875 71.398438 126.738281 71.929688 C 127.640625 74.421875 130.394531 75.707031 132.886719 74.804688 C 135.378906 73.902344 136.664062 71.152344 135.761719 68.660156 C 135.152344 66.972656 133.691406 65.835938 132.042969 65.558594 C 136.679688 64.535156 140.910156 66.136719 143.257812 72.015625 C 145.011719 76.425781 143.5 85.179688 132.539062 90.773438 C 148.96875 85.53125 149.355469 74.261719 147.273438 68.507812 C 145.125 62.578125 138.785156 59.4375 133.105469 61.496094 " fill-opacity="1" fill-rule="nonzero"/></g></g></g></g><g clip-path="url(#id134)"><g clip-path="url(#id135)"><g clip-path="url(#id136)"><g clip-path="url(#id137)"><path fill="#231f20" d="M 146.65625 57.878906 C 145.453125 58.316406 144.832031 59.652344 145.269531 60.855469 C 145.707031 62.058594 147.03125 62.679688 148.238281 62.242188 C 149.441406 61.808594 150.066406 60.480469 149.628906 59.277344 C 149.191406 58.074219 147.863281 57.441406 146.65625 57.878906 " fill-opacity="1" fill-rule="nonzero"/></g></g></g></g><g clip-path="url(#id138)"><g clip-path="url(#id139)"><g clip-path="url(#id140)"><g clip-path="url(#id141)"><path fill="#231f20" d="M 149.320312 65.234375 C 148.117188 65.671875 147.496094 67.003906 147.929688 68.207031 C 148.367188 69.414062 149.695312 70.035156 150.902344 69.601562 C 152.105469 69.164062 152.726562 67.835938 152.292969 66.628906 C 151.855469 65.425781 150.527344 64.800781 149.320312 65.234375 " fill-opacity="1" fill-rule="nonzero"/></g></g></g></g><g mask="url(#id142)"><g transform="matrix(1, 0, 0, 1, 84, 109)"><g clip-path="url(#id176)"><g clip-path="url(#id143)"><g clip-path="url(#id144)"><g clip-path="url(#id145)"><path fill="#09520e" d="M 59.996094 161.558594 C 61.617188 165.359375 59.871094 169.753906 56.085938 171.386719 C 52.304688 173.015625 47.917969 171.257812 46.292969 167.460938 C 44.667969 163.664062 46.414062 159.261719 50.199219 157.632812 C 53.984375 156.003906 58.367188 157.761719 59.996094 161.558594 " fill-opacity="1" fill-rule="nonzero"/></g></g></g><g clip-path="url(#id146)"><g clip-path="url(#id147)"><g clip-path="url(#id148)"><path fill="#09520e" d="M 63.933594 129.554688 L 51.308594 100.0625 C 51.308594 100.0625 62.726562 95.976562 68.285156 108.957031 C 73.84375 121.941406 63.933594 129.554688 63.933594 129.554688 Z M 25.714844 40.050781 C 19.285156 25.261719 21.382812 16.878906 23.082031 16.488281 C 26.222656 15.761719 33.039062 26.265625 35.464844 33.398438 C 37.894531 40.539062 30.148438 50.640625 30.148438 50.640625 C 30.148438 50.640625 28.152344 45.363281 25.714844 40.050781 Z M 40.554688 93.996094 C 33.058594 98.636719 26.644531 110.363281 31.746094 121.699219 C 37.792969 135.148438 50.183594 131.859375 50.183594 131.859375 C 50.183594 131.859375 38.550781 129.328125 36.0625 119.214844 C 34.417969 112.542969 37.757812 105.414062 44.195312 102.496094 C 46.699219 108.339844 50.28125 116.710938 57.734375 134.117188 C 52.835938 137.328125 28.925781 146.71875 17.828125 124.394531 C 8.019531 104.671875 21.78125 85.207031 31.007812 71.691406 C 31.695312 73.289062 38.035156 88.101562 40.554688 93.996094 Z M 47.519531 90.679688 L 36.261719 64.375 C 36.261719 64.375 42.972656 53.097656 41.785156 42.914062 C 40.242188 29.589844 25.65625 7.71875 15.972656 6.550781 C 1.835938 4.847656 20.464844 46.15625 20.464844 46.15625 L 24.902344 56.519531 C 24.902344 56.519531 -2.941406 89.4375 12.644531 125.839844 C 24.929688 154.535156 59.597656 137.5625 59.597656 137.5625 L 66.421875 153.503906 C 66.421875 153.503906 74.242188 169.019531 66.496094 172.355469 C 59.136719 175.523438 55.183594 170.382812 52.957031 166.851562 C 49.878906 161.980469 46.292969 167.460938 46.292969 167.460938 C 46.292969 167.460938 53.851562 185.117188 70.53125 177.933594 C 82.644531 172.71875 75.730469 156.574219 75.730469 156.574219 C 75.730469 156.574219 67.941406 138.375 65.664062 133.058594 C 73.53125 125.425781 77.273438 114.84375 72.628906 104.097656 C 64.953125 86.164062 47.519531 90.679688 47.519531 90.679688 " fill-opacity="1" fill-rule="nonzero"/></g></g></g><g clip-path="url(#id149)"><g clip-path="url(#id150)"><g clip-path="url(#id151)"><path fill="#09520e" d="M 70.96875 62.054688 L 67.222656 62.328125 L 63.566406 12.082031 L 67.316406 11.8125 L 70.96875 62.054688 " fill-opacity="1" fill-rule="nonzero"/></g></g></g><g clip-path="url(#id152)"><g clip-path="url(#id153)"><g clip-path="url(#id154)"><path fill="#09520e" d="M 70.507812 59.644531 C 72.222656 62.46875 69.820312 67.070312 65.148438 69.921875 C 60.476562 72.773438 55.300781 72.792969 53.585938 69.96875 C 51.871094 67.140625 54.273438 62.542969 58.945312 59.6875 C 63.617188 56.835938 68.792969 56.816406 70.507812 59.644531 " fill-opacity="1" fill-rule="nonzero"/></g></g></g><g clip-path="url(#id155)"><g clip-path="url(#id156)"><g clip-path="url(#id157)"><path fill="#09520e" d="M 63.308594 11.167969 L 67.257812 10.847656 C 67.257812 10.847656 67.710938 15.457031 70.800781 18.105469 C 75.835938 22.425781 79.957031 21.972656 81.445312 27.832031 C 83.125 34.4375 74.394531 44.3125 74.519531 44.125 C 74.519531 44.125 79.296875 38.53125 76.757812 34.441406 C 74.214844 30.347656 71.945312 29.5625 67.863281 24.972656 C 63.777344 20.386719 63.308594 11.167969 63.308594 11.167969 " fill-opacity="1" fill-rule="nonzero"/></g></g></g><g clip-path="url(#id158)"><g clip-path="url(#id159)"><g clip-path="url(#id160)"><path fill="#09520e" d="M 82.503906 84.453125 L 80.679688 84.074219 L 85.714844 59.574219 L 87.542969 59.953125 L 82.503906 84.453125 " fill-opacity="1" fill-rule="nonzero"/></g></g></g><g clip-path="url(#id161)"><g clip-path="url(#id162)"><g clip-path="url(#id163)"><path fill="#09520e" d="M 96.050781 87.261719 L 94.222656 86.882812 L 99.257812 62.382812 L 101.085938 62.761719 L 96.050781 87.261719 " fill-opacity="1" fill-rule="nonzero"/></g></g></g><g clip-path="url(#id164)"><g clip-path="url(#id165)"><g clip-path="url(#id166)"><path fill="#09520e" d="M 100.050781 68.109375 L 84.617188 64.90625 L 85.714844 59.574219 L 101.148438 62.777344 L 100.050781 68.109375 " fill-opacity="1" fill-rule="nonzero"/></g></g></g><g clip-path="url(#id167)"><g clip-path="url(#id168)"><g clip-path="url(#id169)"><path fill="#09520e" d="M 99.894531 68.871094 L 84.460938 65.667969 L 84.078125 67.535156 L 99.511719 70.738281 L 99.894531 68.871094 " fill-opacity="1" fill-rule="nonzero"/></g></g></g><g clip-path="url(#id170)"><g clip-path="url(#id171)"><g clip-path="url(#id172)"><path fill="#09520e" d="M 82.546875 83.226562 C 82.984375 84.808594 81.21875 86.679688 78.597656 87.40625 C 75.980469 88.132812 73.503906 87.4375 73.070312 85.855469 C 72.632812 84.273438 74.398438 82.398438 77.015625 81.671875 C 79.636719 80.949219 82.109375 81.640625 82.546875 83.226562 " fill-opacity="1" fill-rule="nonzero"/></g></g></g><g clip-path="url(#id173)"><g clip-path="url(#id174)"><g clip-path="url(#id175)"><path fill="#09520e" d="M 96.152344 86.046875 C 96.589844 87.632812 94.824219 89.503906 92.207031 90.226562 C 89.585938 90.957031 87.109375 90.261719 86.671875 88.679688 C 86.234375 87.09375 88.003906 85.226562 90.621094 84.496094 C 93.238281 83.769531 95.714844 84.464844 96.152344 86.046875 " fill-opacity="1" fill-rule="nonzero"/></g></g></g></g></g></g><g fill="#918f8f" fill-opacity="1"><g transform="translate(156.408567, 231.45227)"><g><path d="M 16.726562 -24.523438 L 22.273438 -24.523438 L 22.273438 -12.675781 C 22.273438 -11.699219 21.449219 -10.949219 20.476562 -10.949219 L 12.523438 -10.949219 C 11.625 -10.949219 10.875 -11.699219 10.875 -12.601562 L 10.875 -44.175781 C 10.875 -45.148438 11.625 -45.976562 12.601562 -45.976562 L 20.398438 -45.976562 C 21.449219 -45.976562 22.273438 -45.148438 22.273438 -44.101562 L 22.273438 -41.476562 L 33.074219 -41.476562 L 33.074219 -44.101562 C 33.074219 -51.148438 27.375 -56.773438 20.398438 -56.773438 L 12.601562 -56.773438 C 5.625 -56.773438 0 -51.148438 0 -44.175781 L 0 -12.601562 C 0 -5.699219 5.625 -0.0742188 12.523438 -0.0742188 L 20.476562 -0.0742188 C 27.449219 -0.0742188 33.074219 -5.773438 33.074219 -12.675781 L 33.148438 -35.398438 L 16.726562 -35.398438 Z M 16.726562 -24.523438 "/></g></g></g><g fill="#918f8f" fill-opacity="1"><g transform="translate(193.308528, 231.45227)"><g><path d="M 0 -56.699219 L 0 -12.523438 C 0 -5.550781 5.699219 0.0742188 12.601562 0.0742188 L 20.476562 0.0742188 C 27.449219 0.0742188 33.074219 -5.550781 33.074219 -12.523438 L 33.074219 -56.699219 L 22.273438 -56.699219 L 22.273438 -12.523438 C 22.273438 -11.550781 21.449219 -10.800781 20.476562 -10.800781 L 12.601562 -10.800781 C 11.625 -10.800781 10.875 -11.550781 10.875 -12.523438 L 10.875 -56.699219 Z M 0 -56.699219 "/></g></g></g><g fill="#918f8f" fill-opacity="1"><g transform="translate(230.133496, 231.45227)"><g><path d="M 30.074219 -56.773438 L 0 -56.851562 L 0 -0.0742188 L 30.074219 -0.0742188 L 30.074219 -10.949219 L 10.875 -10.949219 L 10.875 -24.523438 L 23.25 -24.523438 L 23.25 -35.398438 L 10.875 -35.398438 L 10.875 -45.976562 L 30.074219 -45.976562 Z M 30.074219 -56.773438 "/></g></g></g><g fill="#918f8f" fill-opacity="1"><g transform="translate(263.958464, 231.45227)"><g><path d="M 0 -41.324219 C 0 -30.824219 6.148438 -24.675781 16.949219 -24.375 L 18.675781 -24.375 C 19.949219 -24.375 22.5 -24.375 22.5 -20.550781 L 22.5 -15.148438 C 22.5 -13.125 19.648438 -10.800781 15.601562 -10.800781 L 1.351562 -10.800781 L 1.351562 0.0742188 L 15.601562 0.0742188 C 25.351562 0.0742188 33.300781 -6.75 33.300781 -15.148438 L 33.300781 -20.550781 C 33.300781 -27.601562 28.726562 -35.25 18.675781 -35.25 L 17.699219 -35.25 C 12.75 -35.25 10.875 -36.375 10.875 -41.324219 C 10.875 -43.050781 13.050781 -45.898438 14.699219 -45.898438 L 20.699219 -45.898438 L 31.574219 -45.824219 L 31.574219 -56.699219 L 13.351562 -56.699219 C 5.773438 -55.875 0 -48.074219 0 -41.324219 Z M 0 -41.324219 "/></g></g></g><g fill="#918f8f" fill-opacity="1"><g transform="translate(301.008422, 231.45227)"><g><path d="M 0 -56.625 L 0 -45.824219 L 14.550781 -45.824219 L 14.550781 0.0742188 L 25.351562 0.0742188 L 25.351562 -45.824219 L 39.898438 -45.824219 L 39.898438 -56.625 L 25.351562 -56.625 L 25.351562 -56.699219 L 14.550781 -56.699219 L 14.550781 -56.625 Z M 0 -56.625 "/></g></g></g><path stroke-linecap="butt" transform="matrix(0.75, 0, 0, 0.75, 140.707291, 190.637711)" fill="none" stroke-linejoin="miter" d="M 38.806948 17.311177 L 46.228823 17.311177 L 46.228823 33.108054 C 46.228823 34.39972 45.103823 35.39972 43.812156 35.39972 L 33.213197 35.39972 C 32.020489 35.39972 31.01528 34.39972 31.01528 33.201804 L 31.01528 -8.912783 C 31.01528 -10.204449 32.020489 -11.303408 33.312156 -11.303408 L 43.713198 -11.303408 C 45.103823 -11.303408 46.228823 -10.204449 46.228823 -8.787783 L 46.228823 -5.298199 L 60.609032 -5.298199 L 60.609032 -8.787783 C 60.609032 -18.188825 53.015282 -25.709659 43.713198 -25.709659 L 33.312156 -25.709659 C 24.010072 -25.709659 16.515279 -18.188825 16.515279 -8.912783 L 16.515279 33.201804 C 16.515279 42.404929 24.010072 49.90493 33.213197 49.90493 L 43.812156 49.90493 C 53.11424 49.90493 60.609032 42.311179 60.609032 33.108054 L 60.702782 2.805968 L 38.806948 2.805968 Z M 65.713199 -25.6107 L 65.713199 33.300762 C 65.713199 42.602846 73.30695 50.097638 82.510075 50.097638 L 93.010076 50.097638 C 102.31216 50.097638 109.806952 42.602846 109.806952 33.300762 L 109.806952 -25.6107 L 95.426743 -25.6107 L 95.426743 33.300762 C 95.426743 34.592429 94.306951 35.597637 93.010076 35.597637 L 82.510075 35.597637 C 81.218409 35.597637 80.218409 34.592429 80.218409 33.300762 L 80.218409 -25.6107 Z M 154.905913 -25.709659 L 114.817369 -25.803409 L 114.817369 49.90493 L 154.905913 49.90493 L 154.905913 35.39972 L 129.31737 35.39972 L 129.31737 17.311177 L 145.82258 17.311177 L 145.82258 2.805968 L 129.31737 2.805968 L 129.31737 -11.303408 L 154.905913 -11.303408 Z M 159.91633 -5.100282 C 159.91633 8.910135 168.119456 17.092427 182.520499 17.503886 L 184.817374 17.503886 C 186.525707 17.503886 189.921541 17.503886 189.921541 22.608053 L 189.921541 29.811178 C 189.921541 32.49347 186.114249 35.597637 180.718415 35.597637 L 161.723622 35.597637 L 161.723622 50.097638 L 180.718415 50.097638 C 193.702791 50.097638 204.322583 40.993471 204.322583 29.811178 L 204.322583 22.608053 C 204.322583 13.207011 198.223625 3.003885 184.817374 3.003885 L 183.525707 3.003885 C 176.905915 3.003885 174.416331 1.48826 174.416331 -5.100282 C 174.416331 -7.397157 177.322582 -11.204449 179.520498 -11.204449 L 187.504874 -11.204449 L 202.004875 -11.110699 L 202.004875 -25.6107 L 177.713207 -25.6107 C 167.603831 -24.511742 159.91633 -14.1107 159.91633 -5.100282 Z M 209.317375 -25.4857 L 209.317375 -11.110699 L 228.723627 -11.110699 L 228.723627 50.097638 L 243.103836 50.097638 L 243.103836 -11.110699 L 262.515296 -11.110699 L 262.515296 -25.4857 L 243.103836 -25.4857 L 243.103836 -25.6107 L 228.723627 -25.6107 L 228.723627 -25.4857 Z M 209.317375 -25.4857 " stroke="#231f20" stroke-width="3.75" stroke-opacity="1" stroke-miterlimit="4"/></svg>